<svg xmlns="http://www.w3.org/2000/svg" viewBox="0 0 295.05 193.87"><defs><style>.a{opacity:.5}.b{fill:#f0faff}.c{fill:#00bed5}.e{opacity:.3}.f{fill:#fff}.g{fill:#51d4e1}.h{fill:#659eaf}.i{fill:#d06d4e}.j{fill:#af4930}.k{fill:#fffeff}.l{fill:#b3e6ff}.m{fill:#d1efff}</style></defs><g class="a"><path class="b" d="M157.32 35.03h100.54c0-5-5.24-8.1-5.24-8.1s2.14-9.61-13.45-13.24-19.85 5.77-19.85 5.77c-16.56-4.65-23.91 6.61-23.91 6.61l-2.34-.21c-16.87-9-22.88 1.07-22.88 1.07s-13.52 1.49-13 7.42a3.16 3.16 0 0 0 .13.68z"/></g><g class="a"><path class="b" d="M236.14 93.65h49.46c0-2.47-2.58-4-2.58-4s1-4.73-6.61-6.51-9.77 2.83-9.77 2.83c-8.14-2.28-11.75 3.26-11.75 3.26l-1.16-.11c-8.29-4.41-11.25.53-11.25.53s-6.65.73-6.41 3.64a1.28 1.28 0 0 0 .07.36z"/></g><g class="a"><path class="b" d="M22.18 10.9h49.46c0-2.47-2.58-4-2.58-4s1-4.73-6.61-6.51-9.76 2.83-9.76 2.83C44.54.96 40.93 6.5 40.93 6.5l-1.16-.11c-8.29-4.43-11.25.57-11.25.57s-6.65.73-6.41 3.64a1.86 1.86 0 0 0 .07.3z"/></g><path class="c" d="M140.76 161.79l-41.4-83.41-10.59 27.8-18.4 17.8-3.68 15.57-13.11 22.24h87.18z"/><path fill="#00cce3" d="M148.35 18.31l-32.84 92.62-27.89 50.86h125.82L148.35 18.31z"/><path class="c" d="M181.47 53.53l-25.76 53.39-21.85 16.69-11.27 36.7h121.67l-11.04-31.14-15.64-4.45-36.11-71.19z"/><path class="b" d="M99.36 78.38l-10.59 27.8 6.85-5.11.21 5.11 4.79-6.11 1.71 6.11 4.17-3.93 7.02 4.67-4.65-9.37-9.51-19.17zm48.95-60.07l-5.37 15.2-7.3 20.65 8.94-13.15.79 9.4 4.21-10.4 6.29 10.9-.41-8.72 7.73 8.85-4.4-15.13-10.48-17.6zm33.09 35.22l-6.8 14.24-6.49 13.46 6.93-5.24 3.08 4.75 3.42-5.34 5.42 6.09 1.58-4.08 5.53.97-6.66-14.75-6.01-10.1z"/><g class="e"><path class="f" d="M101.19 96.91l-12.42 18.16-12.48 11.33-2.33 13.34 15.66-18.17 20.09-10.2-8.52-14.46z"/></g><g class="e"><path class="f" d="M148.81 33.51L138 68.73l4.71 14.46-8.85-4.81-17.03 46.71-13.56 17.8 19.32-5.2 6.44-21.5 21.5-19.28-1.03-25.95 6.9-17.43-7.59-20.02z"/></g><g class="e"><path class="f" d="M179.4 68.37l-17.94 36.7 6.21 10.01H156.4l-17.71 12.24-8.86 26.32 9.55-15.95 17.94-10.37 14.03-3.34 4.14-10.94 3.91-44.67z"/></g><path class="g" d="M207.64 157.39c1.6.81 5.38.92 4.52.62-3.8-3.6-7.17-13.66-7.49-15.17a5.45 5.45 0 0 0 4 1c-4.53-4.5-7-12-8.73-18-1.68 5.94-4.2 13.48-8.73 18a5.45 5.45 0 0 0 4-1c-.32 1.51-3.69 11.57-7.49 15.17-.85.3 3.31.35 4.52-.62a38.8 38.8 0 0 1-9.25 16.78c6.3 1.75 27.56 1.75 33.86 0-6.79-6.32-9.21-16.78-9.21-16.78z"/><path class="h" d="M205.2 144.62c-.28-.85-.47-1.48-.53-1.78a5.49 5.49 0 0 0 3.89 1c-1.87-.44-3.48-1.8-5.55-2.08a17.77 17.77 0 0 1 2.19 2.86zm3.85 17.16a36.23 36.23 0 0 1-1.41-4.39c1.6.81 5.38.92 4.52.62-.12-.11-.23-.22-.34-.34-2.3-.23-4.41-1.25-6.52-1.82a10.61 10.61 0 0 0 3.75 5.93zm-12.14-20.76c-2.09.56-3.71 2-5.6 2.79a5.49 5.49 0 0 0 3.94-1 33.38 33.38 0 0 1-1.12 3.47c1.57-1.32 3.05-2.93 2.78-5.26zm-8.93 16.77l-.22.22c-.85.3 3.31.35 4.52-.62a18.91 18.91 0 0 1-.53 1.92 5.65 5.65 0 0 0 2.11-4.18c-2.07.83-3.92 1.9-5.88 2.66zm-4.12 15.49c-.26.3-.52.59-.8.89 6.3 1.75 27.56 1.75 33.86 0a23.28 23.28 0 0 1-2.3-2.47c-8.83 3.18-20.76 2.47-30.76 1.58z"/><path class="i" d="M200.03 148.63l-.81 32.29h2.67l-1.86-32.29z"/><path class="j" d="M200.03 148.63l1.06 32.14h-1.87v.15h2.67l-1.86-32.29z"/><path class="i" d="M200.56 163v.89l6.07-3.44-6.07 2.55z"/><path class="j" d="M200.56 163.73v.16l6.07-3.44-6.07 3.28z"/><path class="i" d="M200.41 158.04l-4.51-1.89 4.26 2.41.25-.52z"/><path class="j" d="M200.2 158.47l-.04.09-4.26-2.41 4.3 2.32z"/><path class="i" d="M200.41 168.54l-8.94-3.76 8.45 4.79.49-1.03z"/><path class="j" d="M200 169.39l-.08.18-8.45-4.79 8.53 4.61z"/><path class="k" d="M275.04 147.76c1.5.76 5 .86 4.23.58-3.55-3.36-6.71-12.79-7-14.2a5.13 5.13 0 0 0 3.77.9c-4.25-4.21-6.6-11.28-8.18-16.84-1.58 5.56-3.93 12.63-8.18 16.84a5.13 5.13 0 0 0 3.77-.9c-.3 1.41-3.46 10.84-7 14.2-.81.28 3.09.33 4.23-.58a36.4 36.4 0 0 1-8.66 15.72c5.9 1.64 25.81 1.64 31.7 0-6.41-5.92-8.68-15.72-8.68-15.72z"/><path class="h" d="M272.75 135.8c-.26-.79-.43-1.38-.49-1.66a5.16 5.16 0 0 0 3.64.91c-1.74-.4-3.25-1.68-5.19-1.94a16.41 16.41 0 0 1 2.04 2.69zm3.61 16.08a35.51 35.51 0 0 1-1.32-4.12c1.5.76 5 .86 4.23.58-.1-.09-.21-.2-.31-.31-2.16-.21-4.13-1.17-6.11-1.71a10 10 0 0 0 3.51 5.56zm-11.37-19.45c-1.95.53-3.47 1.89-5.24 2.62a5.17 5.17 0 0 0 3.69-.91 31.13 31.13 0 0 1-1.05 3.25c1.47-1.29 2.86-2.78 2.6-4.96zm-8.36 15.71l-.2.2c-.81.28 3.09.33 4.23-.58 0 0-.14.67-.5 1.81a5.35 5.35 0 0 0 2-3.92c-1.96.79-3.69 1.77-5.53 2.49zm-3.88 14.51l-.75.83c5.9 1.64 25.81 1.64 31.7 0a23.43 23.43 0 0 1-2.15-2.31c-8.24 2.98-19.41 2.31-28.8 1.48z"/><path class="i" d="M267.92 139.56l-.77 30.24h2.51l-1.74-30.24z"/><path class="j" d="M267.92 139.56l.99 30.1h-1.75l-.01.14h2.51l-1.74-30.24z"/><path class="i" d="M268.41 153.02v.83l5.68-3.22-5.68 2.39z"/><path class="j" d="M268.41 153.7v.15l5.68-3.22-5.68 3.07z"/><path class="i" d="M268.27 148.38l-4.22-1.78 3.99 2.26.23-.48z"/><path class="j" d="M268.08 148.78l-.04.08-3.99-2.26 4.03 2.18z"/><path class="i" d="M268.27 158.21l-8.37-3.52 7.91 4.48.46-.96z"/><path class="j" d="M267.89 159l-.08.17-7.91-4.48 7.99 4.31z"/><path class="k" d="M37.71 142.71c1.07.54 3.61.61 3 .42-2.54-2.42-4.8-9.17-5-10.18a3.62 3.62 0 0 0 2.7.64c-3-3-4.73-8.07-5.86-12-1.13 4-2.82 9-5.86 12a3.62 3.62 0 0 0 2.7-.64c-.22 1-2.48 7.76-5 10.18-.58.19 2.22.23 3-.42a26.09 26.09 0 0 1-6.18 11.25c4.22 1.17 18.48 1.17 22.7 0-4.58-4.24-6.2-11.25-6.2-11.25z"/><path class="h" d="M36.07 134.14a11.46 11.46 0 0 1-.35-1.19 3.66 3.66 0 0 0 2.61.66c-1.25-.29-2.34-1.21-3.72-1.4a12.08 12.08 0 0 1 1.46 1.93zm2.58 11.52a24.68 24.68 0 0 1-.94-2.95c1.07.54 3.61.61 3 .42l-.23-.23a27.08 27.08 0 0 1-4.37-1.22 7.15 7.15 0 0 0 2.54 3.98zm-8.14-13.93c-1.4.38-2.49 1.35-3.75 1.87a3.66 3.66 0 0 0 2.64-.65 21.82 21.82 0 0 1-.75 2.33c1.05-.92 2.05-1.99 1.86-3.55zm-5.99 11.23l-.14.15c-.58.19 2.22.23 3-.42 0 0-.1.48-.35 1.29a3.83 3.83 0 0 0 1.41-2.81c-1.36.59-2.58 1.3-3.92 1.79zm-2.78 10.41l-.53.6c4.22 1.17 18.48 1.17 22.7 0a17.2 17.2 0 0 1-1.54-1.66c-5.9 2.13-13.9 1.65-20.63 1.06z"/><path class="i" d="M32.61 136.84l-.55 21.65h1.79l-1.24-21.65z"/><path class="j" d="M32.61 136.84l.71 21.55h-1.26v.1h1.79l-1.24-21.65z"/><path class="i" d="M32.96 146.48v.59l4.07-2.31-4.07 1.72z"/><path class="j" d="M32.96 146.96v.11l4.07-2.31-4.07 2.2z"/><path class="i" d="M32.86 143.15l-3.03-1.27 2.86 1.62.17-.35z"/><path class="j" d="M32.72 143.44l-.03.06-2.86-1.62 2.89 1.56z"/><path class="i" d="M32.86 150.19l-6-2.52 5.67 3.21.33-.69z"/><path class="j" d="M32.59 150.76l-.06.12-5.67-3.21 5.73 3.09z"/><path class="g" d="M24.61 153.54c1.6.8 5.38.92 4.52.62-3.79-3.6-7.16-13.66-7.49-15.17a5.45 5.45 0 0 0 4 1c-4.53-4.5-7-12-8.73-18-1.68 5.94-4.2 13.48-8.73 18a5.48 5.48 0 0 0 4-1c-.33 1.51-3.7 11.57-7.49 15.17-.86.3 3.3.35 4.51-.62a38.8 38.8 0 0 1-9.25 16.78c6.3 1.75 27.56 1.75 33.86 0-6.78-6.36-9.2-16.78-9.2-16.78z"/><path class="h" d="M22.17 140.76c-.28-.84-.47-1.47-.53-1.77a5.49 5.49 0 0 0 3.89 1c-1.86-.44-3.48-1.8-5.55-2.08a16.74 16.74 0 0 1 2.19 2.85zm3.85 17.2a36.88 36.88 0 0 1-1.41-4.39c1.6.8 5.38.92 4.52.62l-.34-.34c-2.3-.23-4.41-1.25-6.52-1.82a10.61 10.61 0 0 0 3.75 5.93zm-12.16-20.79c-2.09.56-3.71 2-5.6 2.79a5.5 5.5 0 0 0 3.95-1c-.11.47-.51 1.78-1.13 3.47 1.59-1.34 3.07-2.93 2.78-5.26zm-8.91 16.79l-.21.22c-.86.3 3.3.35 4.51-.62a18.91 18.91 0 0 1-.53 1.92 5.65 5.65 0 0 0 2.14-4.2c-2.1.84-3.94 1.89-5.91 2.68zM.8 169.43c-.26.3-.52.59-.8.89 6.3 1.75 27.56 1.75 33.86 0a24.37 24.37 0 0 1-2.3-2.47c-8.8 3.18-20.7 2.47-30.76 1.58z"/><path class="i" d="M17 144.78l-.81 32.29h2.68L17 144.78z"/><path class="j" d="M17 144.78l1.06 32.14h-1.87v.15h2.68L17 144.78z"/><path class="i" d="M17.53 159.15v.89l6.07-3.44-6.07 2.55z"/><path class="j" d="M17.53 159.88v.16l6.07-3.44-6.07 3.28z"/><path class="i" d="M17.38 154.19l-4.51-1.89 4.26 2.41.25-.52z"/><path class="j" d="M17.17 154.62l-.04.09-4.26-2.41 4.3 2.32z"/><path class="i" d="M17.38 164.69l-8.94-3.76 8.45 4.79.49-1.03z"/><path class="j" d="M16.98 165.54l-.09.18-8.45-4.79 8.54 4.61z"/><path class="g" d="M122.72 158.16c1.07.54 3.6.61 3 .41-2.54-2.41-4.81-9.15-5-10.17a3.62 3.62 0 0 0 2.7.64c-3-3-4.73-8.06-5.86-12-1.13 4-2.81 9-5.85 12a3.64 3.64 0 0 0 2.7-.64c-.22 1-2.48 7.76-5 10.17-.58.2 2.21.24 3-.41a26 26 0 0 1-6.2 11.25c4.22 1.17 18.48 1.17 22.7 0-4.57-4.24-6.19-11.25-6.19-11.25z"/><path class="h" d="M121.08 149.59a11.46 11.46 0 0 1-.35-1.19 3.66 3.66 0 0 0 2.61.66c-1.25-.29-2.33-1.21-3.72-1.39a11.56 11.56 0 0 1 1.46 1.92zm2.58 11.51a24.93 24.93 0 0 1-.94-2.94c1.07.54 3.6.61 3 .41l-.23-.23a27.06 27.06 0 0 1-4.37-1.21 7.13 7.13 0 0 0 2.54 3.97zm-8.13-13.92c-1.4.38-2.49 1.35-3.76 1.87a3.7 3.7 0 0 0 2.65-.65 22.79 22.79 0 0 1-.76 2.33c1.05-.92 2.05-1.99 1.87-3.55zm-5.99 11.25l-.14.14c-.58.2 2.21.24 3-.41a11.86 11.86 0 0 1-.35 1.29 3.83 3.83 0 0 0 1.41-2.81c-1.37.57-2.6 1.32-3.92 1.79zm-2.78 10.38q-.25.3-.54.6c4.22 1.17 18.48 1.17 22.7 0a16 16 0 0 1-1.54-1.66c-5.9 2.13-13.9 1.66-20.62 1.06z"/><path class="i" d="M117.62 152.29l-.55 21.64h1.8l-1.25-21.64z"/><path class="j" d="M117.62 152.29l.71 21.55h-1.25l-.01.09h1.8l-1.25-21.64z"/><path class="i" d="M117.97 161.92v.6l4.07-2.31-4.07 1.71z"/><path class="j" d="M117.97 162.41v.11l4.07-2.31-4.07 2.2z"/><path class="i" d="M117.87 158.6l-3.02-1.27 2.85 1.61.17-.34z"/><path class="j" d="M117.73 158.88l-.03.06-2.85-1.61 2.88 1.55z"/><path class="i" d="M117.87 165.63l-5.99-2.52 5.66 3.21.33-.69z"/><path class="j" d="M117.6 166.2l-.06.12-5.66-3.21 5.72 3.09z"/><path class="g" d="M288.86 161.33c1.08.54 3.61.61 3 .42-2.54-2.41-4.8-9.16-5-10.17a3.67 3.67 0 0 0 2.7.64c-3-3-4.73-8.07-5.86-12-1.13 4-2.81 9-5.85 12a3.67 3.67 0 0 0 2.7-.64c-.22 1-2.48 7.76-5 10.17-.58.19 2.21.23 3-.42a26.08 26.08 0 0 1-6.2 11.25c4.22 1.17 18.47 1.17 22.69 0-4.56-4.24-6.18-11.25-6.18-11.25z"/><path class="h" d="M287.21 152.77c-.18-.57-.31-1-.35-1.19a3.7 3.7 0 0 0 2.61.65c-1.25-.29-2.33-1.2-3.72-1.39a11.12 11.12 0 0 1 1.46 1.93zm2.59 11.51a26.18 26.18 0 0 1-.95-2.95c1.08.54 3.61.61 3 .42l-.23-.23a27.08 27.08 0 0 1-4.37-1.22 7.17 7.17 0 0 0 2.55 3.98zm-8.14-13.93c-1.4.38-2.49 1.35-3.75 1.88a3.71 3.71 0 0 0 2.64-.65c-.07.31-.34 1.19-.75 2.32 1.06-.94 2.06-1.94 1.86-3.55zm-5.99 11.25l-.14.15c-.58.19 2.21.23 3-.42 0 0-.1.48-.36 1.29a3.8 3.8 0 0 0 1.41-2.81c-1.35.57-2.59 1.28-3.91 1.79zm-2.81 10.36l-.53.6c4.22 1.17 18.47 1.17 22.69 0a17 17 0 0 1-1.54-1.65c-5.87 2.15-13.87 1.67-20.62 1.05z"/><path class="i" d="M283.75 155.46l-.55 21.64h1.8l-1.25-21.64z"/><path class="j" d="M283.75 155.46l.71 21.55h-1.25l-.01.09h1.8l-1.25-21.64z"/><path class="i" d="M284.1 165.09v.6l4.07-2.31-4.07 1.71z"/><path class="j" d="M284.1 165.58v.11l4.07-2.31-4.07 2.2z"/><path class="i" d="M284 161.77l-3.02-1.27 2.86 1.62.16-.35z"/><path class="j" d="M283.86 162.06l-.02.06-2.86-1.62 2.88 1.56z"/><path class="i" d="M284 168.81l-5.99-2.52 5.67 3.21.32-.69z"/><path class="j" d="M283.73 169.38l-.05.12-5.67-3.21 5.72 3.09z"/><path class="k" d="M108.19 157.32c1.47.75 4.94.85 4.15.58-3.48-3.3-6.57-12.53-6.87-13.92a5 5 0 0 0 3.69.88c-4.16-4.12-6.46-11-8-16.49-1.54 5.45-3.85 12.37-8 16.49a5 5 0 0 0 3.7-.9c-.3 1.39-3.4 10.62-6.87 13.92-.79.27 3 .31 4.14-.58a35.56 35.56 0 0 1-8.48 15.4c5.77 1.6 25.27 1.6 31.05 0-6.28-5.74-8.51-15.38-8.51-15.38z"/><path class="h" d="M105.96 145.61c-.26-.77-.43-1.36-.49-1.63a5 5 0 0 0 3.57.9c-1.71-.4-3.19-1.65-5.09-1.91a15.85 15.85 0 0 1 2.01 2.64zm3.53 15.75a34.25 34.25 0 0 1-1.3-4c1.47.75 4.94.85 4.15.58l-.31-.32c-2.11-.2-4-1.14-6-1.66a9.71 9.71 0 0 0 3.46 5.4zm-11.14-19.05c-1.91.52-3.4 1.85-5.13 2.56a5 5 0 0 0 3.64-.91c-.1.44-.47 1.64-1 3.19 1.38-1.25 2.75-2.7 2.49-4.84zm-8.19 15.39l-.19.2c-.79.27 3 .31 4.14-.58 0 0-.13.66-.48 1.77a5.23 5.23 0 0 0 1.92-3.84c-1.89.78-3.58 1.71-5.39 2.45zm-3.8 14.2c-.24.27-.48.55-.73.82 5.77 1.6 25.27 1.6 31.05 0a23.63 23.63 0 0 1-2.11-2.26c-8.07 2.91-19.02 2.26-28.21 1.44z"/><path class="i" d="M101.22 149.3l-.75 29.61h2.46l-1.71-29.61z"/><path class="j" d="M101.22 149.3l.97 29.48h-1.71l-.01.13h2.46l-1.71-29.61z"/><path class="i" d="M101.7 162.48v.81l5.57-3.16-5.57 2.35z"/><path class="j" d="M101.7 163.14v.15l5.57-3.16-5.57 3.01z"/><path class="i" d="M101.56 157.93l-4.13-1.74 3.91 2.21.22-.47z"/><path class="j" d="M101.38 158.32l-.04.08-3.91-2.21 3.95 2.13z"/><path class="i" d="M101.56 167.56l-8.2-3.45 7.75 4.39.45-.94z"/><path class="j" d="M101.19 168.34l-.08.16-7.75-4.39 7.83 4.23z"/><g class="a"><path class="b" d="M37.42 75.7h100.57c0-5-5.24-8.1-5.24-8.1s2.11-9.64-13.45-13.24-19.85 5.77-19.85 5.77c-16.56-4.65-23.91 6.61-23.91 6.61l-2.35-.21c-16.86-9-22.87 1.07-22.87 1.07s-13.52 1.49-13 7.42a3.16 3.16 0 0 0 .1.68z"/></g><path class="k" d="M173.58 160.63c1.08.54 3.61.61 3 .41-2.54-2.41-4.8-9.16-5-10.17a3.67 3.67 0 0 0 2.7.64c-3-3-4.73-8.07-5.86-12.05-1.12 4-2.81 9-5.85 12.05a3.67 3.67 0 0 0 2.7-.64c-.22 1-2.48 7.76-5 10.17-.57.2 2.22.24 3-.41a26 26 0 0 1-6.21 11.25c4.23 1.17 18.48 1.17 22.71 0-4.56-4.24-6.19-11.25-6.19-11.25z"/><path class="h" d="M171.95 152.06c-.19-.57-.32-1-.36-1.19a3.74 3.74 0 0 0 2.61.66c-1.25-.29-2.33-1.21-3.72-1.4a12.13 12.13 0 0 1 1.47 1.93zm2.58 11.51a25.72 25.72 0 0 1-.95-2.94c1.08.54 3.61.61 3 .41l-.22-.22a27.84 27.84 0 0 1-4.37-1.22 7 7 0 0 0 2.54 3.97zm-8.14-13.92c-1.4.38-2.49 1.35-3.76 1.87a3.7 3.7 0 0 0 2.65-.65 22.79 22.79 0 0 1-.76 2.33c1.05-.92 2.05-1.99 1.87-3.55zm-5.99 11.25l-.15.14c-.57.2 2.22.24 3-.41 0 0-.1.48-.36 1.29a3.83 3.83 0 0 0 1.41-2.81c-1.35.57-2.58 1.27-3.9 1.79zm-2.78 10.38c-.18.2-.35.4-.54.6 4.23 1.17 18.48 1.17 22.71 0a15 15 0 0 1-1.54-1.65c-5.91 2.13-13.91 1.65-20.63 1.05z"/><path class="i" d="M168.48 154.76l-.55 21.65h1.8l-1.25-21.65z"/><path class="j" d="M168.48 154.76l.71 21.55h-1.25l-.01.1h1.8l-1.25-21.65z"/><path class="i" d="M168.83 164.39v.6l4.07-2.31-4.07 1.71z"/><path class="j" d="M168.83 164.88v.11l4.07-2.31-4.07 2.2z"/><path class="i" d="M168.73 161.07l-3.02-1.27 2.86 1.62.16-.35z"/><path class="j" d="M168.6 161.36l-.03.06-2.86-1.62 2.89 1.56z"/><path class="i" d="M168.73 168.11l-5.99-2.52 5.67 3.21.32-.69z"/><path class="j" d="M168.46 168.68l-.05.12-5.67-3.21 5.72 3.09z"/><path class="l" d="M137.17 180.07c0 .92-1.8 1.66-4 1.66s-4-.74-4-1.66 1.81-1.66 4-1.66 4 .74 4 1.66zm-12.71 4.61c0 .51-1 .92-2.24.92s-2.24-.41-2.24-.92 1-.93 2.24-.93 2.24.42 2.24.93z"/><path class="m" d="M128.07 192.96c0 .51-1 .93-2.24.93s-2.24-.42-2.24-.93 1-.92 2.24-.92 2.24.39 2.24.92z"/><path class="l" d="M159.66 181.96c0 .52-1 .93-2.25.93s-2.24-.41-2.24-.93 1-.92 2.24-.92 2.25.43 2.25.92zm-43.41 8.42c0 .35-.67.63-1.51.63s-1.51-.28-1.51-.63.68-.62 1.51-.62 1.51.28 1.51.62z"/><path class="m" d="M144.63 180.07c0 .34-.68.62-1.52.62s-1.51-.28-1.51-.62.68-.63 1.51-.63 1.52.28 1.52.63z"/><path class="l" d="M141.41 188.65c0 .35-.68.62-1.51.62s-1.51-.27-1.51-.62.67-.62 1.51-.62 1.51.28 1.51.62zm21.35.19c0 .34-.68.62-1.51.62s-1.51-.28-1.51-.62.68-.63 1.51-.63 1.51.28 1.51.63z"/><ellipse class="m" cx="151.23" cy="188.47" rx="4.03" ry="1.66"/><path class="l" d="M79.08 180.96c0 .92-1.8 1.67-4 1.67s-4-.75-4-1.67 1.81-1.66 4-1.66 4 .74 4 1.66zm-12.71 4.61c0 .52-1 .93-2.24.93s-2.24-.41-2.24-.93 1-.92 2.24-.92 2.24.41 2.24.92z"/><path class="m" d="M75.69 188.49c0 .51-1 .92-2.24.92s-2.25-.41-2.25-.92 1-.93 2.25-.93 2.24.4 2.24.93z"/><path class="l" d="M101.57 182.88c0 .51-1 .92-2.25.92s-2.24-.41-2.24-.92 1-.93 2.24-.93 2.25.42 2.25.93zm-43.41 8.4c0 .35-.67.62-1.51.62s-1.51-.27-1.51-.62.68-.62 1.51-.62 1.51.3 1.51.62z"/><path class="m" d="M86.54 180.96c0 .35-.68.63-1.51.63s-1.52-.28-1.52-.63.68-.62 1.52-.62 1.51.28 1.51.62z"/><path class="l" d="M83.32 189.55c0 .34-.68.62-1.51.62s-1.51-.28-1.51-.62.67-.63 1.51-.63 1.51.28 1.51.63zm21.35.18c0 .35-.68.63-1.51.63s-1.51-.28-1.51-.63.68-.62 1.51-.62 1.51.28 1.51.62z"/><ellipse class="m" cx="93.14" cy="189.36" rx="4.03" ry="1.66"/><path class="l" d="M51.54 177.96c0 .51-1 .92-2.24.92s-2.24-.41-2.24-.92 1-.93 2.24-.93 2.24.44 2.24.93zm3.11 6.87c0 .35-.68.63-1.51.63s-1.51-.28-1.51-.63.67-.62 1.51-.62 1.51.28 1.51.62z"/><ellipse class="m" cx="43.12" cy="184.46" rx="4.03" ry="1.66"/><path class="l" d="M193.03 180.96c0 .92-1.8 1.67-4 1.67s-4-.75-4-1.67 1.81-1.66 4-1.66 4 .74 4 1.66zm-12.71 4.61c0 .52-1 .93-2.24.93s-2.24-.41-2.24-.93 1-.92 2.24-.92 2.24.41 2.24.92z"/><path class="m" d="M189.64 188.49c0 .51-1 .92-2.24.92s-2.24-.41-2.24-.92 1-.93 2.24-.93 2.24.4 2.24.93z"/><path class="l" d="M215.52 182.88c0 .51-1 .92-2.24.92s-2.25-.41-2.25-.92 1-.93 2.25-.93 2.24.42 2.24.93zm-43.41 8.4c0 .35-.67.62-1.51.62s-1.51-.27-1.51-.62.68-.62 1.51-.62 1.51.3 1.51.62z"/><path class="m" d="M199.67 183.8c0 .35-.68.63-1.51.63s-1.51-.28-1.51-.63.67-.62 1.51-.62 1.51.28 1.51.62z"/><path class="l" d="M197.27 189.55c0 .34-.68.62-1.51.62s-1.51-.28-1.51-.62.68-.63 1.51-.63 1.51.28 1.51.63zm26.38 2.35c0 .35-.68.63-1.51.63s-1.51-.28-1.51-.63.68-.62 1.51-.62 1.51.28 1.51.62z"/><ellipse class="m" cx="208.55" cy="187.96" rx="4.03" ry="1.66"/><path class="l" d="M249.66 175.43c0 .92-1.8 1.66-4 1.66s-4-.74-4-1.66 1.81-1.66 4-1.66 4 .74 4 1.66zm-12.71 4.61c0 .51-1 .92-2.24.92s-2.24-.41-2.24-.92 1-.93 2.24-.93 2.24.42 2.24.93z"/><path class="m" d="M244.02 185.6c0 .51-1 .93-2.24.93s-2.24-.42-2.24-.93 1-.92 2.24-.92 2.24.41 2.24.92z"/><path class="l" d="M272.15 177.34c0 .52-1 .93-2.25.93s-2.24-.41-2.24-.93 1-.92 2.24-.92 2.25.41 2.25.92zm-43.97 8.79c0 .34-.67.62-1.51.62s-1.51-.28-1.51-.62.68-.63 1.51-.63 1.51.28 1.51.63z"/><path class="m" d="M257.11 175.43c0 .34-.67.62-1.51.62s-1.51-.28-1.51-.62.68-.62 1.51-.62 1.51.27 1.51.62z"/><path class="l" d="M253.86 184.01c0 .35-.68.63-1.51.63s-1.51-.28-1.51-.63.67-.62 1.51-.62 1.51.28 1.51.62zm23.77 3.55c0 .35-.67.63-1.51.63s-1.51-.28-1.51-.63.68-.62 1.51-.62 1.51.28 1.51.62zm-246.28 2.17c0 .35-.68.63-1.51.63s-1.51-.28-1.51-.63.67-.62 1.51-.62 1.51.28 1.51.62z"/><ellipse cx="262.38" cy="188.03" rx="4.03" ry="1.66" fill="none"/></svg>