<svg xmlns="http://www.w3.org/2000/svg" viewBox="0 0 600 600"><defs><style>.aa,.o,.v,.w,.y,.z{fill-rule:evenodd}.e{fill:#65523a}.l{fill:#58595b}.m{fill:#404041}.n{fill:#58574b}.o{fill:#d0d2d3}.v{fill:#faa819}.w{fill:#dc9517}.y{fill:#f09b36}.z{fill:#f1f2f2}.aa{fill:#414042}</style><clipPath id="a"><path d="M92.65 524.22l12.68 67.9-31.1.19-31.09.19c4.19-24.8 8-46.47 11.85-68.06l12.65-.07z" clip-rule="evenodd" fill="none"/></clipPath><clipPath id="b"><path transform="rotate(-.35 73.608 555.179)" fill="none" d="M62.09 517.86h23.9v83.85h-23.9z"/></clipPath></defs><path d="M92.65 524.22l12.68 67.9-31.1.19-31.09.19c4.19-24.8 8-46.47 11.85-68.06l12.65-.07z" fill-rule="evenodd" fill="#723e19"/><g clip-path="url(#a)"><path class="e" d="M38.883 532.903l70.039-.428.004.59-70.04.428zm.048 9.449l70.039-.428.003.59-70.038.428zm.068 9.44l70.038-.428.004.59-70.039.428zm.057 9.439l70.039-.428.004.59-70.04.428zm.058 9.449l70.039-.427.003.59-70.038.428zm.058 9.44l70.038-.428.004.59-70.039.428zm.058 9.45l70.038-.428.004.59-70.039.428z"/></g><path fill="#84481f" d="M61.862 517.931l23.9-.146.512 83.848-23.9.146z"/><g clip-path="url(#b)"><path class="e" d="M38.883 532.903l70.039-.428.004.59-70.04.428zm.058 9.449l70.039-.428.003.59-70.038.428zm.058 9.44l70.038-.428.004.59-70.039.428zm.057 9.439l70.039-.428.004.59-70.04.428zm.048 9.449l70.039-.427.003.59-70.038.428zm.068 9.44l70.038-.428.004.59-70.039.428zm.058 9.45l70.038-.428.004.59-70.039.428z"/></g><path fill="#a15641" fill-rule="evenodd" d="M61.71 513.63l24.1-.15 12.13 14.43-48.19.29 11.96-14.57z"/><path fill="#8b452f" fill-rule="evenodd" d="M95.24 524.69l2.7 3.22-48.19.29 2.66-3.25 42.83-.26z"/><path fill="#806a50" d="M43.155 590.435l62.199-.38.07 11.46-62.2.38z"/><path fill="#6d6e70" d="M58.304 593.24l9.4-.094.084 8.37-9.4.094z"/><path class="l" d="M57.714 593.466l7.64-.046.05 8.35-7.639.046zm11.586-43.12l9.4-.057.077 12.49-9.4.057z"/><path class="l" d="M69.3 550.346l9.4-.057.077 12.49-9.4.057z"/><path class="m" d="M70.387 551.41l7.25-.045.063 10.33-7.25.045z"/><path class="l" d="M69.409 569.685l9.4-.057.076 12.49-9.4.057z"/><path class="l" d="M69.409 569.685l9.4-.057.076 12.49-9.4.057z"/><path class="m" d="M70.525 570.759l7.25-.045.063 10.33-7.25.044z"/><path class="n" d="M32.636 494.195l1.378-1.394 81.115 80.13-1.378 1.394z"/><path class="o" d="M34 492.79l8.74-8.85 38 37.52-8.74 8.85-38-37.52zm1.94.47l2.23 2.21 2.17-2.19-2.23-2.2-2.11 2.18zm2.45-2.47l2.23 2.2 2.17-2.19-2.23-2.2-2.17 2.19zm2.52-2.55l2.23 2.21 2.16-2.19-2.23-2.21-2.16 2.19zm-2.2 7.76l2.23 2.21L43.1 496l-2.23-2.21-2.16 2.21zm2.45-2.48l2.23 2.21 2.16-2.19-2.23-2.2-2.16 2.18zm2.51-2.52l2.23 2.2 2.16-2.2-2.23-2.2-2.16 2.2zm-2.21 7.74l2.23 2.21 2.16-2.19-2.23-2.21-2.16 2.19zm2.45-2.48l2.23 2.21 2.16-2.19-2.23-2.28-2.16 2.19zm2.51-2.54l2.23 2.2 2.16-2.19-2.23-2.2-2.16 2.19zm-2.21 7.74l2.23 2.21 2.16-2.19-2.23-2.21-2.16 2.19zm2.45-2.48l2.23 2.21 2.16-2.19-2.23-2.21-2.16 2.19zm2.51-2.54l2.23 2.2 2.17-2.19-2.23-2.2-2.17 2.19zm-2.17 7.7l2.23 2.21 2.17-2.19-2.27-2.16-2.13 2.14zm2.45-2.48l2.23 2.21 2.17-2.19-2.23-2.21-2.17 2.19zm2.52-2.54l2.23 2.2 2.16-2.19-2.23-2.2-2.16 2.19zm-2.21 7.74l2.24 2.21 2.16-2.19-2.23-2.21-2.16 2.19zm2.45-2.48l2.23 2.21 2.16-2.19-2.23-2.21-2.16 2.19zm2.51-2.54l2.23 2.2 2.16-2.19-2.23-2.2-2.16 2.19zm-2.21 7.74l2.23 2.2 2.16-2.18-2.23-2.21-2.16 2.19zm2.45-2.48l2.23 2.21 2.16-2.19-2.23-2.21-2.16 2.19zm2.51-2.54l2.23 2.2 2.17-2.19-2.23-2.2-2.17 2.19zm-2.21 7.74l2.23 2.2 2.17-2.19-2.23-2.2-2.17 2.19zm2.45-2.48L59.9 512l2.16-2.19-2.23-2.21-2.16 2.19zm2.51-2.54l2.23 2.2 2.17-2.19-2.23-2.2-2.17 2.19zM58 515l2.23 2.2 2.14-2.2-2.23-2.2L58 515zm2.45-2.48l2.23 2.2 2.17-2.19-2.23-2.2-2.17 2.19zm2.49-2.52l2.23 2.2 2.16-2.2-2.23-2.2-2.16 2.2zm-2.21 7.74l2.23 2.2 2.16-2.19-2.23-2.2-2.16 2.19zm2.45-2.48l2.23 2.2 2.16-2.19-2.23-2.2-2.16 2.19zm2.51-2.54l2.23 2.2 2.16-2.19-2.23-2.2-2.16 2.19zm-2.21 7.74l2.23 2.2 2.16-2.19-2.23-2.2-2.16 2.19zm2.45-2.46l2.23 2.2 2.16-2.2-2.23-2.2-2.16 2.2zm2.51-2.54l2.23 2.2 2.17-2.19-2.23-2.2-2.17 2.19zm-2.21 7.74l2.23 2.2 2.17-2.19L68.4 521l-2.17 2.19zm2.45-2.48l2.23 2.2 2.17-2.19-2.23-2.2-2.17 2.19zm2.51-2.54l2.23 2.2 2.17-2.19-2.23-2.19-2.17 2.19zM69 525.9l2.22 2.2 2.17-2.19-2.23-2.2L69 525.9zm2.44-2.48l2.23 2.2 2.17-2.19-2.23-2.2-2.17 2.19zm2.56-2.54l2.23 2.2 2.16-2.19-2.23-2.2zm31 62.29l8.75-8.85-38-37.52-8.75 8.85 38 37.52zm-.49-1.94l-2.23-2.2 2.16-2.19 2.23 2.2-2.16 2.19zm2.45-2.47l-2.23-2.21 2.16-2.19 2.23 2.21-2.12 2.19zm2.51-2.55l-2.23-2.2 2.16-2.19 2.23 2.2-2.16 2.19zm-7.72 2.3l-2.23-2.2 2.17-2.19 2.23 2.21-2.17 2.18zm2.45-2.51l-2.2-2.17 2.17-2.19 2.23 2.21-2.2 2.15zm2.52-2.55l-2.23-2.2 2.16-2.19 2.23 2.2-2.16 2.19zM99 575.8l-2.23-2.21 2.16-2.19 2.23 2.21L99 575.8zm2.45-2.48l-2.23-2.21 2.16-2.19 2.23 2.21-2.16 2.19zm2.51-2.55l-2.23-2.2 2.17-2.19 2.23 2.2-2.13 2.19zm-7.71 2.31L94 570.87l2.16-2.19 2.23 2.21-2.16 2.19zm2.45-2.48l-2.23-2.21 2.16-2.19 2.23 2.21-2.16 2.19zm2.51-2.55l-2.21-2.2 2.16-2.19 2.23 2.2-2.16 2.19zm-7.71 2.31l-2.23-2.21 2.16-2.15 2.23 2.21-2.16 2.19zm2.5-2.48l-2.24-2.21 2.17-2.19 2.23 2.21-2.16 2.19zm2.51-2.55l-2.23-2.2 2.16-2.19 2.23 2.2-2.16 2.19zm-7.72 2.31l-2.23-2.21 2.17-2.19 2.23 2.21-2.17 2.19zm2.45-2.48L91 563l2.17-2.18 2.23 2.2-2.17 2.19zm2.52-2.55l-2.23-2.2 2.16-2.19 2.23 2.2-2.16 2.19zM88 564.92l-2.23-2.21 2.16-2.19 2.23 2.21-2.16 2.19zm2.45-2.48l-2.23-2.2 2.16-2.19 2.23 2.2-2.16 2.19zm2.55-2.55l-2.23-2.2 2.17-2.19 2.23 2.21-2.17 2.18zm-7.71 2.31L83 560l2.16-2.19L87.4 560l-2.16 2.19zm2.45-2.48l-2.23-2.2 2.16-2.19 2.23 2.2-2.16 2.19zm2.51-2.54L88 555l2.16-2.19 2.2 2.19-2.16 2.19zm-7.71 2.3l-2.24-2.2 2.17-2.19 2.23 2.2-2.16 2.19zm2.39-2.48l-2.23-2.2 2.17-2.19 2.23 2.2-2.17 2.19zm2.52-2.54l-2.23-2.21 2.16-2.19 2.23 2.21-2.16 2.19zm-7.72 2.3l-2.23-2.2 2.17-2.19 2.23 2.2-2.17 2.19zm2.45-2.48l-2.18-2.2 2.17-2.19 2.23 2.2-2.17 2.19zm2.52-2.54l-2.24-2.21 2.17-2.19 2.23 2.21-2.16 2.19zM77 554l-2.23-2.2 2.16-2.19 2.23 2.2L77 554zm2.45-2.48l-2.23-2.2 2.16-2.19 2.23 2.2-2.16 2.19zm2.49-2.52l-2.23-2.21 2.17-2.19 2.23 2.21-2.17 2.19zm-7.71 2.3L72 549.12l2.16-2.19 2.23 2.2-2.16 2.19zm2.45-2.48l-2.23-2.2 2.16-2.19 2.23 2.2-2.16 2.19zm2.51-2.54L77 544.09l2.16-2.19 2.23 2.21-2.16 2.19zm-7.72 2.3l-2.23-2.2 2.17-2.19 2.23 2.2-2.17 2.19zm2.45-2.48l-2.23-2.2 2.17-2.19 2.23 2.2-2.17 2.19zm2.52-2.54l-2.23-2.21 2.16-2.18 2.23 2.2z"/><path class="n" d="M33.107 573.43l80.144-81.101 1.395 1.377L34.5 574.808z"/><path class="o" d="M33.11 573.42l-8.85-8.74 37.52-38 8.85 8.75-37.52 38zm.48-1.94l2.2-2.23-2.19-2.16-2.2 2.23 2.19 2.16zM31.11 569l2.2-2.23-2.19-2.16-2.2 2.23 2.19 2.16zm-2.55-2.51l2.21-2.23-2.19-2.16-2.21 2.23 2.19 2.16zm7.75 2.21l2.2-2.23-2.19-2.16-2.2 2.23 2.19 2.16zm-2.48-2.45l2.2-2.23-2.19-2.16-2.2 2.23 2.19 2.16zm-2.55-2.51l2.21-2.23-2.19-2.17-2.21 2.23 2.19 2.17zM39 566l2.2-2.23-2.2-2.19-2.2 2.23L39 566zm-2.48-2.45l2.2-2.23-2.19-2.17-2.2 2.23 2.19 2.17zM34 561l2.21-2.23-2.21-2.15-2.21 2.23L34 561zm7.75 2.21L44 561l-2.19-2.16-2.2 2.23 2.19 2.16zm-2.48-2.45l2.2-2.23-2.19-2.16-2.2 2.23 2.19 2.16zm-2.55-2.51l2.21-2.25-2.19-2.16-2.21 2.23 2.19 2.16zm7.74 2.21l2.21-2.23-2.19-2.16-2.21 2.23 2.19 2.16zM42 558l2.2-2.23-2.2-2.14-2.2 2.23L42 558zm-2.55-2.51l2.2-2.23-2.18-2.16-2.21 2.23 2.19 2.16zm7.74 2.21l2.21-2.23-2.19-2.16-2.21 2.24 2.19 2.17zm-2.48-2.45l2.2-2.25-2.19-2.16-2.2 2.23 2.18 2.16zm-2.54-2.51l2.2-2.23-2.19-2.17-2.18 2.25 2.19 2.17zM49.9 555l2.21-2.23-2.19-2.17-2.21 2.23L49.9 555zm-2.48-2.45l2.21-2.23-2.19-2.17-2.21 2.23 2.19 2.17zM44.88 550l2.2-2.23-2.19-2.16-2.2 2.23 2.19 2.16zm7.74 2.21l2.21-2.21-2.19-2.16-2.21 2.23 2.19 2.16zm-2.48-2.45l2.21-2.23-2.19-2.16L48 547.6l2.19 2.16zm-2.54-2.51l2.2-2.25-2.19-2.16-2.2 2.23 2.19 2.16zm7.74 2.21l2.21-2.23-2.19-2.16-2.21 2.23 2.19 2.16zM52.86 547l2.21-2.23-2.19-2.16-2.21 2.23 2.19 2.16zm-2.54-2.51l2.2-2.23-2.19-2.17-2.2 2.23 2.19 2.17zm7.74 2.21l2.2-2.23-2.18-2.17-2.21 2.23 2.19 2.17zm-2.48-2.45l2.21-2.25-2.19-2.16-2.21 2.23 2.19 2.16zm-2.58-2.5l2.2-2.23-2.19-2.17-2.2 2.23 2.19 2.17zm7.78 2.25l2.2-2.24-2.18-2.16-2.21 2.23 2.19 2.17zm-2.48-2.45l2.21-2.23-2.19-2.17-2.21 2.23 2.19 2.17zM55.76 539l2.2-2.23-2.19-2.16-2.2 2.23 2.19 2.16zm7.74 2.21l2.2-2.21-2.19-2.16-2.2 2.16 2.19 2.16zm-2.5-2.46l2.2-2.23-2.2-2.16-2.21 2.23 2.21 2.16zm-2.54-2.51l2.2-2.23-2.19-2.16-2.2 2.23 2.19 2.16zm7.74 2.21l2.2-2.23-2.19-2.16-2.21 2.23 2.19 2.16zM63.74 536l2.2-2.23-2.19-2.16-2.2 2.23 2.19 2.16zm-2.54-2.51l2.2-2.23-2.19-2.17-2.21 2.23zm62.29-31.06l-8.85-8.74-37.52 38 8.88 8.72 37.52-38zm-1.93.5l-2.21 2.23-2.19-2.16 2.21-2.23 2.19 2.16zm-2.48-2.45l-2.21 2.23-2.19-2.16 2.21-2.23 2.19 2.16zm-2.55-2.48l-2.2 2.23-2.19-2.23 2.2-2.23 2.19 2.17zm2.31 7.71l-2.21 2.23-2.19-2.16 2.21-2.23 2.19 2.16zm-2.48-2.45l-2.21 2.23-2.15-2.19 2.2-2.23 2.19 2.16zm-2.55-2.51l-2.2 2.23-2.19-2.16 2.2-2.23 2.19 2.16zm2.31 7.71l-2.21 2.23-2.19-2.16 2.21-2.23 2.19 2.16zm-2.48-2.46l-2.21 2.23-2.18-2.16 2.2-2.23 2.19 2.16zm-2.55-2.51l-2.2 2.23-2.19-2.16 2.2-2.23 2.19 2.16zm2.31 7.72l-2.21 2.23-2.19-2.19 2.2-2.23 2.19 2.17zm-2.48-2.45l-2.2 2.23-2.19-2.17 2.2-2.23 2.19 2.17zm-2.54-2.52l-2.21 2.23-2.17-2.18 2.21-2.23 2.19 2.16zm2.3 7.72l-2.2 2.23-2.19-2.19 2.2-2.23 2.19 2.16zm-2.48-2.45l-2.2 2.23-2.19-2.16 2.2-2.23 2.19 2.16zm-2.54-2.51l-2.21 2.23-2.19-2.23 2.21-2.23 2.19 2.17zm2.3 7.71l-2.2 2.23-2.19-2.16 2.2-2.23 2.19 2.16zm-2.48-2.45l-2.2 2.23-2.19-2.16 2.2-2.23 2.19 2.16zm-2.54-2.51l-2.21 2.25-2.19-2.16 2.21-2.23 2.19 2.16zm2.3 7.71l-2.2 2.23-2.19-2.16 2.2-2.23 2.19 2.16zm-2.48-2.46l-2.2 2.22-2.19-2.16 2.2-2.23 2.19 2.17zm-2.54-2.52L98 516.71l-2.19-2.16 2.19-2.23 2.19 2.16zm2.3 7.72l-2.2 2.23-2.19-2.17 2.2-2.23 2.19 2.17zm-2.52-2.45L97.84 522l-2.19-2.17 2.2-2.23 2.19 2.17zm-2.54-2.52l-2.21 2.23-2.15-2.16 2.21-2.23 2.19 2.16zM99.8 525l-2.2 2.23-2.19-2.23 2.2-2.23L99.8 525zm-2.48-2.45l-2.2 2.23-2.19-2.16 2.2-2.23 2.19 2.16zM94.78 520l-2.21 2.23-2.19-2.17 2.21-2.23 2.19 2.17zm2.3 7.71l-2.2 2.23-2.19-2.16 2.2-2.23 2.19 2.16zm-2.48-2.45l-2.2 2.23-2.19-2.16 2.2-2.23 2.19 2.16zm-2.54-2.51l-2.2 2.25-2.19-2.16 2.2-2.23 2.19 2.16zm2.3 7.72l-2.2 2.22-2.16-2.17 2.2-2.23 2.19 2.17zM91.88 528l-2.2 2.23-2.19-2.17 2.2-2.23 2.19 2.17zm-2.54-2.52l-2.2 2.23-2.14-2.15 2.2-2.23 2.19 2.16zm2.3 7.72l-2.2 2.23-2.19-2.17 2.2-2.23 2.19 2.17zm-2.48-2.45L87 533l-2.19-2.16 2.2-2.24 2.19 2.17zm-2.54-2.51l-2.2 2.22-2.19-2.16 2.2-2.23 2.19 2.17zm2.3 7.71l-2.2 2.23-2.19-2.18 2.2-2.23 2.19 2.23zm-2.48-2.45l-2.2 2.23-2.19-2.16 2.2-2.23 2.19 2.16zM83.9 531l-2.2 2.23-2.19-2.17 2.2-2.23z"/><path d="M71.75 531.46a3 3 0 1 1 0 4.22 3 3 0 0 1 0-4.22z" fill="#6d6e70" fill-rule="evenodd"/><path d="M403 300.2a31.9 31.9 0 0 0-52 20.29h-.29a27.18 27.18 0 0 0-26.8 31.77A23.21 23.21 0 0 0 305.54 375a23.46 23.46 0 0 0 .49 4.77 31.49 31.49 0 0 0-18.64 51.58v.57a22.14 22.14 0 0 0 22.1 22.08 21.78 21.78 0 0 0 5.46-.68 26 26 0 0 0 23.91 36 25.12 25.12 0 0 0 3-.18 29 29 0 0 0 50.54 27.62 112.07 112.07 0 0 0 28.63 3.7 110.83 110.83 0 0 0 50.3-12 26.82 26.82 0 0 0 12 2.82 27.25 27.25 0 0 0 27.22-27.26 28.66 28.66 0 0 0-.41-4.76 29 29 0 1 0 26.58-50.37 29.79 29.79 0 0 0-10-46.09l-.44-1.44a22.18 22.18 0 0 0-16.94-33.13l-.66-.86a36.75 36.75 0 0 0 .52-6.16 35.93 35.93 0 0 0-53.91-31.16l-1.76-.77A27.28 27.28 0 0 0 403 300.2z" fill="#f59b1d" fill-rule="evenodd"/><path d="M476.83 475l-2.45-2.64a323.25 323.25 0 0 0-35.5 23.48q-7.14 5.43-13.53 10.86a91.46 91.46 0 0 1-.41-28.08l33.17-35-3.71-3.42-31.28 24.35-2.33-73.44h-7.46L411 464.63l-31.27-24.35-3.73 3.42 33.18 35a74.38 74.38 0 0 1-.41 28.08l-49-34.34-2.49 2.56a238.35 238.35 0 0 1 41.13 36.87c3.53 4 6.81 8 9.84 11.9l.21 17.69-.82 20-2.71 65.71a27 27 0 0 0 24.26 0l-2.85-102.42a141.18 141.18 0 0 1 8.57-12.7A144.61 144.61 0 0 1 476.83 475z" fill="#824737" fill-rule="evenodd"/><path d="M407.16 268.37a31.9 31.9 0 0 0-52 20.3h-.28A27.18 27.18 0 0 0 328 320.43a23.22 23.22 0 0 0-18.35 22.71 23.53 23.53 0 0 0 .48 4.77 31.5 31.5 0 0 0-18.64 51.59v.56a22.13 22.13 0 0 0 27.57 21.47 26 26 0 0 0 23.9 36 25 25 0 0 0 3-.18 29 29 0 0 0 50.54 27.62 112.14 112.14 0 0 0 78.94-8.25 27.23 27.23 0 0 0 39.24-24.46 27.72 27.72 0 0 0-.42-4.76 29 29 0 1 0 26.64-50.4 29.78 29.78 0 0 0-10-46.1l-.44-1.44a22.16 22.16 0 0 0-16.93-33.11l-.67-.87a35.94 35.94 0 0 0-53.38-37.32l-1.76-.77a27.28 27.28 0 0 0-50.52-9.12z" fill="#f5ac1e" fill-rule="evenodd"/><path d="M483 341.52a14.2 14.2 0 0 0-23.18 9h-.14a12.14 12.14 0 0 0-11.94 14.16 10.35 10.35 0 0 0-8.18 10.12 10.69 10.69 0 0 0 .22 2.13 14 14 0 0 0-8.31 23v.29a9.69 9.69 0 0 0 8 9.68 10.53 10.53 0 0 0 4.32-.15 11.92 11.92 0 0 0-.3 8.19 11.51 11.51 0 0 0 12 7.8h.31a13 13 0 0 0 10.4 17.55 12.92 12.92 0 0 0 12.1-5.29 49.76 49.76 0 0 0 35.17-3.68A12.14 12.14 0 0 0 531 423.47a13.37 13.37 0 0 0-.19-2.12 13 13 0 1 0 11.85-22.46 13.26 13.26 0 0 0-4.48-20.54l-.19-.64a9.88 9.88 0 0 0-7.58-14.71l-.3-.4a18.35 18.35 0 0 0-.21-6.9 14.3 14.3 0 0 0-6.9-9.5 16.54 16.54 0 0 0-16.73-.19l-.73-.35a12.17 12.17 0 0 0-22.54-4.14zm-139.57-11.07a14.22 14.22 0 0 0-23.19 9h-.09a11.84 11.84 0 0 0-10.15 5.47 12.24 12.24 0 0 0-1.85 8.74 10.33 10.33 0 0 0-8.15 10.11 10.76 10.76 0 0 0 .21 2.13 14 14 0 0 0-8.31 23v.26a9.85 9.85 0 0 0 9.86 9.86 9.69 9.69 0 0 0 2.43-.3 12.07 12.07 0 0 0 .43 10 11 11 0 0 0 9.58 6 11.81 11.81 0 0 0 2-.07 13.17 13.17 0 0 0-.71 6.84 12.94 12.94 0 0 0 23.22 5.51 50 50 0 0 0 12.76 1.65 49.43 49.43 0 0 0 22.41-5.33 12.13 12.13 0 0 0 17.31-13A12.95 12.95 0 1 0 403 387.83a13.28 13.28 0 0 0-4.48-20.56l-.19-.64a9.79 9.79 0 0 0 1.32-4.93 9.89 9.89 0 0 0-8.87-9.83l-.3-.38a15.54 15.54 0 0 0 .24-2.75 16 16 0 0 0-23.94-13.93l-.9-.43a12.16 12.16 0 0 0-22.49-3.93z" fill="#f6bf17" fill-rule="evenodd"/><path d="M418 282.42A18.22 18.22 0 0 0 388.24 294h-.18a15.49 15.49 0 0 0-15.5 14.29 15.1 15.1 0 0 0 .18 3.88 13.23 13.23 0 0 0-10.49 13 13.52 13.52 0 0 0 .27 2.73 18 18 0 0 0-10.66 29.49v.33a12.42 12.42 0 0 0 6.38 11 12.81 12.81 0 0 0 9.39 1.26 14.8 14.8 0 0 0 15 20.49h.38a16.59 16.59 0 0 0 28.88 15.78 64 64 0 0 0 16.38 2.12 63.36 63.36 0 0 0 28.73-6.88 15.56 15.56 0 0 0 22.43-14 16.25 16.25 0 0 0-.24-2.71 16.5 16.5 0 0 0 11.61 3.72 16.61 16.61 0 0 0 3.61-32.5 17 17 0 0 0-5.75-26.35l-.24-.81a12.67 12.67 0 0 0-9.69-18.94l-.37-.49A20.55 20.55 0 0 0 447.94 288l-1.12-.53a15.6 15.6 0 0 0-28.82-5.05z" fill="#f6c917" fill-rule="evenodd"/><path class="v" d="M317.84 472a1.27 1.27 0 0 0 .08-.51.51.51 0 0 1-.14 0 .77.77 0 0 1 .07-.26h-.15a.47.47 0 0 1 .12-.25h-.16a.62.62 0 0 1 .17-.31h-.15a.47.47 0 0 1 .2-.28.25.25 0 0 0-.15 0 .38.38 0 0 1 .21-.27.52.52 0 0 0-.16-.06.55.55 0 0 1 .24-.28.37.37 0 0 0-.14-.07.48.48 0 0 1 .2-.22c-.05 0-.11-.07-.15-.06s.16-.16.25-.22a.44.44 0 0 0-.15-.08c.06-.11.17-.13.25-.2a.3.3 0 0 1-.15-.09c.08-.09.16-.07.24-.13s-.08-.07-.13-.09a.73.73 0 0 1 .25-.13s-.1-.08-.13-.08.2-.1.27-.16-.07 0-.11-.05c.12-.17.24-.13.36-.16s-.11-.13-.13-.13a.48.48 0 0 1 .35-.09s-.05-.1-.09-.11.27-.06.41-.08-.08-.17-.11-.18h.46s-.07-.13-.1-.15c.16-.05.28.05.43.05 0 0-.05-.14-.08-.16.16 0 .35.14.51.16 0 0-.13-.17-.12-.22a2.68 2.68 0 0 1 .45.11 2.73 2.73 0 0 0 1.11.05 2.84 2.84 0 0 0 .21 1.1 2.56 2.56 0 0 1 .17.43c-.05 0-.19-.07-.23-.09 0 .15.21.32.23.48 0 0-.15 0-.18-.06 0 .15.14.26.11.42 0 0-.14 0-.16-.07 0 .14.1.31.07.45 0 0-.17-.06-.19-.09 0 .15.05.31 0 .42 0 0-.1 0-.12-.08a.48.48 0 0 1-.05.37s-.13-.09-.13-.11 0 .23-.12.37a.33.33 0 0 1-.06-.1c-.06.08 0 .2-.12.29s-.07-.08-.1-.11a.62.62 0 0 1-.1.26c0-.05-.09-.08-.1-.12s0 .17-.09.26a.27.27 0 0 1-.12-.14c-.06.09-.06.21-.16.28a.71.71 0 0 0-.1-.14c-.05.1-.08.22-.18.28s-.05-.1-.08-.14a.5.5 0 0 1-.2.23.29.29 0 0 0-.08-.13.62.62 0 0 1-.25.28.44.44 0 0 0-.08-.15.51.51 0 0 1-.23.25.43.43 0 0 0 0-.15.49.49 0 0 1-.25.24v-.15a.58.58 0 0 1-.28.21s0-.22-.06-.16a.41.41 0 0 1-.22.16s-.06-.12-.05-.15a.76.76 0 0 1-.26.11.39.39 0 0 1 0-.14 1.08 1.08 0 0 0-.5.14zm1.83-4.44zm2.32 2v.23a1.34 1.34 0 0 0 .01-.22z"/><path class="w" d="M322.93 465.64a15.41 15.41 0 0 1-1.58 2.55 2.67 2.67 0 0 1 .25 1.92v-.06a2.74 2.74 0 0 0-.29-1.82l-.37.48a3.24 3.24 0 0 1 .06 1.9.6.6 0 0 1-.08.21 1.72 1.72 0 0 0 .07-.21 3.46 3.46 0 0 0-.08-1.86l-.38.48-.09.1a4 4 0 0 1-.13 1.82v-.06a4.34 4.34 0 0 0 .09-1.72c-.17.2-.36.43-.57.66a3.21 3.21 0 0 1-.22 1.44 3.49 3.49 0 0 0 .18-1.4c-.17.18-.34.37-.52.54a4 4 0 0 1-.22 1 .61.61 0 0 1 0-.13 4.91 4.91 0 0 0 .14-.84 5.14 5.14 0 0 1-1 .8h.07a8.71 8.71 0 0 0 .86-.75 4.85 4.85 0 0 0-.82.14h-.13a3.81 3.81 0 0 1 1-.22 6.76 6.76 0 0 0 .52-.55 3.5 3.5 0 0 0-1.4.13 3.07 3.07 0 0 1 1.44-.17c.19-.21.38-.44.56-.66a4.46 4.46 0 0 0-1.7.23h-.06a4.22 4.22 0 0 1 1.79-.29l.33-.4.15-.21a3.36 3.36 0 0 0-1.88.17l-.19.1a.59.59 0 0 1 .19-.11 3.14 3.14 0 0 1 1.91-.19l.36-.49a2.68 2.68 0 0 0-1.83 0h-.06a2.65 2.65 0 0 1 1.92 0 15.09 15.09 0 0 0 1.56-2.55.05.05 0 0 1 .07 0 .05.05 0 0 1 0 .07zm-3.19 4.42z"/><path class="v" d="M304 482.92a1.15 1.15 0 0 0 .39-.35.32.32 0 0 1-.13-.05.73.73 0 0 1 .23-.16s-.07-.11-.09-.11a.43.43 0 0 1 .25-.11c.07 0-.11-.12-.1-.13a.54.54 0 0 1 .32-.12s-.09-.12-.11-.1a.56.56 0 0 1 .34-.09.29.29 0 0 0-.11-.11.42.42 0 0 1 .33-.06.36.36 0 0 0-.08-.15.6.6 0 0 1 .37-.06.37.37 0 0 0-.07-.14.47.47 0 0 1 .31 0 .26.26 0 0 0-.06-.14c.1-.06.21 0 .33 0s0-.13-.07-.16.21 0 .32 0a.31.31 0 0 1-.05-.17c.12 0 .16.05.27.06s0-.11-.05-.15a.54.54 0 0 1 .27.05v-.14c.13-.05.22.06.31 0s0-.07 0-.11c.2-.05.26.06.38.11s0-.16 0-.18a.47.47 0 0 1 .33.16v-.15c.14 0 .24.14.37.21s0-.18 0-.21.23.23.34.3 0-.13 0-.17c.15.06.18.21.29.31s.06-.14 0-.17.18.33.28.45c0-.05 0-.21.05-.25a2.84 2.84 0 0 1 .27.38 3 3 0 0 0 .82.76 2.82 2.82 0 0 0-.56 1 3.22 3.22 0 0 1-.14.44c-.05 0-.1-.18-.12-.22-.07.14-.05.38-.14.51 0 0-.09-.12-.09-.15-.08.13-.06.28-.19.39 0 0-.09-.13-.08-.16s-.12.3-.23.39-.1-.16-.09-.19c-.1.1-.16.26-.3.3s-.05-.1 0-.14c-.08.13-.13.21-.27.25s0-.15 0-.17-.12.2-.34.21v-.12c0-.04-.14.15-.28.14v-.15a.6.6 0 0 1-.24.14v-.16c0-.04-.12.12-.24.14a.36.36 0 0 1 0-.18c-.1 0-.18.12-.3.11a1 1 0 0 0 0-.17c-.11 0-.21.12-.32.09s0-.1 0-.15a.52.52 0 0 1-.3.06.3.3 0 0 0 0-.16.53.53 0 0 1-.37.05.41.41 0 0 0 0-.16.42.42 0 0 1-.33 0 .53.53 0 0 0 .08-.14.58.58 0 0 1-.35 0l.08-.13a.53.53 0 0 1-.35 0s.12-.18.06-.15a.58.58 0 0 1-.27 0v-.14a.84.84 0 0 1-.27-.08.53.53 0 0 1 .11-.09 1.21 1.21 0 0 0-.48-.21zm4.27-2.2l-.18-.15.18.15zm.46 3a1.45 1.45 0 0 0-.12.19z"/><path class="w" d="M312 481.36a14.78 14.78 0 0 1-2.86.92 2.67 2.67 0 0 1-1.05 1.63h.05a2.71 2.71 0 0 0 .95-1.58l-.59.13a3.26 3.26 0 0 1-1.18 1.49.75.75 0 0 1-.2.1.86.86 0 0 0 .19-.11 3.31 3.31 0 0 0 1.14-1.47l-.6.12h-.13a3.88 3.88 0 0 1-1.28 1.3h.05a4.26 4.26 0 0 0 1.18-1.25c-.26.05-.55.09-.86.13a3.16 3.16 0 0 1-1.1 1 3.62 3.62 0 0 0 1-.95c-.25 0-.5.06-.74.07a4.28 4.28 0 0 1-.83.64l.1-.09a5 5 0 0 0 .66-.54 5.23 5.23 0 0 1-1.28 0h.08a11.05 11.05 0 0 0 1.15 0 5.71 5.71 0 0 0-.72-.43.45.45 0 0 1-.12-.06 3.7 3.7 0 0 1 .9.48l.76-.08a3.43 3.43 0 0 0-1.15-.81 3.09 3.09 0 0 1 1.2.8c.29 0 .57-.08.85-.14a4.18 4.18 0 0 0-1.44-.92h-.06a4 4 0 0 1 1.55.94l.51-.1.25-.05a3.33 3.33 0 0 0-1.54-1.09.72.72 0 0 0-.21 0 .57.57 0 0 1 .22 0 3.19 3.19 0 0 1 1.58 1.09l.6-.14a2.73 2.73 0 0 0-1.38-1.21h-.06a2.65 2.65 0 0 1 1.48 1.23 16 16 0 0 0 2.84-.93.05.05 0 1 1 0 .09zm-5.29 1.31z"/><path class="v" d="M409.37 580.24a1.28 1.28 0 0 0 .08-.55h-.15a.83.83 0 0 1 .08-.28h-.16a.51.51 0 0 1 .13-.26h-.17a.58.58 0 0 1 .18-.33h-.17a.64.64 0 0 1 .22-.3.28.28 0 0 0-.16 0 .42.42 0 0 1 .22-.28.43.43 0 0 0-.16-.07.57.57 0 0 1 .25-.3.41.41 0 0 0-.15-.07.47.47 0 0 1 .22-.24c-.05 0-.11-.07-.16-.07s.17-.16.27-.23-.12-.08-.16-.08.18-.14.26-.21a.36.36 0 0 1-.15-.1c.08-.1.17-.07.25-.14s-.08-.07-.13-.09a.55.55 0 0 1 .25-.14s-.09-.09-.13-.08.22-.11.29-.18a.26.26 0 0 1-.12 0c.13-.18.25-.14.38-.17 0 0-.11-.13-.14-.13a.47.47 0 0 1 .38-.1s0-.11-.1-.12c.11-.1.29-.06.44-.09s-.09-.18-.12-.19h.49s-.07-.13-.1-.16c.16 0 .29.05.45.06a1.42 1.42 0 0 1-.08-.18c.16 0 .37.15.54.18 0 0-.14-.18-.13-.24a4.05 4.05 0 0 1 .47.12 3.14 3.14 0 0 0 1.19 0 2.94 2.94 0 0 0 .22 1.17 4.47 4.47 0 0 1 .19.46.64.64 0 0 1-.26-.1c.05.17.23.35.25.51 0 0-.16 0-.18-.06 0 .16.14.27.11.45 0 0-.15 0-.17-.08 0 .15.1.33.08.48 0 0-.19-.06-.2-.09 0 .15.05.32 0 .45 0 0-.11 0-.13-.09a.48.48 0 0 1 0 .39s-.14-.1-.14-.12c0 .14 0 .25-.13.4 0 0-.05-.06-.06-.11s0 .22-.13.31-.08-.08-.11-.12a.53.53 0 0 1-.1.28s-.09-.09-.11-.13 0 .18-.1.28a.33.33 0 0 1-.12-.15c-.06.1-.07.22-.17.3s-.08-.12-.1-.15-.09.23-.2.29-.06-.1-.09-.14a.47.47 0 0 1-.21.25.31.31 0 0 0-.09-.14.53.53 0 0 1-.26.29.49.49 0 0 0-.09-.15.41.41 0 0 1-.24.26.57.57 0 0 0 0-.16.53.53 0 0 1-.27.26v-.16a.56.56 0 0 1-.3.22s0-.23-.06-.16a.44.44 0 0 1-.24.16s-.05-.12 0-.15a.81.81 0 0 1-.27.11.49.49 0 0 1 0-.15 1.28 1.28 0 0 0-.53.16zm1.94-4.72zm2.46 2.13a1.29 1.29 0 0 1 0 .24 1.07 1.07 0 0 0 0-.24z"/><path class="w" d="M414.78 573.47a16 16 0 0 1-1.68 2.71 2.9 2.9 0 0 1 .27 2v-.06a2.82 2.82 0 0 0-.31-1.93l-.39.51a3.48 3.48 0 0 1 .07 2 .56.56 0 0 1-.09.21.83.83 0 0 0 .08-.22 3.57 3.57 0 0 0-.09-2l-.4.51-.09.11a4.25 4.25 0 0 1-.15 1.94v-.07a4.52 4.52 0 0 0 .1-1.83c-.18.21-.38.45-.61.7a3.32 3.32 0 0 1-.22 1.53 3.91 3.91 0 0 0 .18-1.48l-.55.57a4.11 4.11 0 0 1-.24 1.08v-.14a4.63 4.63 0 0 0 .16-.89 6.05 6.05 0 0 1-1.06.85l.07-.06a8.38 8.38 0 0 0 .92-.79 5.4 5.4 0 0 0-.88.15h-.14a4.35 4.35 0 0 1 1.07-.23c.19-.19.37-.39.55-.59a3.77 3.77 0 0 0-1.49.14 3.3 3.3 0 0 1 1.53-.18c.21-.23.4-.46.59-.7a4.42 4.42 0 0 0-1.8.25h-.07a4.44 4.44 0 0 1 1.91-.3l.34-.44c.06-.06.11-.14.17-.21a3.51 3.51 0 0 0-2 .18l-.21.1a.72.72 0 0 1 .21-.12 3.45 3.45 0 0 1 2-.2l.39-.52a2.9 2.9 0 0 0-1.95 0h-.06a2.82 2.82 0 0 1 2 0 17.06 17.06 0 0 0 1.66-2.71h.07a.05.05 0 0 1 0 .07zm-3.39 4.7z"/><path class="v" d="M552.34 564.08a1.47 1.47 0 0 0 .08-.55l-.15.05a1 1 0 0 1 .08-.29h-.15a.44.44 0 0 1 .13-.26h-.17a.55.55 0 0 1 .17-.33h-.16a.54.54 0 0 1 .22-.3.43.43 0 0 0-.17 0 .44.44 0 0 1 .23-.27.43.43 0 0 0-.16-.07.57.57 0 0 1 .25-.3.41.41 0 0 0-.15-.07.47.47 0 0 1 .22-.24.71.71 0 0 0-.16-.07c.05-.11.17-.16.27-.23s-.12-.08-.16-.08.17-.14.26-.21a.47.47 0 0 1-.16-.1c.09-.1.18-.07.26-.14s-.09-.07-.14-.09a.65.65 0 0 1 .26-.14s-.1-.09-.13-.09.22-.1.28-.17-.07 0-.11 0c.12-.19.25-.14.38-.18 0 0-.11-.12-.14-.12a.46.46 0 0 1 .38-.1s0-.11-.1-.12c.11-.1.29-.06.44-.09s-.09-.18-.12-.19h.48s-.06-.13-.1-.16c.17 0 .3.05.46.05 0 0-.06-.14-.09-.17.17 0 .38.15.54.17 0 0-.13-.17-.12-.23l.47.12a3.14 3.14 0 0 0 1.19 0 2.94 2.94 0 0 0 .22 1.17 4.37 4.37 0 0 1 .18.46.6.6 0 0 1-.25-.1c.05.17.23.35.25.51 0 0-.16 0-.19-.06 0 .16.15.27.12.44 0 0-.15 0-.17-.07 0 .15.1.33.07.48 0 0-.18-.06-.2-.1 0 .16.05.33 0 .46 0-.05-.11-.05-.14-.09a.44.44 0 0 1 0 .39s-.14-.1-.15-.12.05.25-.12.4c0 0 0-.06-.06-.11s0 .22-.14.31-.07-.08-.1-.12a.77.77 0 0 1-.1.28s-.09-.09-.11-.13 0 .18-.1.28a.33.33 0 0 1-.12-.15c-.06.1-.07.22-.17.3s-.09-.12-.11-.15-.08.23-.19.29-.06-.1-.09-.14a.43.43 0 0 0 0-.05v.05a.47.47 0 0 1-.21.25.31.31 0 0 0-.09-.14.53.53 0 0 1-.26.29.4.4 0 0 0-.09-.15.44.44 0 0 1-.24.26.5.5 0 0 0 0-.16.57.57 0 0 1-.27.26v-.16a.56.56 0 0 1-.3.22s0-.23-.06-.16a.44.44 0 0 1-.24.16s-.06-.12 0-.15a.81.81 0 0 1-.27.11.49.49 0 0 1 0-.15 1.28 1.28 0 0 0-.53.16zm1.94-4.73zm2.46 2.14v.24c0 .06.02-.11 0-.24z"/><path class="w" d="M557.75 557.31a16.11 16.11 0 0 1-1.69 2.71 2.8 2.8 0 0 1 .27 2V562a2.82 2.82 0 0 0-.31-1.93l-.39.51a3.48 3.48 0 0 1 .07 2 .78.78 0 0 1-.09.21 1.43 1.43 0 0 0 .08-.22 3.57 3.57 0 0 0-.09-2l-.4.51-.1.11a4.2 4.2 0 0 1-.14 1.93v-.06a4.52 4.52 0 0 0 .1-1.83l-.61.7a3.33 3.33 0 0 1-.23 1.53 3.55 3.55 0 0 0 .18-1.48c-.17.19-.36.38-.54.57a4.11 4.11 0 0 1-.24 1.08v-.14a5.55 5.55 0 0 0 .16-.89 5.74 5.74 0 0 1-1.07.85l.08-.06a8.3 8.3 0 0 0 .91-.79 4.53 4.53 0 0 0-.87.15h-.14a4.27 4.27 0 0 1 1.06-.23c.19-.19.38-.39.56-.59a3.75 3.75 0 0 0-1.49.14 3.3 3.3 0 0 1 1.53-.18c.2-.23.4-.46.59-.7a4.42 4.42 0 0 0-1.8.25h-.07a4.44 4.44 0 0 1 1.91-.3l.34-.44.17-.21a3.51 3.51 0 0 0-2 .18l-.21.1a.82.82 0 0 1 .2-.12 3.41 3.41 0 0 1 2-.2l.52-.45a2.87 2.87 0 0 0-2 0h-.06a2.82 2.82 0 0 1 2 0 16 16 0 0 0 1.66-2.72.08.08 0 0 1 .08 0 .07.07 0 0 1 0 .08zm-3.39 4.7z"/><path class="v" d="M488.1 592.33a1.28 1.28 0 0 0 .08-.55l-.14.05a.73.73 0 0 1 .07-.29h-.16a.51.51 0 0 1 .13-.26h-.17a.55.55 0 0 1 .18-.33h-.16a.53.53 0 0 1 .21-.3.37.37 0 0 0-.16 0 .42.42 0 0 1 .22-.27.33.33 0 0 0-.16-.07.62.62 0 0 1 .25-.3.3.3 0 0 0-.15-.07.47.47 0 0 1 .22-.24c-.05 0-.11-.07-.15-.07s.16-.16.26-.23a.48.48 0 0 0-.16-.08c.06-.11.18-.14.27-.21a.39.39 0 0 1-.16-.1c.08-.1.17-.07.26-.14s-.09-.07-.14-.09a.59.59 0 0 1 .26-.14s-.1-.09-.14-.09.22-.1.29-.17a.31.31 0 0 1-.12 0c.13-.19.25-.14.38-.18s-.11-.12-.14-.12a.45.45 0 0 1 .38-.1s-.05-.11-.1-.12c.11-.1.29-.07.44-.09s-.09-.18-.12-.19h.49s-.07-.13-.1-.16c.17 0 .29.05.45.05 0 0-.05-.15-.08-.17.17 0 .37.15.54.17a.65.65 0 0 1-.13-.23 4.81 4.81 0 0 1 .48.12 3.13 3.13 0 0 0 1.19 0 2.94 2.94 0 0 0 .21 1.17c.07.15.14.31.19.45s-.2-.07-.25-.09c0 .16.22.35.24.51 0 0-.15 0-.18-.06 0 .16.14.27.11.44 0 0-.15 0-.17-.07 0 .15.11.33.08.48 0 0-.18-.07-.2-.1v.45s-.1 0-.13-.08a.52.52 0 0 1 0 .39s-.15-.1-.15-.12 0 .25-.12.4c0 0-.06-.07-.07-.11s0 .22-.13.31-.07-.08-.1-.12a.55.55 0 0 1-.11.27s-.09-.08-.1-.12 0 .18-.11.27a.27.27 0 0 1-.12-.14c-.06.1-.07.22-.17.29s-.08-.11-.1-.14a.55.55 0 0 1-.2.29s-.05-.1-.08-.14c-.06.1-.1.2-.21.25a.67.67 0 0 0-.09-.14.59.59 0 0 1-.27.29.55.55 0 0 0-.08-.15.43.43 0 0 1-.25.26.24.24 0 0 0 0-.16.57.57 0 0 1-.27.26v-.16a.61.61 0 0 1-.31.22s0-.23-.05-.16a.57.57 0 0 1-.24.16s-.06-.12-.05-.15a.81.81 0 0 1-.27.11.49.49 0 0 1 0-.15 1.28 1.28 0 0 0-.53.16zm1.95-4.73zm2.46 2.14v.24s.02-.11 0-.24z"/><path class="w" d="M493.51 585.56a16 16 0 0 1-1.68 2.71 2.85 2.85 0 0 1 .27 2v-.06a3 3 0 0 0-.31-1.94c-.13.18-.27.35-.39.52a3.56 3.56 0 0 1 .07 2 1.33 1.33 0 0 1-.09.21 1.42 1.42 0 0 0 .07-.22 3.57 3.57 0 0 0-.09-2c-.14.18-.27.35-.4.5l-.09.12a4.2 4.2 0 0 1-.15 1.93v-.06a4.7 4.7 0 0 0 .09-1.83c-.17.21-.38.45-.61.7a3.32 3.32 0 0 1-.22 1.53 3.72 3.72 0 0 0 .18-1.48l-.55.57a4.53 4.53 0 0 1-.23 1.08.68.68 0 0 1 0-.14 4.59 4.59 0 0 0 .16-.9 5.72 5.72 0 0 1-1.06.86l.07-.06a9.63 9.63 0 0 0 .92-.79 4.63 4.63 0 0 0-.88.15h-.13a4.27 4.27 0 0 1 1.06-.23c.19-.19.38-.39.56-.59a3.63 3.63 0 0 0-1.5.14 3.3 3.3 0 0 1 1.53-.18c.21-.23.41-.46.6-.7a4.49 4.49 0 0 0-1.81.25h-.06a4.37 4.37 0 0 1 1.9-.3l.35-.44.16-.21a3.52 3.52 0 0 0-2 .18l-.21.1a.88.88 0 0 1 .21-.12 3.37 3.37 0 0 1 2-.2l.39-.52a2.84 2.84 0 0 0-2 0h-.06a2.82 2.82 0 0 1 2 0 16.42 16.42 0 0 0 1.66-2.72.05.05 0 0 1 .07 0v.08zm-3.38 4.7z"/><path class="v" d="M570.94 537.29a1.18 1.18 0 0 0-.54-.13.56.56 0 0 1 0 .15.86.86 0 0 1-.28-.11s-.06.13 0 .15a.44.44 0 0 1-.24-.15v.17a.6.6 0 0 1-.31-.21v.16a.62.62 0 0 1-.28-.24.24.24 0 0 0 0 .16.47.47 0 0 1-.25-.25.35.35 0 0 0-.08.16.63.63 0 0 1-.28-.28.32.32 0 0 0-.08.14.46.46 0 0 1-.22-.24.31.31 0 0 0-.08.15.51.51 0 0 1-.21-.29s-.09.11-.1.15-.12-.19-.18-.28a.4.4 0 0 1-.12.15c-.09-.09 0-.18-.11-.27s-.08.08-.1.13a.56.56 0 0 1-.12-.27s-.1.09-.1.12-.08-.22-.14-.3-.05.08-.06.11c-.18-.14-.12-.26-.15-.39 0 0-.13.1-.14.13a.49.49 0 0 1-.06-.39s-.11 0-.13.09c-.08-.12 0-.29-.05-.45s-.18.07-.19.1c0-.14.06-.33 0-.48 0 0-.14.06-.17.09 0-.18.08-.29.1-.45 0 0-.16 0-.18.07 0-.17.18-.36.22-.52-.05 0-.19.11-.25.1a2.85 2.85 0 0 1 .17-.46 1 1 0 0 1 1.34-1.29 3.1 3.1 0 0 1 .47-.14c0 .06-.09.19-.11.24.16 0 .36-.19.53-.2 0 0 0 .15-.08.18.16 0 .28-.12.45-.08 0 0 0 .15-.09.17.15 0 .34-.08.48 0 0 0-.08.18-.11.2.16 0 .33 0 .45.06-.05 0-.06.11-.1.13a.49.49 0 0 1 .39.08s-.11.13-.14.13c.14 0 .26 0 .39.16a.6.6 0 0 1-.11.06c.07.06.21 0 .29.16s-.09.06-.13.09a.57.57 0 0 1 .27.13c-.05 0-.1.08-.14.09s.18 0 .27.13a.33.33 0 0 1-.16.11c.09.06.21.08.28.19s-.12.07-.16.09c.11.06.23.11.28.22a.37.37 0 0 0-.15.08.59.59 0 0 1 .23.24.3.3 0 0 0-.15.07.69.69 0 0 1 .27.29.35.35 0 0 0-.16.08.44.44 0 0 1 .24.26.28.28 0 0 0-.17 0 .55.55 0 0 1 .23.3h-.16a.66.66 0 0 1 .2.32H571a.59.59 0 0 1 .14.26h-.16a.84.84 0 0 1 .09.28h-.15a1.39 1.39 0 0 0 .11.54zm-4.53-2.37v.24a2.09 2.09 0 0 1 0-.24zm2.36-2.26z"/><path class="w" d="M564.7 531.28a15.51 15.51 0 0 1 2.54 1.93 2.82 2.82 0 0 1 2.06-.09h-.06a2.87 2.87 0 0 0-2 .13c.17.15.33.29.48.44a3.44 3.44 0 0 1 2 .11 1 1 0 0 1 .21.11l-.21-.09a3.57 3.57 0 0 0-2-.1l.46.45.1.1a4.35 4.35 0 0 1 1.92.32h-.06a4.51 4.51 0 0 0-1.81-.27l.63.67a3.4 3.4 0 0 1 1.51.37 3.87 3.87 0 0 0-1.46-.32c.17.19.35.4.51.6a4.22 4.22 0 0 1 1.06.33h-.13a5.76 5.76 0 0 0-.88-.24 5.68 5.68 0 0 1 .75 1.14v-.08a7.31 7.31 0 0 0-.7-1 4.41 4.41 0 0 0 .07.88v.14a4.37 4.37 0 0 1-.13-1.08c-.17-.21-.35-.41-.53-.61a3.79 3.79 0 0 0 0 1.5 3.48 3.48 0 0 1 0-1.54l-.64-.65a4.48 4.48 0 0 0 .08 1.82v.06a4.15 4.15 0 0 1-.13-1.92L568 534l-.2-.19a3.53 3.53 0 0 0 0 2 1.33 1.33 0 0 0 .09.21.68.68 0 0 1-.1-.21 3.46 3.46 0 0 1 0-2l-.48-.44a2.83 2.83 0 0 0-.21 1.94v.06a2.8 2.8 0 0 1 .16-2 16.19 16.19 0 0 0-2.55-1.9.05.05 0 0 1 0-.08.05.05 0 0 1 .08 0zm4.37 3.8z"/><path class="v" d="M242.19 500.18a1.64 1.64 0 0 0-.45-.57.74.74 0 0 1-.09.18 1 1 0 0 1-.2-.33s-.16.09-.17.13a.75.75 0 0 1-.14-.36c0-.1-.18.14-.18.13a.75.75 0 0 1-.16-.47s-.16.13-.14.16a.72.72 0 0 1-.1-.48.42.42 0 0 0-.15.15.59.59 0 0 1-.07-.47.68.68 0 0 0-.21.1.75.75 0 0 1-.06-.51.42.42 0 0 0-.21.08.71.71 0 0 1 0-.43.14.14 0 0 1 0-.06v.05c-.06 0-.17 0-.2.09a.84.84 0 0 1 0-.47c-.05 0-.18.05-.22.09-.05-.16 0-.3 0-.45a.38.38 0 0 1-.24.06c0-.16.08-.22.09-.37 0 0-.14 0-.21.05a.79.79 0 0 1 .1-.37h-.2c-.06-.19.09-.3.09-.43 0 0-.11 0-.16.07-.06-.3.09-.37.18-.53h-.25a.64.64 0 0 1 .24-.46h-.21c0-.19.2-.33.32-.51s-.25-.07-.28-.05c.08-.18.33-.3.44-.46 0 0-.19-.06-.24-.05.1-.21.31-.24.46-.39-.05 0-.2-.09-.24-.08.14-.16.47-.22.65-.36a1.39 1.39 0 0 1-.35-.09 5.14 5.14 0 0 1 .55-.35 4.07 4.07 0 0 0 1.12-1.11 4.13 4.13 0 0 0 1.32.85 4.84 4.84 0 0 1 .61.22c0 .07-.25.14-.32.16.2.1.54.09.72.23-.05 0-.17.12-.22.12.17.12.39.1.53.28-.06 0-.18.12-.23.1.14.14.42.2.53.36 0 0-.22.12-.27.11.15.14.37.24.41.43-.06 0-.14.06-.2 0a.68.68 0 0 1 .34.39s-.22.05-.25 0c.11.14.28.18.28.48h-.16c0 .13.19.21.18.41h-.21a.78.78 0 0 1 .17.34h-.22c0 .14.16.18.18.34a.41.41 0 0 1-.25 0c0 .15.15.26.13.43h-.24a.78.78 0 0 1 .11.46h-.22a.7.7 0 0 1 .05.43.39.39 0 0 0-.21 0 .84.84 0 0 1 0 .52.77.77 0 0 0-.23-.06.58.58 0 0 1 0 .48.35.35 0 0 0-.19-.12.77.77 0 0 1 0 .5l-.18-.13a.75.75 0 0 1-.05.49s-.25-.18-.21-.09a.66.66 0 0 1-.06.38s-.17-.06-.19-.09a1 1 0 0 1-.13.37.74.74 0 0 1-.12-.16 1.86 1.86 0 0 0-.33.66zm-2.81-6.13c-.12.12-.19.21-.21.23l.21-.23zm4.28-.46l.26.19z"/><path class="w" d="M240.52 488.86a21.41 21.41 0 0 1 1.11 4.07 3.68 3.68 0 0 1 2.21 1.57l-.05-.07a3.84 3.84 0 0 0-2.15-1.44l.15.85a4.59 4.59 0 0 1 2 1.74 1.17 1.17 0 0 1 .13.28l-.15-.27a4.84 4.84 0 0 0-2-1.69c0 .3.09.58.12.85v.19a5.59 5.59 0 0 1 1.74 1.88l-.05-.07A6.19 6.19 0 0 0 242 495c0 .36.09.78.12 1.22a4.46 4.46 0 0 1 1.28 1.59 5 5 0 0 0-1.27-1.51q0 .53.06 1.05a5.24 5.24 0 0 1 .83 1.2l-.11-.15a6.33 6.33 0 0 0-.72-1 8 8 0 0 1-.13 1.79v-.12a12.1 12.1 0 0 0 .06-1.6 6.61 6.61 0 0 0-.64 1l-.1.16a5.29 5.29 0 0 1 .74-1.23c0-.36 0-.71-.07-1.07a5 5 0 0 0-1.21 1.57 4.31 4.31 0 0 1 1.2-1.64c0-.41-.08-.81-.14-1.2a6.08 6.08 0 0 0-1.39 2v.08a5.62 5.62 0 0 1 1.42-2.12c0-.24-.07-.48-.11-.72l-.06-.35a4.59 4.59 0 0 0-1.62 2.09 1.08 1.08 0 0 0-.09.29.82.82 0 0 1 .07-.3 4.53 4.53 0 0 1 1.63-2.15q-.08-.4-.15-.84a3.75 3.75 0 0 0-1.79 1.85v.07a3.75 3.75 0 0 1 1.81-2 21.36 21.36 0 0 0-1.13-4v-.1a.07.07 0 0 1 .1 0zm1.5 7.5z"/><path d="M97.37 192.87a1.24 1.24 0 0 1 1.59.21l1.77 1.34 1-.42s-1.36-2-2.29-2.23-.58-1.73-4.06-2.33c-2.57-.43-3.21-.77-3.38-.91l1.31 1.88S90 194.67 90 195.22c0 0 6.49-1.77 7.37-2.35zm-40.29 2c-1 0-3.58-1-5-.37l2.21 1.67s-2.12 6.35-1.58 7.11 4-2.37 4-2.37l-.65-1.19 1.41.32 1.4-2 1.45.06 1.64 1 1.06-.69-1.78-1.2s-3.18-2.32-4.16-2.31zm82.58 38.78c-.57-.62-5.94 2.13-6.1 4.59l-3.26.26 1.3 1.14s3.27 2.22 4.7 2.41a6.61 6.61 0 0 1 2.33.71l1.06.56.23-1.76-2.92-1.05s3.22-6.2 2.66-6.83zm67.5-26.84c1.82.15 2.2.38 2.24.52l.37-.91-3.11-1.26s-.08-1.46.35-1.53 2-3.37 2.72-3.4-5.36-1.42-7.26 2.32l-.61.29-2.83-.13a9.2 9.2 0 0 1 1.29 1c.38.46 4.03 2.88 6.84 3.13zm-41.23 31.83c.62.69 4.47.59 4.47.59l1.23.4.07-.6-1.22-.4s-1.19-.64-1.29-1a19.5 19.5 0 0 1 .84-3.16l1.55-2.1-.05-.73c-2.24-.18-6.88 3.82-6.88 3.82l-2.52-.32c.67 2.52 3.18 2.86 3.8 3.53zM57.62 221.55a6.74 6.74 0 0 0 .67-7.3s-1.4 2-2 2-3.15 3.46-3.15 3.46l-3.23-.3c.4 1.27 5.18 3.83 5.18 3.83l3.21.42c.7.09 1.66 1.43 1.66 1.43l.64-.52.42-1-3.51-1.42zm57.56 16.64l1.52.76.47-1.18-2.17-.7-1.46-1.16c1-.42 1.83-4.17 1.83-4.17l-1.74-.23s2.15-.41 2.22-.95a21.57 21.57 0 0 0-1-3.58s-1.13 2.47-1.76 2.39-3.24 5-3.24 5l-2.87-.24c1.34 3.31 8.2 4.06 8.2 4.06zm87.65 36.52l1.95.79v-.69s-1.94-.86-2.37-1-.4-1-.4-1l1.44-1.42-.41-.28a24 24 0 0 0 2.13-2.62c0-.3-1.18-.53-1.74-.38s-5.16 1.24-5.11 2.92L195 271s1.61 2.82 7.83 3.71zM105.7 222c.55.76 3.21-2.34 3.21-2.34l1-1.25 1.66-1.58 3.39 1.27.24-.66s-5.82-4.9-10.79-4l2.07 1.51s-1.33 6.26-.78 7.05zm36.8-10.48s1.55 2.27 7.07 3.47l1.63.58.21.63.4-.91-3-2.09.51-.66s1.95-4.11-.4-5.63c0 0-3.73 3.51-3.56 4.38 0 0-3.29-.91-3.78-.37l.09.37zm53 35.86c-.85-1-2.69 2.09-3.33 2.23s-1.95 2.64-1.93 3.18l-.3.19s-2.73-1-3-.62.78.87.78.87 2.6 2.62 3.64 2.84 4.13.54 4.13.54l1.51.73.57-.23a27.68 27.68 0 0 0-3-2c-.35-.11 1.77-6.74.92-7.76zm11.27-14.47l-.38.17a18 18 0 0 1 2.37 2.37c.28.57.78 5 2.14 5.54s2.4-3.35 2.4-3.35l.2-.2.87.19 1.48 1 1.4-.43s-6.7-5.59-10.49-5.32zm43.65 19.65l1.06.75s1.63.51 1.05-.55-6.34-4.11-7-4.57a8.6 8.6 0 0 0-3-.54l1.47 1.79c.34.12 0 .91 0 .91-1.3.44-2.54 6.45-2.54 6.45 1.15.15 1.79-1.37 4-1.61s4.2-2.81 4.2-2.81zm63.41 8.85a15.34 15.34 0 0 0 4.16.24 3.58 3.58 0 0 1 2.22.14l1.65 1 .91-1.49-2.67-.73-.68-.92s1.1-4.35-1.77-5.57c0 0-2.55 3.78-2.58 4s-2.91-.31-2.91-.31l.17.71 1.86 1.54zM258.52 218c-1.85-.17-4.21-.55-4.21-.55l-.12.21 2.3 1.52a24.74 24.74 0 0 0 .73 4 24.7 24.7 0 0 1 1.11 2.44s3.25-3.7 3.16-4.32 3.77.5 3.77.5-4.89-3.61-6.74-3.8zm-47 4.42l-1-.74-1.94-1.47s2.36-3.93.58-6.59l-1.57 1.13s-2.9 2.65-2.73 3.52-3.54-.1-3.54-.1l-.05.36s1.68 1.31 1.63 1.67-.12 1-.12 1l5 .78a22.1 22.1 0 0 1 2.52 1.02zm14.4 52.29c3.36-1.86 1.52-7.31 1.52-7.31-.63-.57-5.43 5.71-5.43 5.71l-3.07-.4c1.79 3.63 8.53 4.27 8.53 4.27l1.31.78h.72l.15-1.2-2-.63zm-63.06-51.62l.75-1.36-1.1-.26-1.07-.51s-4.25-3.34-8.12-3.11L155 220s.26 5.6 1.47 6.13 3.4-4.28 3.4-4.28l2.22.41zm130.43 23.44a11.12 11.12 0 0 0-2.56-1.06 19.36 19.36 0 0 0-4.69 0l2 1.84s-3.38 4.16-3 6.63c0 0 6-1.51 6.86-4.68l1.3-.19 1.86 1 1.37.42.11-.83-2.73-1.66zm51 1.77c.07-.6 1.58-2.34 1.07-3.86s-1.07-1.59-1.07-1.59l-.7-1.19s-1.6 1.37-1.65 1.73-1.41 2.12-1.38 3-3.24-.18-3.24-.18l1.58 1.79s-1.39 3.09-1.16 3.49c0 0 4.25.07 6.27-1.24l2.43.92 1.2.64.23-1.79s-3.69-1.1-3.61-1.69zm-184.62 1.52l2.3 2s2.48 6 3 6.33 2.39-4.17 2.39-4.17l1.86-.12 1.58.94v-.74s-6.56-5.67-11.16-4.21z" fill="#8b5e3c" fill-rule="evenodd"/><path class="y" d="M28.57 311.26a8 8 0 0 1 2.6-.91C17.35 313 4.2 325.72 4 340.86 3.74 361 23.37 376 28.14 379.36c-37.26-47.77.43-68.1.43-68.1z"/><path class="y" d="M30.72 379.54h3.4c-12.88-47.55 1-69.41 1-69.41a6.24 6.24 0 0 1 .79-.32 29 29 0 0 0-3.82.35c.49-.07.82-.1.82-.1-25.73 19.94-4.13 65.53-2.19 69.48zm8.18.07h3.39c2.19-4 25.62-48.41.53-69 0 0 0-.05.23 0a28.57 28.57 0 0 0-4-.69h.07c10.69 20.86.39 67.01-.22 69.69z"/><path class="y" d="M45 379.35c5-3.74 23.66-18.85 24.26-37.63.44-13.55-10.31-25.44-22.54-30C51 314.53 80.61 336 45 379.35z"/><path class="z" d="M30.72 379.54c-1.94-4-23.54-49.52 2.14-69.45 0 0-.33 0-.82.1l-.87.16a8 8 0 0 0-2.6.91s-37.69 20.33-.43 68.1l.23.16zm12.1-68.87c25.09 20.56 1.66 65-.53 69h2.25v.07l.51-.38c35.6-43.4 6-64.82 1.72-67.58a31.07 31.07 0 0 0-3.68-1.12c-.28-.04-.27.01-.27.01z"/><path class="z" d="M34.12 379.57h4.78c.61-2.68 10.91-48.83.17-69.62L39 310c-.74-.07-1.49-.12-2.23-.13h-.91a6.24 6.24 0 0 0-.79.32s-13.83 21.81-.95 69.38z"/><path class="aa" d="M29.81 390.15l-.86-8.64.32-.03.23 2.42 1.1-2.06.27.15-1.31 2.47.56 5.66-.31.03zm6.24.06l.11-5.58-1.95-2.55.25-.19 1.71 2.24.06-3.21h.31l-.06 3.15 1.55-2.17.25.18-1.81 2.55-.11 5.59-.31-.01zm6.53-.03l.65-5.48-1.53-2.72.27-.16 1.33 2.35.29-2.48.32.04-1.02 8.49-.31-.04z"/><path class="y" d="M43.78 382.26l-14.76-.19-3.68-4.74 22.01.29-3.57 4.64z"/><path d="M28.57 381.49l-.53-.68 16.69.22-.51.67-15.65-.21zm-2.18-2.81l-.53-.68 21 .28-.51.67z" fill="#caebf3" fill-rule="evenodd"/><path d="M43 397.73c1-2.2.1-7.64.1-7.64l-13.48-.18s-1 5.42-.1 7.64c.69 1.8 12.68 1.95 13.48.18z" fill="#726658" fill-rule="evenodd"/><path class="aa" d="M43.19 397.05c.58-2.47-.12-7-.12-7l-13.48-.18s-.82 4.47-.3 6.95c2.98 1 10.9 1.1 13.9.23z"/><path fill="#414042" d="M29.21 390.405l.01-.78 14.448.19-.01.78z"/></svg>