<svg xmlns="http://www.w3.org/2000/svg" xmlns:xlink="http://www.w3.org/1999/xlink" viewBox="0 0 327.13 178.91"><defs><style>.a,.b,.c,.d,.e,.f{fill:#fff}.a,.b,.c,.g,.h{fill-rule:evenodd}.a{opacity:.6}.b{opacity:.8}.d{opacity:.3}.e{opacity:.5}.g{fill:#04c1e1}.h,.k{fill:#ffb950}.j{fill:#fde3bc}</style><linearGradient id="a" x1="-1026.47" y1="1001.4" x2="-1026.47" y2="959.83" gradientTransform="rotate(-45 -1382.563 -1008.014)" gradientUnits="userSpaceOnUse"><stop offset="0" stop-color="#f7f1ea"/><stop offset=".55" stop-color="#fdfbf9"/><stop offset="1" stop-color="#fff"/></linearGradient><linearGradient id="b" x1="-3346.05" y1="-656.4" x2="-3346.05" y2="-697.97" gradientTransform="rotate(-135 -1382.489 -1008.087)" xlink:href="#a"/><linearGradient id="c" x1="-1688.24" y1="-2975.98" x2="-1688.24" y2="-3017.56" gradientTransform="rotate(135 -1382.456 -1008.123)" xlink:href="#a"/><linearGradient id="d" x1="631.34" y1="-1318.18" x2="631.34" y2="-1359.75" gradientTransform="rotate(45 -1382.383 -1008.192)" xlink:href="#a"/></defs><path class="a" d="M143.88 46.41c5.29-3 5.63 1.83 10.55-.36-4.82.79-5.32-4.22-10.55.36z"/><path class="b" d="M8.8 44.02c4-2.28 4.27 1.38 8-.28-3.69.61-4.05-3.19-8 .28z"/><path class="c" d="M80.54 49.14c4-2.28 4.26 1.39 8-.27-3.66.57-4.06-3.23-8 .27z"/><path class="d" d="M167.73 50.38a.73.73 0 1 1 1.46 0 .73.73 0 0 1-1.46 0z"/><path class="e" d="M88.86 45.81a.73.73 0 0 1 1.46 0 .73.73 0 0 1-1.46 0z"/><path class="f" d="M40.61 54.05a.74.74 0 1 1 .73.74.73.73 0 0 1-.73-.74zm101.95-11.83a.32.32 0 1 1 .32.32.31.31 0 0 1-.32-.32zm-9.68 10.62a.28.28 0 0 1 .31-.25.26.26 0 1 1 0 .5.28.28 0 0 1-.31-.25zm-13.05-6.21a.31.31 0 1 1 .31.26.29.29 0 0 1-.31-.26zm51.74.83a.28.28 0 0 1 .31-.25.26.26 0 1 1 0 .5.28.28 0 0 1-.31-.25zm-4.46-3.27a.29.29 0 0 1 .32-.25.26.26 0 1 1 0 .5.29.29 0 0 1-.32-.25zm-58.83 9.55a.31.31 0 1 1 .31.31.31.31 0 0 1-.31-.31zm-77.3-10.69a.32.32 0 0 1 .63 0 .32.32 0 1 1-.63 0zm18.27-.51a.32.32 0 1 1 .63 0 .32.32 0 0 1-.63 0zm2.18 5.92a.32.32 0 1 1 .63 0 .32.32 0 0 1-.63 0zM4.4 46.38a.32.32 0 0 1 .32-.31.32.32 0 0 1 0 .63.32.32 0 0 1-.32-.32zm7.78 6.76a.31.31 0 1 1 .31.32.31.31 0 0 1-.31-.32zM0 52.84a.32.32 0 0 1 .63 0 .32.32 0 1 1-.63 0z"/><path class="a" d="M67.34 64.66c-5.29 3-5.63-1.83-10.55.36 4.82-.8 5.32 4.22 10.55-.36z"/><path class="c" d="M130.68 61.96c-4 2.28-4.27-1.39-8 .27 3.66-.61 4.05 3.2 8-.27zm-94.45 1.82c-4 2.28-4.27-1.39-8 .27 3.65-.6 4.05 3.2 8-.27z"/><path class="d" d="M43.5 60.69a.74.74 0 1 1-.73-.73.73.73 0 0 1 .73.73z"/><path class="e" d="M122.36 65.26a.73.73 0 1 1-.73-.73.73.73 0 0 1 .73.73z"/><path class="f" d="M170.62 57.01a.74.74 0 1 1-.74-.73.74.74 0 0 1 .74.73zM68.65 68.84a.31.31 0 1 1-.31-.31.31.31 0 0 1 .31.31zm9.69-10.61a.28.28 0 0 1-.31.25.29.29 0 0 1-.32-.25.3.3 0 0 1 .32-.26.29.29 0 0 1 .31.26zm13.05 6.2a.28.28 0 0 1-.31.25.26.26 0 1 1 0-.5.28.28 0 0 1 .31.25zm-51.73-.82a.29.29 0 0 1-.31.25.26.26 0 1 1 0-.51.29.29 0 0 1 .31.26zm4.45 3.27a.29.29 0 0 1-.31.25.26.26 0 1 1 0-.51.29.29 0 0 1 .31.26zm58.83-9.55a.32.32 0 0 1-.63 0 .32.32 0 1 1 .63 0zm77.3 10.69a.31.31 0 1 1-.31-.32.31.31 0 0 1 .31.32zm-18.27.51a.32.32 0 0 1-.63 0 .32.32 0 1 1 .63 0zm-2.19-5.92a.31.31 0 1 1-.31-.31.31.31 0 0 1 .31.31zm-58.93 1.74a.32.32 0 0 1-.63 0 .32.32 0 1 1 .63 0z"/><path class="b" d="M202.43 44.02c4-2.28 4.27 1.38 8-.28-3.66.61-4.05-3.19-8 .28z"/><path class="c" d="M274.16 49.14c4-2.28 4.27 1.39 8-.27-3.65.57-4.05-3.23-8 .27z"/><path class="e" d="M282.48 45.81a.74.74 0 0 1 1.47 0 .74.74 0 0 1-1.47 0z"/><path class="f" d="M234.24 54.05a.73.73 0 1 1 1.46 0 .73.73 0 1 1-1.46 0zm92.26-1.21a.29.29 0 0 1 .32-.25.26.26 0 1 1 0 .5.29.29 0 0 1-.32-.25zm-13.05-6.21a.29.29 0 0 1 .31-.25.26.26 0 1 1 0 .51.29.29 0 0 1-.31-.26zm-11.55 7.11a.32.32 0 1 1 .32.31.31.31 0 0 1-.32-.31zm-77.29-10.69a.32.32 0 0 1 .63 0 .32.32 0 1 1-.63 0zm18.27-.51a.31.31 0 1 1 .62 0 .31.31 0 0 1-.62 0zm2.23 5.92a.32.32 0 1 1 .31.31.31.31 0 0 1-.31-.31zm-47.08-2.08a.32.32 0 0 1 .63 0 .32.32 0 1 1-.63 0zm7.77 6.76a.32.32 0 0 1 .63 0 .32.32 0 1 1-.63 0zm-12.18-.3a.32.32 0 0 1 .63 0 .32.32 0 1 1-.63 0z"/><path class="c" d="M229.85 63.78c-4 2.28-4.27-1.39-8 .27 3.66-.6 4.05 3.2 8-.27z"/><path class="d" d="M237.11 60.69a.74.74 0 1 1-.74-.73.74.74 0 0 1 .74.73z"/><path class="e" d="M315.99 65.26a.74.74 0 0 1-1.47 0 .74.74 0 0 1 1.47 0z"/><path class="f" d="M262.28 68.84a.32.32 0 1 1-.31-.31.31.31 0 0 1 .31.31zm9.68-10.61a.32.32 0 0 1-.62 0 .31.31 0 0 1 .62 0zm13.06 6.2a.29.29 0 0 1-.32.25.26.26 0 1 1 0-.5.29.29 0 0 1 .32.25zm-51.73-.82a.3.3 0 0 1-.32.25.26.26 0 1 1 0-.51.3.3 0 0 1 .32.26zm4.41 3.27a.3.3 0 0 1-.32.25.26.26 0 1 1 0-.51.3.3 0 0 1 .32.26zm58.86-9.55a.31.31 0 1 1-.31-.32.31.31 0 0 1 .31.32zm10.09 7.27a.32.32 0 1 1-.31-.31.31.31 0 0 1 .31.31z"/><path class="b" d="M8.8 74.59c4-2.29 4.27 1.38 8-.28-3.69.6-4.05-3.17-8 .28z"/><path class="e" d="M88.86 76.37a.73.73 0 0 1 1.46 0 .73.73 0 1 1-1.46 0z"/><path class="f" d="M142.56 72.79a.32.32 0 1 1 .32.31.31.31 0 0 1-.32-.31zm-22.73 4.41a.32.32 0 1 1 .31.25.28.28 0 0 1-.31-.25zm47.28-2.44a.29.29 0 0 1 .32-.25.26.26 0 1 1 0 .5.29.29 0 0 1-.32-.25zM30.98 73.62a.32.32 0 1 1 .63 0 .32.32 0 0 1-.63 0zm18.27-.48a.32.32 0 0 1 .63 0 .32.32 0 1 1-.63 0zM4.4 76.95a.33.33 0 0 1 .32-.32.32.32 0 0 1 .31.32.31.31 0 0 1-.31.31.32.32 0 0 1-.32-.31z"/><path class="e" d="M282.48 76.37a.74.74 0 1 1 .73.74.73.73 0 0 1-.73-.74z"/><path class="f" d="M313.45 77.2a.28.28 0 0 1 .31-.25.26.26 0 1 1 0 .5.28.28 0 0 1-.31-.25zm-88.84-3.58a.32.32 0 1 1 .31.31.31.31 0 0 1-.31-.31zm18.27-.48a.31.31 0 1 1 .31.32.31.31 0 0 1-.31-.32zm-44.85 3.81a.32.32 0 1 1 .63 0 .32.32 0 0 1-.63 0z"/><path class="a" d="M183.25 88.14c-5.29-3-5.62 1.82-10.55-.37 4.82.79 5.35-4.23 10.55.37z"/><path class="b" d="M318.33 85.74c-4-2.29-4.27 1.38-8-.28 3.65.6 4.05-3.2 8 .28z"/><path class="c" d="M246.6 90.83c-4-2.28-4.27 1.38-8-.28 3.65.59 4.05-3.2 8 .28z"/><path class="d" d="M159.4 92.14a.73.73 0 1 0-.73.73.73.73 0 0 0 .73-.73z"/><path class="e" d="M238.28 87.52a.74.74 0 1 0-.74.74.74.74 0 0 0 .74-.74z"/><path class="f" d="M286.52 95.77a.74.74 0 0 0-1.47 0 .74.74 0 0 0 1.47 0zM184.57 83.94a.32.32 0 1 0-.32.31.31.31 0 0 0 .32-.31zm9.68 10.62a.31.31 0 0 0-.62 0 .32.32 0 0 0 .62 0zm13.06-6.21a.29.29 0 0 0-.32-.25.26.26 0 1 0 0 .5.29.29 0 0 0 .32-.25zm-51.75.79a.32.32 0 1 0-.31.25.28.28 0 0 0 .31-.25zm4.42-3.23a.29.29 0 0 0-.32-.25.26.26 0 1 0 0 .5.29.29 0 0 0 .32-.25zm58.87 9.55a.31.31 0 1 0-.31.31.31.31 0 0 0 .31-.31zm77.26-10.69a.32.32 0 1 0-.63 0 .32.32 0 0 0 .63 0zm-18.23-.52a.32.32 0 0 0-.63 0 .32.32 0 1 0 .63 0zm-2.18 5.89a.32.32 0 0 0-.63 0 .32.32 0 0 0 .63 0zm47.03 10.14a.32.32 0 1 0-.63 0 .32.32 0 0 0 .63 0zm-7.77-5.47a.32.32 0 0 0-.32-.32.32.32 0 0 0 0 .63.32.32 0 0 0 .32-.31zm12.15 11.92a.32.32 0 0 0-.63 0 .32.32 0 1 0 .63 0z"/><path class="a" d="M259.79 106.37c5.29 3 5.63-1.82 10.55.37-4.82-.8-5.34 4.21-10.55-.37z"/><path class="c" d="M196.45 103.67c4 2.28 4.27-1.38 8 .28-3.65-.61-4.05 3.19-8-.28zm94.45 1.82c4 2.28 4.27-1.38 8 .28-3.65-.63-4.05 3.19-8-.28z"/><path class="d" d="M283.63 102.41a.74.74 0 1 0 .73-.74.73.73 0 0 0-.73.74z"/><path class="e" d="M204.77 106.97a.73.73 0 1 0 1.46 0 .73.73 0 1 0-1.46 0z"/><path class="f" d="M156.52 98.73a.73.73 0 1 0 .73-.73.73.73 0 0 0-.73.73zm101.96 11.83a.31.31 0 1 0 .31-.32.31.31 0 0 0-.31.32zm-9.69-10.62a.29.29 0 0 0 .32.25.26.26 0 1 0 0-.5.29.29 0 0 0-.32.25zm-13.05 6.2a.28.28 0 0 0 .31.25.29.29 0 0 0 .32-.25.3.3 0 0 0-.32-.26.29.29 0 0 0-.31.26zm51.73-.82a.28.28 0 0 0 .31.25.26.26 0 1 0 0-.5.28.28 0 0 0-.31.25zm-4.36 3.27a.28.28 0 0 0 .31.25.26.26 0 1 0 0-.5.28.28 0 0 0-.31.25zm-58.92-9.55a.32.32 0 1 0 .31-.31.31.31 0 0 0-.31.31zm-77.3 10.69a.31.31 0 0 0 .31.32.32.32 0 1 0 0-.63.31.31 0 0 0-.31.31zm18.27.51a.32.32 0 1 0 .31-.31.31.31 0 0 0-.31.31zm2.19-5.91a.31.31 0 0 0 .31.31.32.32 0 1 0 0-.63.31.31 0 0 0-.31.32zm58.93 1.73a.32.32 0 1 0 .31-.31.31.31 0 0 0-.31.31z"/><path class="b" d="M124.7 85.74c-4-2.29-4.26 1.38-8-.28 3.66.6 4.05-3.2 8 .28z"/><path class="c" d="M52.97 90.83c-4-2.28-4.27 1.38-8-.28 3.65.59 4.05-3.2 8 .28z"/><path class="e" d="M44.65 87.52a.73.73 0 1 0-.73.74.73.73 0 0 0 .73-.74z"/><path class="f" d="M92.89 95.77a.73.73 0 1 0-1.46 0 .73.73 0 1 0 1.46 0zM.63 94.56a.3.3 0 0 0-.32-.26.29.29 0 0 0-.31.26.28.28 0 0 0 .31.25.29.29 0 0 0 .32-.25zm13.05-6.21a.28.28 0 0 0-.31-.25.26.26 0 1 0 0 .5.28.28 0 0 0 .31-.25zm11.55 7.11a.32.32 0 1 0-.31.31.31.31 0 0 0 .31-.31zm77.29-10.69a.31.31 0 0 0-.31-.32.32.32 0 1 0 0 .63.31.31 0 0 0 .31-.31zm-18.26-.52a.32.32 0 0 0-.32-.31.32.32 0 0 0 0 .63.32.32 0 0 0 .32-.32zm-2.15 5.89a.31.31 0 0 0-.31-.31.32.32 0 0 0-.32.31.31.31 0 0 0 .32.31.31.31 0 0 0 .31-.31zm47-2a.32.32 0 1 0-.63 0 .32.32 0 0 0 .63 0zm-7.78 6.67a.32.32 0 1 0-.31.31.31.31 0 0 0 .31-.31zm12.18-.25a.32.32 0 1 0-.63 0 .32.32 0 0 0 .63 0z"/><path class="c" d="M97.28 105.49c4 2.28 4.27-1.38 8 .28-3.65-.63-4.05 3.19-8-.28z"/><path class="d" d="M90.01 102.41a.73.73 0 1 0 1.46 0 .73.73 0 1 0-1.46 0z"/><path class="e" d="M11.11 106.97a.74.74 0 1 0 .74-.73.74.74 0 0 0-.74.73z"/><path class="f" d="M64.85 110.56a.32.32 0 1 0 .32-.32.31.31 0 0 0-.32.32zm-9.68-10.62a.32.32 0 1 0 .31-.25.28.28 0 0 0-.31.25zm-13.06 6.2a.29.29 0 0 0 .32.25.28.28 0 0 0 .31-.25.29.29 0 0 0-.31-.26.3.3 0 0 0-.32.26zm51.74-.82a.32.32 0 1 0 .31-.25.28.28 0 0 0-.31.25zm-4.42 3.27a.29.29 0 0 0 .32.25.26.26 0 1 0 0-.5.29.29 0 0 0-.32.25zm-58.86-9.55a.31.31 0 1 0 .31-.31.31.31 0 0 0-.31.31zm-10.09 7.27a.32.32 0 1 0 .31-.31.31.31 0 0 0-.31.31z"/><path class="b" d="M318.33 116.3c-4-2.28-4.27 1.38-8-.28 3.65.61 4.05-3.19 8 .28z"/><path class="e" d="M238.28 118.14a.74.74 0 1 0-.74.73.73.73 0 0 0 .74-.73z"/><path class="f" d="M184.57 114.51a.32.32 0 1 0-.63 0 .32.32 0 0 0 .63 0zm22.74 4.41a.3.3 0 0 0-.32-.26.29.29 0 0 0-.31.26.28.28 0 0 0 .31.25.29.29 0 0 0 .32-.25zm-47.33-2.45a.29.29 0 0 0-.32-.25.26.26 0 1 0 0 .5.29.29 0 0 0 .32-.25zm136.13-1.14a.32.32 0 1 0-.32.32.31.31 0 0 0 .32-.32zm-18.23-.51a.32.32 0 1 0-.31.31.31.31 0 0 0 .31-.31zm44.85 3.84a.32.32 0 1 0-.32.32.31.31 0 0 0 .32-.32z"/><path class="e" d="M44.65 118.14a.73.73 0 1 0-.73.73.73.73 0 0 0 .73-.73z"/><path class="f" d="M13.68 118.92a.29.29 0 0 0-.31-.26.3.3 0 0 0-.32.26.29.29 0 0 0 .32.25.28.28 0 0 0 .31-.25zm88.84-3.59a.31.31 0 0 0-.31-.31.32.32 0 1 0 0 .63.31.31 0 0 0 .31-.32zm-18.26-.51a.32.32 0 0 0-.32-.31.31.31 0 1 0 0 .62.32.32 0 0 0 .32-.31zm44.85 3.84a.32.32 0 0 0-.63 0 .32.32 0 1 0 .63 0z"/><path class="g" d="M54.88 175.86a39.91 39.91 0 1 1 39.91-39.91 39.9 39.9 0 0 1-39.91 39.91zm0-18a21.89 21.89 0 1 1 21.89-21.89 21.88 21.88 0 0 1-21.89 21.87z"/><path class="c" d="M26.99 164.49l11.54-14a21.87 21.87 0 0 0 32.71 0l11.53 14a39.89 39.89 0 0 1-55.78 0zm0-57.08a39.9 39.9 0 0 1 55.77 0l-11.53 14a21.89 21.89 0 0 0-32.71 0l-11.53-14zm137.78-95.34a1.84 1.84 0 0 1 1.82 1.85l-.16 157.22a1.86 1.86 0 0 1-1.84 1.85 1.87 1.87 0 0 1-1.85-1.85l.15-157.22a1.86 1.86 0 0 1 1.88-1.84z"/><path class="h" d="M105.11 61.56c8-22.27 32.69-46.08 59.64-46.05-36.78 0-70.44 23.76-81.38 46 6.11 9.22 13.49 8.6 21.82.12a.39.39 0 0 0-.08-.07zm59.64-46.05c27 0 51.56 23.87 59.53 46.16 9.46 9.27 16.76 9.35 21.76 0-10.93-22.27-44.51-46.13-81.29-46.16z"/><path class="h" d="M164.75 15.51c5.28 0 10.08 23.83 11.66 46.11-7.65 9.81-15.44 8.81-23.39 0 1.58-22.28 6.46-46.1 11.73-46.09z"/><path d="M164.75 15.51c-26.95 0-51.6 23.78-59.64 46.05 8.08 10.11 16.53 9.14 25.26.06 7.22 9.09 14.8 9.56 22.7 0 1.53-22.3 6.41-46.12 11.68-46.11zm0 0c5.28 0 10.08 23.83 11.66 46.11q14.67 14 22.68 0c10.53 9.77 18.81 9.26 25.2 0-7.98-22.24-32.59-46.09-59.54-46.11zm-15.14 118.4c-2.06 2.18-2.66 5.09-1.21 6.54s4.24.85 6.42-1.33 2.79-5.09 1.34-6.42-4.37-.97-6.55 1.21z" fill="#fde3bc" fill-rule="evenodd"/><path class="g" d="M156.26 132.81c4.45-4 16-10.07 26.18-3.87a20.09 20.09 0 0 1 1.69 1.58 26.89 26.89 0 0 1 5.09 30.91v-.29c.85-2.9.12-6.29-1.45-9.32-3.39-7-9.57-11-16.84-13.33a32.69 32.69 0 0 0-14.49-1.68c.67-1.54.67-3.09-.18-4z"/><path class="c" d="M152.88 125.67a26.81 26.81 0 0 1 29.54 3.26c-10.2-6.19-21.72-.07-26.16 3.88l-.1-.11c-1-1-2.78-1.08-4.48-.27a21.67 21.67 0 0 1 1.2-6.76zm1.94 13.47a7.78 7.78 0 0 0 1.62-2.31 33 33 0 0 1 14.49 1.7c7.27 2.31 13.45 6.3 16.84 13.33 1.57 3 2.3 6.42 1.45 9.32v.37a25.87 25.87 0 0 1-5.09 7 30.51 30.51 0 0 1-6.9 5.09h-.37c-2.9.85-6.29.12-9.32-1.45-7-3.39-11-9.69-13.32-17a33 33 0 0 1-1.71-14.49 7.72 7.72 0 0 0 2.31-1.56z"/><path class="g" d="M148.51 140.55c.92.88 2.46.9 4 .18a32.88 32.88 0 0 0 1.69 14.5c2.3 7.27 6.3 13.57 13.32 17 3 1.57 6.42 2.3 9.32 1.45h.19a26.8 26.8 0 0 1-30.83-5.09c-.48-.6-1.09-1.09-1.57-1.69-6.19-10.35-.07-21.89 3.88-26.35z"/><path class="c" d="M141.38 137.14a25.81 25.81 0 0 1 6.81-1.21c-.81 1.71-.81 3.46.21 4.48l.11.1c-3.94 4.44-10 15.93-3.91 26.22a27 27 0 0 1-3.22-29.59z"/><path class="g" d="M152.88 125.67a21.67 21.67 0 0 0-1.2 6.76 7.41 7.41 0 0 0-2.07 1.48 8.26 8.26 0 0 0-1.42 2.06 25.57 25.57 0 0 0-6.78 1.2 25.77 25.77 0 0 1 4.81-6.65 57.94 57.94 0 0 1 6.66-4.85z"/><path class="f" d="M133.52 127.48l-.12-.38a23.48 23.48 0 0 0-1.33-3.48 15 15 0 0 0-3.37-4.69 11 11 0 0 0-3.56-2.2 12.06 12.06 0 0 0-4.74-.73c-.55 0-1 .07-1.21.08a9.8 9.8 0 0 0-3.14.68c-5.35 2.22-5.94 9.17-5.78 12.38a34.92 34.92 0 0 0 .38 3.72 28.14 28.14 0 0 0 .57 2.79 12.86 12.86 0 0 0 1 2.79l.87 2.79.31 1a18.32 18.32 0 0 1 .54 3.37c.42 4.31.46 10.49.46 10.49l-.22 2.71-.37 4.39-.37 4.54c-.72 7.48 6.68 8.3 6.68 8.3 10.65 1.38 10.79-6.9 10.79-6.9 0-.32.1-3 .25-6 .07-1.48.15-3 .22-4.38.11-2.19.2-3.86.2-3.86l1-9.39.22-2.17v.48a18.9 18.9 0 0 1 .39-2.25c.3-1.53.73-3.58 1.06-5.35 0-.21.07-.41.1-.62a15.39 15.39 0 0 0 .18-2.28 19.26 19.26 0 0 0-1.01-5.83z"/><path class="j" d="M127.2 167.55a2.3 2.3 0 0 0-2.33 2.25 2.33 2.33 0 1 0 2.33-2.25zm.08-17.58a2.3 2.3 0 0 0-2.33 2.25 2.27 2.27 0 0 0 2.31 2.25 2.25 2.25 0 1 0 0-4.5zm.06-13.08a2.31 2.31 0 0 0 2.34-2.25 2.33 2.33 0 1 0-2.34 2.25zm.08-17.59a2.37 2.37 0 0 0 1.28-.37 11 11 0 0 0-3.56-2.2v.32a2.28 2.28 0 0 0 2.28 2.25zm-9.31 48.24a2.25 2.25 0 1 0 2.31 2.25 2.28 2.28 0 0 0-2.31-2.25zm.07-13.09a2.25 2.25 0 1 0-2.31-2.26 2.29 2.29 0 0 0 2.31 2.26zm.08-17.58a2.3 2.3 0 0 0 2.33-2.25 2.32 2.32 0 1 0-2.33 2.25zm-2.21-20.11v.27a2.33 2.33 0 0 0 4.65 0 2.15 2.15 0 0 0-.27-1c-.55 0-1 .07-1.21.08a9.8 9.8 0 0 0-3.17.65zm13.39 44.26a2.24 2.24 0 0 0 1.74 2.17c.07-1.48.15-3 .22-4.38a2.26 2.26 0 0 0-1.96 2.21zm-6.75-2.27a2.25 2.25 0 1 0 2.31 2.26 2.3 2.3 0 0 0-2.31-2.26zm-6.77 2.24a2.26 2.26 0 0 0-1.72-2.17l-.37 4.39a2.28 2.28 0 0 0 2.09-2.22zm13.6-17.56a2.29 2.29 0 0 0 3.05 2.13l.22-2.17v.48a18.9 18.9 0 0 1 .39-2.25 2.33 2.33 0 0 0-3.68 1.81zm-6.77 2.24a2.3 2.3 0 0 0 2.33-2.25 2.27 2.27 0 0 0-2.31-2.25 2.25 2.25 0 1 0 0 4.5zM116 143.4a2.28 2.28 0 0 0-2.32-2.25 2.12 2.12 0 0 0-.57.08l.31 1a18.32 18.32 0 0 1 .54 3.37 2.28 2.28 0 0 0 2.04-2.2zm13.6-17.55a2.27 2.27 0 0 0 2.31 2.29 2.31 2.31 0 0 0 1.61-.62l-.12-.38a23.48 23.48 0 0 0-1.33-3.48h-.14a2.28 2.28 0 0 0-2.33 2.19zm-6.78 2.23a2.25 2.25 0 1 0-2.31-2.25 2.29 2.29 0 0 0 2.31 2.25zm-9.06-4.51a2.25 2.25 0 1 0 2.32 2.25 2.28 2.28 0 0 0-2.32-2.25z"/><path class="k" d="M123.36 127.25s.82-1.91-.5-2.07h-.27c-1.31.16-.49 2.07-.49 2.07-8.58 4.83-9.84 11.5-9.94 15.94-.12 5.69 2.8 9.76 4.46 10.31a1.78 1.78 0 0 0 1.91-3c-1.67-1.49-4.1-2.37-4-7.57.13-6 6.88-10.7 8.19-11.56 1.31.86 8.06 5.59 8.19 11.56.11 5.2-2.32 6.08-4 7.57a1.78 1.78 0 0 0 1.9 3c1.67-.55 4.59-4.62 4.47-10.31-.08-4.44-1.34-11.11-9.92-15.94z"/><path class="f" d="M84.51 127.48l.12-.38a23.48 23.48 0 0 1 1.33-3.48 15.19 15.19 0 0 1 3.36-4.69 11.06 11.06 0 0 1 3.56-2.2 12.08 12.08 0 0 1 4.74-.73c.56 0 1 .07 1.21.08a9.69 9.69 0 0 1 3.14.68c5.36 2.22 5.94 9.17 5.79 12.38a37.74 37.74 0 0 1-.38 3.72 25.3 25.3 0 0 1-.58 2.79 12.86 12.86 0 0 1-1 2.79l-.86 2.79-.31 1a19.06 19.06 0 0 0-.55 3.37c-.41 4.31-.45 10.49-.45 10.49l.22 2.71.36 4.39.38 4.54c.72 7.48-6.69 8.3-6.69 8.3-10.66 1.4-10.79-6.89-10.79-6.89 0-.32-.11-3-.25-6-.07-1.48-.15-3-.22-4.38-.11-2.19-.2-3.86-.2-3.86l-1-9.39-.22-2.17v.48a20.25 20.25 0 0 0-.38-2.25c-.31-1.53-.73-3.58-1.06-5.35 0-.21-.08-.41-.11-.62a16.8 16.8 0 0 1-.17-2.28 19.26 19.26 0 0 1 1.01-5.84z"/><path class="j" d="M90.82 167.55a2.3 2.3 0 0 1 2.29 2.25 2.27 2.27 0 0 1-2.31 2.25 2.25 2.25 0 1 1 0-4.5zm-.08-17.58a2.25 2.25 0 1 1-2.31 2.26 2.28 2.28 0 0 1 2.31-2.26zm-.06-13.08a2.3 2.3 0 0 1-2.33-2.25 2.27 2.27 0 0 1 2.31-2.25 2.25 2.25 0 1 1 0 4.5zm-.08-17.59a2.43 2.43 0 0 1-1.28-.37 11.06 11.06 0 0 1 3.56-2.2 1.75 1.75 0 0 1 0 .32 2.28 2.28 0 0 1-2.28 2.25zm9.31 48.24a2.25 2.25 0 1 1-2.32 2.25 2.29 2.29 0 0 1 2.32-2.25zm-.06-13.09a2.25 2.25 0 1 1 2.31-2.26 2.3 2.3 0 0 1-2.31 2.26zm-.08-17.58a2.25 2.25 0 1 1 2.31-2.26 2.31 2.31 0 0 1-2.31 2.26zm2.2-20.11a2.48 2.48 0 0 1 0 .27 2.33 2.33 0 1 1-4.38-1c.56 0 1 .07 1.21.08a9.69 9.69 0 0 1 3.17.65zm-13.38 44.26a2.25 2.25 0 0 1-1.74 2.17c-.07-1.48-.15-3-.22-4.38a2.28 2.28 0 0 1 1.96 2.21zm6.75-2.27a2.25 2.25 0 1 1-2.31 2.26 2.29 2.29 0 0 1 2.31-2.26zm6.77 2.24a2.26 2.26 0 0 1 1.72-2.17l.36 4.39a2.28 2.28 0 0 1-2.08-2.22zm-13.6-17.56a2.28 2.28 0 0 1-2.31 2.26 2.26 2.26 0 0 1-.74-.13l-.22-2.17v.48a20.25 20.25 0 0 0-.38-2.25 2.33 2.33 0 0 1 3.68 1.81zm6.77 2.24a2.3 2.3 0 0 1-2.33-2.25 2.32 2.32 0 1 1 2.33 2.25zm6.75-2.27a2.28 2.28 0 0 1 2.32-2.25 2.18 2.18 0 0 1 .57.08l-.31 1a19.06 19.06 0 0 0-.55 3.37 2.27 2.27 0 0 1-2.03-2.2zm-13.6-17.55a2.34 2.34 0 0 1-3.92 1.63l.12-.38a23.48 23.48 0 0 1 1.33-3.48h.15a2.29 2.29 0 0 1 2.32 2.23zm6.77 2.23a2.25 2.25 0 1 1 2.31-2.25 2.28 2.28 0 0 1-2.31 2.25zm9.07-4.51a2.25 2.25 0 1 1-2.32 2.25 2.29 2.29 0 0 1 2.32-2.25z"/><path class="k" d="M94.67 127.25s-.82-1.91.49-2.07h.27c1.32.16.49 2.07.49 2.07 8.59 4.83 9.85 11.5 9.94 15.94.13 5.69-2.79 9.76-4.46 10.31a1.78 1.78 0 0 1-1.9-3c1.67-1.49 4.1-2.37 4-7.57-.14-6-6.89-10.7-8.19-11.56-1.31.86-8.06 5.59-8.19 11.56-.12 5.2 2.32 6.08 4 7.57a1.78 1.78 0 0 1-1.9 3c-1.66-.55-4.58-4.62-4.46-10.31.07-4.44 1.35-11.11 9.91-15.94zm158.1-.02l50.18 20.79a192.33 192.33 0 0 1-1.24-20.79 192 192 0 0 1 1.24-20.78z"/><path class="f" d="M252.77 127.23l50.18-20.78a191.32 191.32 0 0 1-15.58-13.82 190.38 190.38 0 0 1-13.81-15.58z"/><path d="M257.66 164.09l50.18-20.78a191.32 191.32 0 0 1-15.58-13.82 190.38 190.38 0 0 1-13.81-15.58z" transform="translate(-4.89 -36.86)" fill="url(#a)"/><path class="k" d="M252.77 127.23l20.79-50.18a190.58 190.58 0 0 1-20.79 1.25 190.51 190.51 0 0 1-20.78-1.25z"/><path class="f" d="M252.77 127.23l-20.78-50.18a189.42 189.42 0 0 1-13.82 15.58 192.52 192.52 0 0 1-15.57 13.82z"/><path d="M257.66 164.09l-20.78-50.18a189.42 189.42 0 0 1-13.82 15.58 192.52 192.52 0 0 1-15.57 13.82z" transform="translate(-4.89 -36.86)" fill="url(#b)"/><path class="k" d="M252.77 127.23l-50.17-20.78a192 192 0 0 1 1.24 20.78 190.82 190.82 0 0 1-1.25 20.79z"/><path class="f" d="M252.77 127.23l-50.18 20.79a173.71 173.71 0 0 1 29.4 29.39z"/><path d="M257.66 164.09l-50.18 20.79a173.71 173.71 0 0 1 29.4 29.39z" transform="translate(-4.89 -36.86)" fill="url(#c)"/><path class="k" d="M252.77 127.23l-20.78 50.18a173.43 173.43 0 0 1 41.57 0z"/><path class="f" d="M252.77 127.23l20.79 50.18a192.3 192.3 0 0 1 13.81-15.58 190.38 190.38 0 0 1 15.58-13.81z"/><path d="M257.66 164.09l20.79 50.18a192.3 192.3 0 0 1 13.81-15.58 190.38 190.38 0 0 1 15.58-13.81z" transform="translate(-4.89 -36.86)" fill="url(#d)"/><path d="M257.53 127.24a4.76 4.76 0 1 1-4.76-4.76 4.75 4.75 0 0 1 4.76 4.76z" fill="#f7f1ea"/><path class="c" d="M32.11 18.31a7.33 7.33 0 0 0-2.78-4c-2.45-1.76-5.08-1.42-7.54.19a5.82 5.82 0 0 1 4.23-2.36 6.39 6.39 0 0 1 6.19 3.1 6.42 6.42 0 0 1 6.41-2.62 5.76 5.76 0 0 1 4.06 2.75c-2.31-1.82-4.92-2.34-7.5-.8a7.39 7.39 0 0 0-3.07 3.74zm230.66 9.99a7.79 7.79 0 0 1 3.22-3.95c2.69-1.63 5.41-1.12 7.84.76a6 6 0 0 0-4.25-2.84 6.69 6.69 0 0 0-6.7 2.81 6.73 6.73 0 0 0-6.51-3.23 6 6 0 0 0-4.43 2.57c2.54-1.72 5.3-2.08 7.88-.28a7.7 7.7 0 0 1 2.95 4.16zm30.72-20.37a9.61 9.61 0 0 0-3.92-4.88c-3.29-2-6.63-1.39-9.66.91a7.49 7.49 0 0 1 5.28-3.48 8.2 8.2 0 0 1 8.19 3.5 8.26 8.26 0 0 1 8-3.94 7.52 7.52 0 0 1 5.44 3.18c-3.14-2.11-6.49-2.57-9.69-.38a9.73 9.73 0 0 0-3.64 5.09z"/><path class="f" d="M203.35 165.42l.47-.65a4.11 4.11 0 0 0-.92-5.72 3.93 3.93 0 0 0-1-.52 5.34 5.34 0 0 1-.89 4.19l-.47.65a4.1 4.1 0 0 0 .92 5.72 3.93 3.93 0 0 0 1 .52 5.31 5.31 0 0 1 .89-4.19z"/><path class="f" d="M198.76 167.47l-.47-.65a4.09 4.09 0 0 0-5.72-.9 3.94 3.94 0 0 0-.81.82 5.3 5.3 0 0 1 3.71 2.14l.47.64a4.09 4.09 0 0 0 5.72.9 4.14 4.14 0 0 0 .81-.81 5.3 5.3 0 0 1-3.71-2.14z"/><path class="f" d="M199.28 172.47l-.77.25a4.1 4.1 0 0 0-2.61 5.16 4 4 0 0 0 .52 1 5.31 5.31 0 0 1 3.18-2.87l.77-.25a4 4 0 0 0 2.09-6.18 5.32 5.32 0 0 1-3.18 2.89z"/><path class="f" d="M204.2 173.51v.81a4.11 4.11 0 0 0 4.1 4.09 4 4 0 0 0 1.14-.19 5.33 5.33 0 0 1-1.75-3.91v-.8a4.08 4.08 0 0 0-4.1-4.08 3.93 3.93 0 0 0-1.13.18 5.29 5.29 0 0 1 1.74 3.9z"/><path class="f" d="M208.56 166.08l-.77-.25a4.09 4.09 0 0 0-5.15 2.64 4 4 0 0 0-.18 1.14 5.27 5.27 0 0 1 4.25-.45l.76.24a4.09 4.09 0 0 0 5.15-2.63 4 4 0 0 0 .18-1.14 5.31 5.31 0 0 1-4.24.45zm95.82-5.36l.64-.87a5.48 5.48 0 0 0-1.23-7.65 5.72 5.72 0 0 0-1.37-.7 7.17 7.17 0 0 1-1.19 5.61l-.64.87a5.42 5.42 0 0 0 2.6 8.36 7.14 7.14 0 0 1 1.19-5.62z"/><path class="f" d="M298.23 163.47l-.64-.87a5.49 5.49 0 0 0-7.66-1.2 5.57 5.57 0 0 0-1.08 1.09 7.13 7.13 0 0 1 5 2.87l.64.87a5.49 5.49 0 0 0 7.66 1.2 5.31 5.31 0 0 0 1.08-1.09 7.15 7.15 0 0 1-5-2.87z"/><path class="f" d="M298.94 170.14l-1 .34a5.49 5.49 0 0 0-3.51 6.91 5.21 5.21 0 0 0 .7 1.37 7.15 7.15 0 0 1 4.26-3.84l1-.33a5.49 5.49 0 0 0 3.5-6.92 5.31 5.31 0 0 0-.7-1.36 7.12 7.12 0 0 1-4.25 3.83z"/><path class="f" d="M305.53 171.56v1.08a5.49 5.49 0 0 0 5.49 5.48 5.56 5.56 0 0 0 1.52-.25 7.14 7.14 0 0 1-2.34-5.24v-1.07a5.48 5.48 0 0 0-5.49-5.48 5.26 5.26 0 0 0-1.52.25 7.11 7.11 0 0 1 2.34 5.23z"/><path class="f" d="M311.36 161.6l-1-.33a5.42 5.42 0 0 0-7.14 5.06 7.11 7.11 0 0 1 5.7-.61l1 .34a5.42 5.42 0 0 0 7.14-5.06 7.1 7.1 0 0 1-5.7.6z"/></svg>