<svg xmlns="http://www.w3.org/2000/svg" viewBox="0 0 663.7 186.87"><path d="M75.86 44.58L0 0v78.84l75.86-34.26zm12.92 7.59L0 139.75v47.12l159-93.44-70.22-41.26zm163.63 10.42v23.1h46.34v22.95h-46.34v36h-29.7v-105h82.34v22.95zm129 8.63q10.64 9.22 10.65 28.27v45.15h-26.55v-10.5q-6.16 11.85-24 11.85a37.53 37.53 0 0 1-16.35-3.3 24.24 24.24 0 0 1-10.43-8.92 23.66 23.66 0 0 1-3.52-12.83q0-11.55 8.85-17.92t27.3-6.38h16.2q-.76-12.9-17.25-12.9a39.53 39.53 0 0 0-11.85 1.88 31.47 31.47 0 0 0-10.2 5.17l-9.6-19.35a53.14 53.14 0 0 1 16.42-7A78.08 78.08 0 0 1 350.51 62q20.25 0 30.9 9.22zm-23.25 54.37a13.46 13.46 0 0 0 5.4-7v-7.05h-12.3q-12.46 0-12.45 8.25a7.23 7.23 0 0 0 2.85 6c1.89 1.5 4.5 2.25 7.8 2.25a15.79 15.79 0 0 0 8.7-2.45zm136.05-62.25l-33.6 81.3h-29.4l-33.46-81.3H427L446.5 113l20.56-49.65zm4.94 32.03a54.74 54.74 0 0 1 17.63-21.9q11.78-8.78 28.72-8.78 13.05 0 19.88 6.6t6.82 18.9a63.24 63.24 0 0 1-5.85 25.88A54.71 54.71 0 0 1 548.73 138Q537 146.75 520 146.74q-13.05 0-19.87-6.6t-6.83-18.9a63.19 63.19 0 0 1 5.85-25.87zm35-16.43a127.71 127.71 0 0 0-11.17 27.23q-4.73 16-4.73 29.17a21.66 21.66 0 0 0 .68 6.53c.45 1.25 1.17 1.87 2.17 1.87q4.05 0 10.43-10.87a122.34 122.34 0 0 0 11.1-26.63 104 104 0 0 0 4.72-29.85q0-5.25-.67-7c-.45-1.15-1.08-1.73-1.88-1.73q-4.25.03-10.7 11.28zm125.65 41.4h2.85l-3.75 11q-5.4 15.45-21.45 15.45-9.6 0-13.5-5.4a13.74 13.74 0 0 1-2.55-8.4 39.48 39.48 0 0 1 2.4-12l12.9-38.85a18.4 18.4 0 0 0 1.2-5.85q0-2.25-1.5-2.25-3.9 0-10 10.5a192.14 192.14 0 0 0-12.52 26.85 303.11 303.11 0 0 0-10.73 32.85v-.3l-.15.75h-26.6l18.3-65.1a17.37 17.37 0 0 0 .9-4.35q0-1.95-2.25-1.95a5.84 5.84 0 0 0-4.35 2.1q-1.95 2.1-3.9 7.35l-3.45 9.15h-2.85l4.2-11.7q2.85-8 7.8-11.7t12.75-3.75q8.4 0 12.08 3.9a14.26 14.26 0 0 1 3.67 10.2 27.24 27.24 0 0 1-.9 6.9l-4 15.6q5.85-14.7 11.18-22.57t10.87-11a25.56 25.56 0 0 1 12.6-3.08q14.7 0 14.7 12.45a35.16 35.16 0 0 1-2 10.2l-14.85 44.55a15.08 15.08 0 0 0-.75 3.6q0 2.7 2.55 2.7 4.35 0 8-9.45z" fill="#f6b24d"/></svg>