<svg id="Layer_1" xmlns="http://www.w3.org/2000/svg" viewBox="0 0 1024 1280"><style>.st0,.st1{display:none;stroke:#000;stroke-width:40;stroke-miterlimit:10}.st1{fill:none}</style><path class="st0" d="M69 376.9l446.3-335 445.7 335v623.2H669.9l-.1-373.9-304.8-.1v374H69z"/><path class="st0" d="M694 225.4c0 102.7-83.3 186-186 186s-186-83.3-186-186 83.3-186 186-186 186 83.3 186 186zm106 540.2c0-141.4-114.6-256-256-256h-72c-141.4 0-256 114.6-256 256v228h584v-228z"/><path class="st1" d="M998.8 161v696h-968V161h968zm-968 0l398 387s86 95 190 0l380-387m0 696L655 509.6M30.8 857l359.7-347.4"/><path class="st0" d="M318.6 415.8s96 189 288 288c0 0 21.3 6.2 45.3-17.8l37.5-36s25.5-39 87-7.5l174 102s61.5 25.5 0 85.5l-114 115.5s-25.5 48-153 19.5c0 0-433.8-114.2-622.8-612.3 0 0-42-90 18-162l126-127s51.3-42.2 76.8 17.8l93 177s34.5 40.5-9 85.5l-39 36c0 .1-20.7 13.1-7.8 35.8z"/><path class="st1" d="M59.8 407.1h900M344.8 257c25.5-145.6 161.9-137.9 161.9-137.9S643.3 108.4 674.8 257m241 0h-812c-24.3 0-44 19.7-44 44v568c0 24.3 19.7 44 44 44h812c24.3 0 44-19.7 44-44V301c0-24.3-19.7-44-44-44zm-283 205c0 24.3-19.7 44-44 44h-158c-24.3 0-44-19.7-44-44v-55h246v55z"/><path class="st1" d="M984.9 271.8v471.1c0 56.3-45.7 102-102 102H147.8c-56.3 0-102-45.7-102-102V175.8h741.1v565.1s-5.8 104 85.7 104.7m10.5-572.5v506.7m-744.3-457h543.1m-.1 122h-543m0 122h306m0 122h-306"/><path class="st0" d="M367.8 794.1c0 92.2-74.7 166.9-166.9 166.9S34 886.3 34 794.1s74.7-166.9 166.9-166.9c92.1 0 166.9 74.7 166.9 166.9zM561.2 24.6c-84.3 0-152.7 68.4-152.7 152.7 0 84.3 68.4 152.7 152.7 152.7 84.3 0 152.7-68.4 152.7-152.7-.1-84.4-68.4-152.7-152.7-152.7zm307 706.4c-73.1 0-132.3 59.2-132.3 132.3s59.2 132.3 132.3 132.3 132.3-59.2 132.3-132.3S941.3 731 868.2 731zM735.9 863.3l-370.6-40.5M475.9 304L272.3 643.2"/><path class="st0" d="M598 926.8c0 41.5-33.7 75.2-75.2 75.2s-75.2-33.7-75.2-75.2V373c0-41.5 33.7-75.2 75.2-75.2S598 331.5 598 373v553.8zM522.8 24.3c-52.9 0-95.7 42.9-95.7 95.7 0 52.9 42.9 95.7 95.7 95.7s95.7-42.9 95.7-95.7c.1-52.8-42.8-95.7-95.7-95.7z"/><path class="st0" d="M529.8 130.8L49.8 512l480 371.9V694.8l438.1-1v-365H529.8z"/><path class="st0" d="M487 883.9l480-381.3-480-371.8v189l-438 1v365h438z"/><path class="st1" d="M991.9 513.4c0 263.8-213.9 477.7-477.7 477.7S36.4 777.3 36.4 513.4c0-263.8 213.9-477.7 477.7-477.7s477.8 213.9 477.8 477.7zm-257.2 3.2h-437m200.1 188.8L293.6 516.6l204.2-195.2"/><path class="st1" d="M36.4 513.4c0-263.8 213.9-477.7 477.7-477.7s477.7 213.9 477.7 477.7c0 263.8-213.9 477.7-477.7 477.7S36.4 777.3 36.4 513.4zm257.2-3.2h437M530.5 321.4l204.2 188.8-204.2 195.2"/><path class="st1" d="M514.2 763.4l-.2-500m250.2 249.9l-500 .2m725.5-1.5c0 263.8-213.9 477.7-477.7 477.7S34.3 775.8 34.3 512 248.2 34.3 512 34.3 989.7 248.2 989.7 512z"/><path class="st1" d="M764.2 513.3l-500 .2m725.5-1.5c0 263.8-213.9 477.7-477.7 477.7S34.3 775.8 34.3 512C34.3 248.2 248.2 34.3 512 34.3S989.7 248.2 989.7 512z"/><path class="st1" d="M690.9 336.6L337.4 690.2m-.1-353.5L691 690.1M989.7 512c0 263.8-213.9 477.7-477.7 477.7S34.3 775.8 34.3 512 248.2 34.3 512 34.3 989.7 248.2 989.7 512z"/><circle class="st1" cx="453.9" cy="452.1" r="415.8"/><path class="st0" d="M719.1 773.2l204.7 215.2 55.9-55.9L774 716.2"/><circle class="st1" cx="457" cy="451.7" r="415.8"/><path class="st0" d="M722.2 772.9l204.7 215.2 55.9-56-205.7-216.2"/><path class="st1" d="M457 610.7v-318m-159 159h318"/><circle class="st1" cx="457" cy="451.7" r="415.8"/><path class="st0" d="M722.2 772.9l204.7 215.2 55.9-56-205.7-216.2"/><path class="st1" d="M298 451.7h318"/><path fill="#3bc2d6" stroke="#3bc2d6" stroke-width="40" stroke-miterlimit="10" d="M517.3 67.9l140.8 288.4L985 407.6 751.1 651.1l51.2 320.4-285-150.6-291.8 150.6 57.7-320.4L46.1 407.6l330-51.3z"/><path class="st1" d="M513.4 141s277.1-171.5 441.1 60.5c0 0 113.2 181-19.3 387.3 0 0-104.6 197.2-421.7 363.5 0 0-287.5-143.6-411.2-347.4 0 0-140.3-188.7-36.2-392.1 0 0 120.9-247.3 447.3-71.8z"/><path class="st1" d="M129 851l132-348s20-76 68-74 630 1 630 1 60 7 40 67L863 851H129zm750-490s0-50-56-54H395l-66-120H73s-46 0-48 54v492s6 54 56 54"/><path class="st1" d="M721.2 224.4h173.1c55.2 0 100 44.8 100 100V752c0 55.2-44.8 100-100 100h-761c-55.2 0-100-44.8-100-100V324.4c0-55.2 44.8-100 100-100h174.1m432-2.2c0-55.2-44.8-105.9-100-105.9H388.3c-55.2 0-100 50.7-100 105.9M513.8 317c-122.1 0-221.1 99-221.1 221.1s99 221.1 221.1 221.1S735 660.3 735 538.2 636 317 513.8 317z"/><path class="st1" d="M639.9 44.5l-81.7 95.6h-80l-79.4-97.4-120.6 47.9v131.6l-64 60-120-8.8-48 117.4 95.9 77.4v92L48 643.6l44.5 107.9h135.6l50 61.6-12.1 117L398.8 985l69.4-94.9h100l71.7 91.9 124.9-51.4L750 810.1l58.2-58.6h131l44.5-107.9-99.5-85.5v-94l101.3-73.4-52.6-125.4-120.7 16.8-62.2-60V88.6L639.9 44.5zm-124 246c-123.4 0-223.4 100-223.4 223.4s100 223.4 223.4 223.4 223.4-100 223.4-223.4-100.1-223.4-223.4-223.4z"/><path class="st1" d="M680.9 570.2c0 88.9-72.1 161-161 161s-161-72.1-161-161V189c0-88.9 72.1-161 161-161s161 72.1 161 161v381.2zm-422.5-2.9c0 144.5 117.1 261.6 261.6 261.6 144.5 0 261.6-117.1 261.6-261.6M520 998V828.9M352.7 998h334.5"/><path class="st1" d="M58.2 872.2V586.9c0-267.2 204.2-483.8 456.1-483.8 251.9 0 456.1 216.6 456.1 483.8v285.3m-722.5-346c0-37.4-28.5-67.6-63.8-67.6-35.2 0-63.8 30.3-63.8 67.6v331.2c0 37.4 28.5 67.6 63.8 67.6 35.2 0 63.8-30.3 63.8-67.6V526.2zm660.3 0c0-37.4-28.5-67.6-63.8-67.6-35.2 0-63.8 30.3-63.8 67.6v331.2c0 37.4 28.5 67.6 63.8 67.6 35.2 0 63.8-30.3 63.8-67.6V526.2z"/><path class="st1" d="M415 686H193V344h222L723 82s66-40 66 40v780s-2 90-72 42L415 686z"/><path class="st1" d="M354.7 282.5L594 79s66-40 66 40v457M286 341H64v342h222l302 258c70 48 72-42 72-42V706M78 69l890 886"/><path class="st1" d="M161 54v923l744-465z"/><path class="st1" d="M390 860H238V164h152v696zm396-696H634v696h152V164z"/><path class="st1" d="M567 51h406v418L467 967 61 563 567 51zm244 103c-36.5 0-66 29.5-66 66s29.5 66 66 66 66-29.5 66-66-29.5-66-66-66z"/><path class="st1" d="M517.7 21v988M256.9 695c29.9 208 260.7 186 260.7 186C807 881.7 771 679 771 679c-10-148-253.3-167-253.3-167C246.4 489 257 321 257 321c-.1-204 260.7-190 260.7-190C748.4 129 771 321 771 321"/><path class="st1" d="M320 245h662L808 659H370L206 245H20m402 484c-26 0-47 21-47 47s21 47 47 47 47-21 47-47-21-47-47-47zm332 0c-26 0-47 21-47 47s21 47 47 47 47-21 47-47-21-47-47-47z"/><path class="st1" d="M865.6 376.8c0 48.3-9.8 94.4-27.5 136.3C785 638.7 515.5 987.3 515.5 987.3S246 638.7 192.9 513.1c-17.7-41.9-27.5-87.9-27.5-136.3 0-193.4 156.8-350.1 350.1-350.1s350.1 156.7 350.1 350.1zM515.5 203.1c-86.4 0-156.4 70-156.4 156.4s70 156.4 156.4 156.4 156.4-70 156.4-156.4-70-156.4-156.4-156.4z"/><path class="st1" d="M279 159l233 92 245-92 156 56 80 644-236-96-243.5 96L279 757 31 859l86-644 162-56zm233 92l.5 608M279 159v598m478-598v604"/><path class="st1" d="M904.1 512c0 216.5-175.6 392-392.1 392S119.9 728.5 119.9 512 295.4 119.9 512 119.9 904.1 295.5 904.1 512zM512 242.8v-229m0 983v-229M20.5 512h229m525 0h229M512 414.3c-53.9 0-97.7 43.7-97.7 97.7s43.7 97.7 97.7 97.7 97.7-43.7 97.7-97.7c0-53.9-43.8-97.7-97.7-97.7z"/><path class="st1" d="M738.5 773.1c0 125.1-101.4 226.5-226.5 226.5S285.5 898.2 285.5 773.1V392c0-125.1 101.4-226.5 226.5-226.5S738.5 266.9 738.5 392v381.1zm-187-450.4c0-21.8-17.7-39.5-39.5-39.5s-39.5 17.7-39.5 39.5V503c0 21.8 17.7 39.5 39.5 39.5s39.5-17.7 39.5-39.5V322.7zM512 165.6s3.3-112.3-90.8-141.2"/><path class="st1" d="M1000.6 327.4v548.7c0 71.2-57.7 128.9-128.9 128.9H166.1c-71.2 0-128.9-57.7-128.9-128.9V157.9C37.2 86.7 94.9 29 166.1 29H671M409 454.2l161.1 163 422.1-419.3L832 37.6 409 454.2zm-33 65.7l-46.2 176.3 174.9-43.4L376 519.9z"/><path class="st1" d="M514.2 526.4l-.2-403m227.2 619.9l-229-229.8m477.5-1.5c0 263.8-213.9 477.7-477.7 477.7S34.3 775.8 34.3 512C34.3 248.2 248.2 34.3 512 34.3S989.7 248.2 989.7 512z"/><path class="st1" d="M1004.5 878c0 37-30 67-67 67h-846c-37 0-67-30-67-67V236c0-37 30-67 67-67h846c37 0 67 30 67 67v642zm-785-811v186m590-186v186M306.8 410.5h-122v122h122v-122zm266 122h-122v-122h122v122zm271.5 0h-122v-122h122v122zm-539 120h-122v122h122v-122zm266 122h-122v-122h122v122zm271.5 0h-122v-122h122v122z"/><path class="st1" d="M878.8 527.5c0 204.5-165.8 370.3-370.3 370.3S138.2 732 138.2 527.5 304 157.2 508.5 157.2 878.8 323 878.8 527.5zm-562.4 0H521v-236M821.1 1011L707.4 841.8M195.9 1011l119.9-169.2M355 24.5C134.7 85.3 63.4 278.3 63.4 278.3M668.6 24.5c220.3 60.8 291.6 253.8 291.6 253.8"/><path class="st1" d="M761.4 933.7c0 36.7-29.8 66.5-66.5 66.5h-379c-36.7 0-66.5-29.8-66.5-66.5V90.3c0-36.7 29.8-66.5 66.5-66.5h379c36.7 0 66.5 29.8 66.5 66.5v843.4zm3-770H246.5m0 674.7h517.9m-259 47.5c-18.1 0-32.8 14.7-32.8 32.8 0 18.1 14.7 32.8 32.8 32.8 18.1 0 32.8-14.7 32.8-32.8 0-18.1-14.6-32.8-32.8-32.8zm68.5-794.6H437"/><path class="st1" d="M914.9 689.9c0 18.3-14.8 33.1-33.1 33.1H142.3c-18.3 0-33.1-14.8-33.1-33.1V220.8c0-18.3 14.8-33.1 33.1-33.1h739.5c18.3 0 33.1 14.8 33.1 33.1v469.1zm60.6 116.5c0-16.6-13.4-30-30-30h-867c-16.6 0-30 13.4-30 30s13.4 30 30 30h867.1c16.5 0 29.9-13.4 29.9-30z"/><path class="st1" d="M987.5 706c0 21.5-17.5 39-39 39h-873c-21.5 0-39-17.5-39-39V205c0-21.5 17.5-39 39-39h873.1c21.5 0 39 17.5 39 39v501zm-174 125c0-14.9-12.1-27-27-27h-549c-14.9 0-27 12.1-27 27s12.1 27 27 27h549.1c14.8 0 26.9-12.1 26.9-27z"/><path class="st1" d="M851.4 958.7c0 23.4-19 42.4-42.4 42.4H218.9c-23.4 0-42.4-19-42.4-42.4V65.3c0-23.4 19-42.4 42.4-42.4H809c23.4 0 42.4 19 42.4 42.4v893.4zM514 440.2c-134.1 0-242.9 108.7-242.9 242.9C271.1 817.2 379.8 926 514 926s242.9-108.8 242.9-243c0-134.1-108.8-242.8-242.9-242.8zm0 149.9c-51.3 0-92.9 41.6-92.9 92.9 0 51.3 41.6 92.9 92.9 92.9 51.3 0 92.9-41.6 92.9-92.9 0-51.3-41.6-92.9-92.9-92.9zm0-488.6c-64.5 0-116.8 52.3-116.8 116.8S449.5 335.2 514 335.2s116.8-52.3 116.8-116.8S578.5 101.5 514 101.5z"/><path class="st1" d="M280.6 800.4H62.5c-22.1 0-40.1-18-40.1-40.1V294.4c0-22.1 18-40.1 40.1-40.1h219.1m464.3 546.1h217.5c22.1 0 40.1-18 40.1-40.1V294.4c0-22.1-18-40.1-40.1-40.1H750.9M747.4 680h-472l3 262.3h472l-3-262.3zm1.5-602.3h-472v302.8h472V77.7zm254.6 372.7H22.4M344 762.6h338.4m-338.7 93.7h338.4"/><path class="st1" d="M927.9 828.7c0 92.3-74.8 167.1-167.1 167.1H263.5c-92.3 0-167.1-74.8-167.1-167.1V532.5c0-92.3 74.8-167.1 167.1-167.1h497.3c92.3 0 167.1 74.8 167.1 167.1v296.2zM719.3 293.9v-58c0-114.4-92.7-207.1-207.1-207.1-114.4 0-207.1 92.7-207.1 207.1v58m207.1 278.6c-59.7 0-108.1 48.4-108.1 108.1 0 59.7 48.4 108.1 108.1 108.1 59.7 0 108.1-48.4 108.1-108.1-.1-59.7-48.4-108.1-108.1-108.1zM265.5 282.7L22.6 525.6m243.1 215.7L22.8 498.4M340 852.2l347-680.5m317.3 353.9L761.4 282.7m242.7 215.7L761.2 741.3"/><path class="st1" d="M516.2 27l381.1 75.6v522.8s8.4 197.4-381.1 371.6c0 0-343.3-121.8-389.5-363.2V104.7L516.2 27zM314.7 459.9l132.9 132.9 261.6-261.6"/><path class="st1" d="M1021 893.6H33V130.4m249.3 268.7H172.4v381.6h109.9V399.1zm297.5-161.7H469.9v543.2h109.9V237.4zM845 350.6H735v430.1h110V350.6z"/><path class="st1" d="M877.4 998.9H145.8V26h466.7l265 268.9v704zM613.2 25.1l1 270.9h265M514.6 153.3h-283m283 142.8h-283m559.9 142.8H231.7m559.8 142.8H231.7m559.8 142.7H231.7m559.8 142.8H231.7"/><path class="st1" d="M994 1003.9H65.5V23h724.2L994 237.4v766.5zM777.2 23h-495v281.5h495V23zm25.4 658.6H256.8m0 156.1h545.8"/><path class="st1" d="M27.1 524C124.3 683.5 305.9 790.8 514 790.8c208.1 0 389.7-107.3 486.9-266.8C903.1 366.6 720.4 257.1 514 257.1c-207.7 0-389.1 106.9-486.4 266l-.5.9zm629 0c0 78.5-63.6 142.1-142.1 142.1S371.9 602.5 371.9 524 435.5 381.9 514 381.9 656.1 445.5 656.1 524z"/><path class="st1" d="M855.1 536.2c0 147.6-119.7 267.3-267.3 267.3H448.2c-147.6 0-267.3-119.7-267.3-267.3V377.4h674.2v158.8zM368.6 76.8c0-26.5-21.5-48.1-48.1-48.1-26.5 0-48.1 21.5-48.1 48.1v300.8h96.1V76.8zm394.9 300.8h-96.1V76.8c0-26.5 21.5-48.1 48.1-48.1 26.5 0 48.1 21.5 48.1 48.1l-.1 300.8zM521.6 803.5C518.8 949 571.3 1009 571.3 1009"/><path class="st1" d="M436.8 31H777L562.1 335.4H777L264.9 904.8l175.5-386.7H247z"/><path class="st1" d="M864.2 863.2c0 36.3-29.5 65.8-65.8 65.8H89.6c-36.3 0-65.8-29.5-65.8-65.8v-561c0-36.3 29.5-65.8 65.8-65.8h708.7c36.3 0 65.8 29.5 65.8 65.8v561zM776.5 809L624.1 485.7 434.8 721.2 296.3 568.9 111.6 809h664.9zM282.4 407.3c0 28.1-22.7 50.8-50.8 50.8s-50.8-22.7-50.8-50.8c0-28 22.7-50.8 50.8-50.8 28.1 0 50.8 22.7 50.8 50.8zm653.9 383.9c36.3 0 65.8-29.5 65.8-65.8v-561c0-36.3-29.5-65.8-65.8-65.8H227.6c-36.3 0-65.8 29.5-65.8 65.8"/><path class="st1" d="M720.8 750.5c0 38.7-31.3 70-70 70h-558c-38.7 0-70-31.3-70-70V301.1c0-38.7 31.3-70 70-70h558c38.7 0 70 31.3 70 70v449.4zm280.6-463.7L720.8 403.7v244.1l280.7 116.9V286.8z"/><path class="st1" d="M313.5 826.4v-646l689.3-72.2v718.2M169.1 689.2c-79.7 0-144.4 56.6-144.4 126.3s64.6 126.3 144.4 126.3 144.4-56.6 144.4-126.3-64.6-126.3-144.4-126.3zm689.7 1c-79.7 0-144.4 56.6-144.4 126.3S779 942.8 858.8 942.8c79.7 0 144.4-56.6 144.4-126.3s-64.7-126.3-144.4-126.3zM313.5 338l689.3-72.2"/><path class="st1" d="M290.3 907.1H27V643.8m712.5 263.3h263.3V643.8m-712.5-539H27v263.3m975.9 0V104.8H739.5"/><path class="st1" d="M7.5 655.3h273.8v273.8m741-273.8H748.5v273.8M7.5 368.7h273.8V94.8m467.2 0v273.9h273.9"/><path class="st1" d="M159.3 844.7H35V553.2h124.3v291.5zm277.9-441.5H312.9v441.5h124.3V403.2zm277.9-128.6H590.8v570.1h124.3V274.6zM993 146H868.7v698.7H993V146z"/><path class="st1" d="M188.6 283.3c0 21.1-17.1 38.2-38.2 38.2H65.2c-21.1 0-38.2-17.1-38.2-38.2V198c0-21.1 17.1-38.2 38.2-38.2h85.3c21.1 0 38.2 17.1 38.2 38.2v85.3zm0 191c0-21.1-17.1-38.2-38.2-38.2H65.2c-21.1 0-38.2 17.1-38.2 38.2v85.3c0 21.1 17.1 38.2 38.2 38.2h85.3c21.1 0 38.2-17.1 38.2-38.2v-85.3zm0 276.5c0-21.1-17.1-38.2-38.2-38.2H65.2c-21.1 0-38.2 17.1-38.2 38.2v85.3c0 21.1 17.1 38.2 38.2 38.2h85.3c21.1 0 38.2-17.1 38.2-38.2v-85.3zm810.1-545H298.3v69.6h700.4v-69.6zm0 276.4H298.3v69.6h700.4v-69.6zm0 276.4H298.3v69.6h700.4v-69.6z"/><path class="st1" d="M435.5 402c0 18.8-15.2 34-34 34h-341c-18.8 0-34-15.2-34-34V61c0-18.8 15.2-34 34-34h341c18.8 0 34 15.2 34 34v341zm565-341c0-18.8-15.2-34-34-34h-341c-18.8 0-34 15.2-34 34v341c0 18.8 15.2 34 34 34h341c18.8 0 34-15.2 34-34V61zm-565 565c0-18.8-15.2-34-34-34h-341c-18.8 0-34 15.2-34 34v341c0 18.8 15.2 34 34 34h341c18.8 0 34-15.2 34-34V626zm565 0c0-18.8-15.2-34-34-34h-341c-18.8 0-34 15.2-34 34v341c0 18.8 15.2 34 34 34h341c18.8 0 34-15.2 34-34V626z"/><path class="st1" d="M830.8 165.6v743.9c0 49.3-40 89.3-89.3 89.3H292.6c-49.3 0-89.3-40-89.3-89.3V165.6m781.8-4.9H49m676.7.1V86.1c0-32.5-26.3-58.8-58.8-58.8H367.3c-32.5 0-58.8 26.3-58.8 58.8v74.6m35.6 126.4v590.1m173 0V287.1M690 877.2V287.1"/></svg>