<?xml version="1.0" standalone="no"?>
<!DOCTYPE svg PUBLIC "-//W3C//DTD SVG 20010904//EN"
 "http://www.w3.org/TR/2001/REC-SVG-20010904/DTD/svg10.dtd">
<svg version="1.0" xmlns="http://www.w3.org/2000/svg"
 width="748.000000pt" height="748.000000pt" viewBox="0 0 748.000000 748.000000"
 preserveAspectRatio="xMidYMid meet">
<metadata>
Created by potrace 1.11, written by Peter Selinger 2001-2013
</metadata>
<g transform="translate(0.000000,748.000000) scale(0.100000,-0.100000)"
fill="#000000" stroke="none">
<path d="M560 5905 c0 -866 3 -1575 6 -1575 4 0 646 289 1428 641 781 353
1459 659 1506 680 47 21 85 42 84 46 -1 6 -2718 1609 -3006 1774 -17 9 -18
-68 -18 -1566z"/>
<path d="M2338 3638 l-1778 -1751 0 -944 c0 -788 2 -943 13 -936 8 4 1439 845
3180 1868 1742 1022 3167 1862 3167 1865 0 5 -2777 1640 -2798 1647 -4 2 -807
-785 -1784 -1749z"/>
</g>
</svg>
