<svg xmlns="http://www.w3.org/2000/svg" xmlns:xlink="http://www.w3.org/1999/xlink" viewBox="0 0 600 600"><defs><style>.a,.b{fill:none;}.a{clip-rule:evenodd;}.c{fill:#723e19;}.aa,.ab,.ac,.c,.h,.i,.o,.p,.q,.r,.s,.t,.u,.v,.w,.x,.y,.z{fill-rule:evenodd;}.d{clip-path:url(#a);}.e{fill:#65523a;}.f{fill:#84481f;}.g{clip-path:url(#b);}.h{fill:#a15641;}.i{fill:#8b452f;}.j{fill:#806a50;}.k,.p{fill:#6d6e70;}.l{fill:#58595b;}.m{fill:#404041;}.n{fill:#58574b;}.o{fill:#d0d2d3;}.q{fill:#f59b1d;}.r{fill:#824737;}.s{fill:#f5ac1e;}.t{fill:#f6bf17;}.u{fill:#f6c917;}.v{fill:#faa819;}.w{fill:#dc9517;}.x{fill:#8b5e3c;}.y{fill:#f09b36;}.z{fill:#f1f2f2;}.aa,.ad{fill:#414042;}.ab{fill:#caebf3;}.ac{fill:#726658;}</style><clipPath id="a"><path class="a" d="M92.65,524.22l12.68,67.9-31.1.19-31.09.19c4.19-24.8,8-46.47,11.85-68.06l12.65-.07Z"/></clipPath><clipPath id="b"><rect class="b" x="62.09" y="517.86" width="23.9" height="83.85" transform="translate(-3.39 0.46) rotate(-0.35)"/></clipPath></defs><title>Artboard 1</title><path class="c" d="M92.65,524.22l12.68,67.9-31.1.19-31.09.19c4.19-24.8,8-46.47,11.85-68.06l12.65-.07Z"/><g class="d"><rect class="e" x="38.86" y="532.69" width="70.04" height="0.59" transform="translate(-3.23 0.46) rotate(-0.35)"/><rect class="e" x="38.91" y="542.14" width="70.04" height="0.59" transform="translate(-3.29 0.46) rotate(-0.35)"/><rect class="e" x="38.97" y="551.58" width="70.04" height="0.59" transform="translate(-3.34 0.46) rotate(-0.35)"/><rect class="e" x="39.03" y="561.02" width="70.04" height="0.59" transform="translate(-3.4 0.46) rotate(-0.35)"/><rect class="e" x="39.08" y="570.47" width="70.04" height="0.59" transform="translate(-3.45 0.46) rotate(-0.35)"/><rect class="e" x="39.14" y="579.91" width="70.04" height="0.59" transform="translate(-3.51 0.46) rotate(-0.35)"/><rect class="e" x="39.2" y="589.36" width="70.04" height="0.59" transform="translate(-3.57 0.46) rotate(-0.35)"/></g><rect class="f" x="62.09" y="517.86" width="23.9" height="83.85" transform="translate(-3.39 0.46) rotate(-0.35)"/><g class="g"><rect class="e" x="38.86" y="532.69" width="70.04" height="0.59" transform="translate(-3.23 0.46) rotate(-0.35)"/><rect class="e" x="38.91" y="542.14" width="70.04" height="0.59" transform="translate(-3.28 0.46) rotate(-0.35)"/><rect class="e" x="38.97" y="551.58" width="70.04" height="0.59" transform="translate(-3.34 0.46) rotate(-0.35)"/><rect class="e" x="39.03" y="561.02" width="70.04" height="0.59" transform="translate(-3.4 0.46) rotate(-0.35)"/><rect class="e" x="39.08" y="570.47" width="70.04" height="0.59" transform="translate(-3.46 0.46) rotate(-0.35)"/><rect class="e" x="39.14" y="579.91" width="70.04" height="0.59" transform="translate(-3.51 0.46) rotate(-0.35)"/><rect class="e" x="39.2" y="589.36" width="70.04" height="0.59" transform="translate(-3.57 0.46) rotate(-0.35)"/></g><polygon class="h" points="61.71 513.63 85.81 513.48 97.94 527.91 49.75 528.2 61.71 513.63"/><polygon class="i" points="95.24 524.69 97.94 527.91 49.75 528.2 52.41 524.95 95.24 524.69"/><rect class="j" x="43.16" y="590.25" width="62.2" height="11.46" transform="translate(-3.61 0.46) rotate(-0.35)"/><rect class="k" x="55.97" y="593.42" width="9.4" height="8.37" transform="matrix(1, -0.01, 0.01, 1, -3.6, 0.38)"/><rect class="l" x="57.73" y="593.44" width="7.64" height="8.35" transform="translate(-3.64 0.39) rotate(-0.35)"/><rect class="l" x="69.32" y="550.32" width="9.4" height="12.49" transform="translate(-3.38 0.46) rotate(-0.35)"/><rect class="l" x="69.32" y="550.32" width="9.4" height="12.49" transform="translate(-3.38 0.46) rotate(-0.35)"/><rect class="m" x="70.39" y="551.39" width="7.25" height="10.33" transform="translate(-3.37 0.46) rotate(-0.35)"/><rect class="l" x="69.43" y="569.66" width="9.4" height="12.49" transform="translate(-3.5 0.46) rotate(-0.35)"/><rect class="l" x="69.43" y="569.66" width="9.4" height="12.49" transform="translate(-3.5 0.46) rotate(-0.35)"/><rect class="m" x="70.51" y="570.74" width="7.25" height="10.33" transform="translate(-3.47 0.46) rotate(-0.35)"/><rect class="n" x="72.9" y="476.55" width="1.96" height="114.02" transform="translate(-357.62 211.15) rotate(-45.35)"/><path class="o" d="M34,492.79l8.74-8.85,38,37.52L72,530.31,34,492.79Zm1.94.47,2.23,2.21,2.17-2.19-2.23-2.2L36,493.26Zm2.45-2.47,2.23,2.2,2.17-2.19-2.23-2.2-2.17,2.19Zm2.52-2.55,2.23,2.21,2.16-2.19-2.23-2.21-2.16,2.19ZM38.71,496l2.23,2.21L43.1,496l-2.23-2.21L38.71,496Zm2.45-2.48,2.23,2.21,2.16-2.19-2.23-2.2-2.16,2.18ZM43.67,491l2.23,2.2L48.06,491l-2.23-2.2L43.67,491Zm-2.21,7.74,2.23,2.21,2.16-2.19-2.23-2.21-2.16,2.19Zm2.45-2.48,2.23,2.21,2.16-2.19L46.07,494l-2.16,2.19Zm2.51-2.54,2.23,2.2,2.16-2.19-2.23-2.2-2.16,2.19Zm-2.21,7.74,2.23,2.21,2.16-2.19-2.23-2.21-2.16,2.19Zm2.45-2.48,2.23,2.21L51.05,499l-2.23-2.21-2.16,2.19Zm2.51-2.54,2.23,2.2,2.17-2.19-2.23-2.2-2.17,2.19ZM47,504.14l2.23,2.21,2.17-2.19L49.13,502,47,504.14Zm2.45-2.48,2.23,2.21,2.17-2.19-2.23-2.21-2.17,2.19Zm2.52-2.54,2.23,2.2,2.16-2.19-2.23-2.2-2.16,2.19Zm-2.21,7.74L52,509.07l2.16-2.19-2.23-2.21-2.16,2.19Zm2.45-2.48,2.23,2.21,2.16-2.19-2.23-2.21-2.16,2.19Zm2.51-2.54,2.23,2.2,2.16-2.19-2.23-2.2-2.16,2.19Zm-2.21,7.74,2.23,2.2,2.16-2.18-2.23-2.21-2.16,2.19Zm2.45-2.48,2.23,2.21,2.16-2.19-2.23-2.21-2.16,2.19Zm2.51-2.54,2.23,2.2,2.17-2.19-2.23-2.2-2.17,2.19Zm-2.21,7.74,2.23,2.2,2.17-2.19-2.23-2.2-2.17,2.19Zm2.45-2.48L59.9,512l2.16-2.19-2.23-2.21-2.16,2.19Zm2.51-2.54,2.23,2.2,2.17-2.19-2.23-2.2-2.17,2.19ZM58,515l2.23,2.2L62.37,515l-2.23-2.2L58,515Zm2.45-2.48,2.23,2.2,2.17-2.19-2.23-2.2-2.17,2.19ZM62.94,510l2.23,2.2L67.33,510l-2.23-2.2L62.94,510Zm-2.21,7.74,2.23,2.2,2.16-2.19-2.23-2.2-2.16,2.19Zm2.45-2.48,2.23,2.2,2.16-2.19-2.23-2.2-2.16,2.19Zm2.51-2.54,2.23,2.2,2.16-2.19-2.23-2.2-2.16,2.19Zm-2.21,7.74,2.23,2.2,2.16-2.19-2.23-2.2-2.16,2.19ZM65.93,518l2.23,2.2L70.32,518l-2.23-2.2L65.93,518Zm2.51-2.54,2.23,2.2,2.17-2.19-2.23-2.2-2.17,2.19Zm-2.21,7.74,2.23,2.2,2.17-2.19L68.4,521l-2.17,2.19Zm2.45-2.48,2.23,2.2,2.17-2.19-2.23-2.2-2.17,2.19Zm2.51-2.54,2.23,2.2,2.17-2.19L73.36,516l-2.17,2.19ZM69,525.9l2.22,2.2,2.17-2.19-2.23-2.2L69,525.9Zm2.44-2.48,2.23,2.2,2.17-2.19-2.23-2.2-2.17,2.19ZM74,520.88l2.23,2.2,2.16-2.19-2.23-2.2Z"/><path class="o" d="M105,583.17l8.75-8.85-38-37.52L67,545.65l38,37.52Zm-.49-1.94-2.23-2.2,2.16-2.19,2.23,2.2-2.16,2.19Zm2.45-2.47-2.23-2.21,2.16-2.19,2.23,2.21L107,578.76Zm2.51-2.55-2.23-2.2,2.16-2.19,2.23,2.2-2.16,2.19Zm-7.72,2.3-2.23-2.2,2.17-2.19,2.23,2.21-2.17,2.18ZM104.2,576,102,573.83l2.17-2.19,2.23,2.21L104.2,576Zm2.52-2.55-2.23-2.2,2.16-2.19,2.23,2.2-2.16,2.19ZM99,575.8l-2.23-2.21,2.16-2.19,2.23,2.21L99,575.8Zm2.45-2.48-2.23-2.21,2.16-2.19,2.23,2.21-2.16,2.19Zm2.51-2.55-2.23-2.2,2.17-2.19,2.23,2.2L104,570.77Zm-7.71,2.31L94,570.87l2.16-2.19,2.23,2.21-2.16,2.19Zm2.45-2.48-2.23-2.21,2.16-2.19,2.23,2.21L98.7,570.6Zm2.51-2.55L99,565.85l2.16-2.19,2.23,2.2-2.16,2.19Zm-7.71,2.31-2.23-2.21L93.43,566l2.23,2.21-2.16,2.19ZM96,567.88l-2.24-2.21,2.17-2.19,2.23,2.21L96,567.88Zm2.51-2.55-2.23-2.2,2.16-2.19,2.23,2.2-2.16,2.19Zm-7.72,2.31-2.23-2.21,2.17-2.19,2.23,2.21-2.17,2.19Zm2.45-2.48L91,563l2.17-2.18,2.23,2.2-2.17,2.19Zm2.52-2.55-2.23-2.2,2.16-2.19,2.23,2.2-2.16,2.19ZM88,564.92l-2.23-2.21,2.16-2.19,2.23,2.21L88,564.92Zm2.45-2.48-2.23-2.2,2.16-2.19,2.23,2.2-2.16,2.19ZM93,559.89l-2.23-2.2,2.17-2.19,2.23,2.21L93,559.89Zm-7.71,2.31L83,560l2.16-2.19L87.4,560l-2.16,2.19Zm2.45-2.48-2.23-2.2,2.16-2.19,2.23,2.2-2.16,2.19Zm2.51-2.54L88,555l2.16-2.19L92.36,555l-2.16,2.19Zm-7.71,2.3-2.24-2.2,2.17-2.19,2.23,2.2-2.16,2.19ZM84.93,557l-2.23-2.2,2.17-2.19,2.23,2.2L84.93,557Zm2.52-2.54-2.23-2.21,2.16-2.19,2.23,2.21-2.16,2.19Zm-7.72,2.3-2.23-2.2,2.17-2.19,2.23,2.2-2.17,2.19Zm2.45-2.48L80,552.08l2.17-2.19,2.23,2.2-2.17,2.19Zm2.52-2.54-2.24-2.21,2.17-2.19,2.23,2.21-2.16,2.19ZM77,554l-2.23-2.2,2.16-2.19,2.23,2.2L77,554Zm2.45-2.48-2.23-2.2,2.16-2.19,2.23,2.2-2.16,2.19ZM81.94,549l-2.23-2.21,2.17-2.19,2.23,2.21L81.94,549Zm-7.71,2.3L72,549.12l2.16-2.19,2.23,2.2-2.16,2.19Zm2.45-2.48-2.23-2.2,2.16-2.19,2.23,2.2-2.16,2.19Zm2.51-2.54L77,544.09l2.16-2.19,2.23,2.21-2.16,2.19Zm-7.72,2.3-2.23-2.2,2.17-2.19,2.23,2.2-2.17,2.19Zm2.45-2.48-2.23-2.2,2.17-2.19,2.23,2.2-2.17,2.19Zm2.52-2.54-2.23-2.21,2.16-2.18,2.23,2.2Z"/><rect class="n" x="16.87" y="532.58" width="114.02" height="1.96" transform="translate(-357.57 211.08) rotate(-45.34)"/><path class="o" d="M33.11,573.42l-8.85-8.74,37.52-38,8.85,8.75-37.52,38Zm.48-1.94,2.2-2.23-2.19-2.16-2.2,2.23,2.19,2.16ZM31.11,569l2.2-2.23-2.19-2.16-2.2,2.23L31.11,569Zm-2.55-2.51,2.21-2.23-2.19-2.16-2.21,2.23,2.19,2.16Zm7.75,2.21,2.2-2.23-2.19-2.16-2.2,2.23,2.19,2.16Zm-2.48-2.45,2.2-2.23-2.19-2.16-2.2,2.23,2.19,2.16Zm-2.55-2.51,2.21-2.23-2.19-2.17-2.21,2.23,2.19,2.17ZM39,566l2.2-2.23L39,561.58l-2.2,2.23L39,566Zm-2.48-2.45,2.2-2.23-2.19-2.17-2.2,2.23,2.19,2.17ZM34,561l2.21-2.23L34,556.62l-2.21,2.23L34,561Zm7.75,2.21L44,561l-2.19-2.16-2.2,2.23,2.19,2.16Zm-2.48-2.45,2.2-2.23-2.19-2.16-2.2,2.23,2.19,2.16Zm-2.55-2.51L38.93,556l-2.19-2.16-2.21,2.23,2.19,2.16Zm7.74,2.21,2.21-2.23-2.19-2.16-2.21,2.23,2.19,2.16ZM42,558l2.2-2.23L42,553.63l-2.2,2.23L42,558Zm-2.55-2.51,2.2-2.23-2.18-2.16-2.21,2.23,2.19,2.16Zm7.74,2.21,2.21-2.23-2.19-2.16L45,555.55l2.19,2.17Zm-2.48-2.45L46.91,553l-2.19-2.16-2.2,2.23,2.18,2.16Zm-2.54-2.51,2.2-2.23-2.19-2.17L40,550.59l2.19,2.17ZM49.9,555l2.21-2.23-2.19-2.17-2.21,2.23L49.9,555Zm-2.48-2.45,2.21-2.23-2.19-2.17-2.21,2.23,2.19,2.17ZM44.88,550l2.2-2.23-2.19-2.16-2.2,2.23L44.88,550Zm7.74,2.21L54.83,550l-2.19-2.16-2.21,2.23,2.19,2.16Zm-2.48-2.45,2.21-2.23-2.19-2.16L48,547.6l2.19,2.16Zm-2.54-2.51L49.8,545l-2.19-2.16-2.2,2.23,2.19,2.16Zm7.74,2.21,2.21-2.23-2.19-2.16-2.21,2.23,2.19,2.16ZM52.86,547l2.21-2.23-2.19-2.16-2.21,2.23L52.86,547Zm-2.54-2.51,2.2-2.23-2.19-2.17-2.2,2.23,2.19,2.17Zm7.74,2.21,2.2-2.23-2.18-2.17-2.21,2.23,2.19,2.17Zm-2.48-2.45L57.79,542l-2.19-2.16-2.21,2.23,2.19,2.16ZM53,541.75l2.2-2.23-2.19-2.17-2.2,2.23L53,541.75ZM60.78,544l2.2-2.24-2.18-2.16-2.21,2.23L60.78,544Zm-2.48-2.45,2.21-2.23-2.19-2.17-2.21,2.23,2.19,2.17ZM55.76,539l2.2-2.23-2.19-2.16-2.2,2.23L55.76,539Zm7.74,2.21L65.7,539l-2.19-2.16L61.31,539l2.19,2.16ZM61,538.75l2.2-2.23L61,534.36l-2.21,2.23L61,538.75Zm-2.54-2.51,2.2-2.23-2.19-2.16-2.2,2.23,2.19,2.16Zm7.74,2.21,2.2-2.23-2.19-2.16L64,536.29l2.19,2.16ZM63.74,536l2.2-2.23-2.19-2.16-2.2,2.23L63.74,536Zm-2.54-2.51,2.2-2.23-2.19-2.17L59,531.32Z"/><path class="o" d="M123.49,502.43l-8.85-8.74-37.52,38L86,540.41l37.52-38Zm-1.93.5-2.21,2.23L117.16,503l2.21-2.23,2.19,2.16Zm-2.48-2.45-2.21,2.23-2.19-2.16,2.21-2.23,2.19,2.16ZM116.53,498l-2.2,2.23L112.14,498l2.2-2.23,2.19,2.17Zm2.31,7.71-2.21,2.23-2.19-2.16,2.21-2.23,2.19,2.16Zm-2.48-2.45-2.21,2.23L112,503.3l2.2-2.23,2.19,2.16Zm-2.55-2.51-2.2,2.23-2.19-2.16,2.2-2.23,2.19,2.16Zm2.31,7.71-2.21,2.23-2.19-2.16,2.21-2.23,2.19,2.16ZM113.64,506l-2.21,2.23-2.18-2.16,2.2-2.23,2.19,2.16Zm-2.55-2.51-2.2,2.23-2.19-2.16,2.2-2.23,2.19,2.16Zm2.31,7.72-2.21,2.23L109,511.25l2.2-2.23,2.19,2.17Zm-2.48-2.45-2.2,2.23-2.19-2.17,2.2-2.23,2.19,2.17Zm-2.54-2.52-2.21,2.23L104,506.29l2.21-2.23,2.19,2.16Zm2.3,7.72-2.2,2.23L106.29,514l2.2-2.23,2.19,2.16Zm-2.48-2.45-2.2,2.23-2.19-2.16,2.2-2.23,2.19,2.16ZM105.66,509l-2.21,2.23L101.26,509l2.21-2.23,2.19,2.17Zm2.3,7.71-2.2,2.23-2.19-2.16,2.2-2.23,2.19,2.16Zm-2.48-2.45-2.2,2.23-2.19-2.16,2.2-2.23,2.19,2.16Zm-2.54-2.51L100.73,514l-2.19-2.16,2.21-2.23,2.19,2.16Zm2.3,7.71-2.2,2.23-2.19-2.16,2.2-2.23,2.19,2.16ZM102.76,517l-2.2,2.22-2.19-2.16,2.2-2.23,2.19,2.17Zm-2.54-2.52L98,516.71l-2.19-2.16L98,512.32l2.19,2.16Zm2.3,7.72-2.2,2.23-2.19-2.17,2.2-2.23,2.19,2.17ZM100,519.75,97.84,522l-2.19-2.17,2.2-2.23,2.19,2.17Zm-2.54-2.52-2.21,2.23L93.1,517.3l2.21-2.23,2.19,2.16ZM99.8,525l-2.2,2.23L95.41,525l2.2-2.23L99.8,525Zm-2.48-2.45-2.2,2.23-2.19-2.16,2.2-2.23,2.19,2.16ZM94.78,520l-2.21,2.23-2.19-2.17,2.21-2.23L94.78,520Zm2.3,7.71-2.2,2.23-2.19-2.16,2.2-2.23,2.19,2.16Zm-2.48-2.45-2.2,2.23-2.19-2.16,2.2-2.23,2.19,2.16Zm-2.54-2.51L89.86,525l-2.19-2.16,2.2-2.23,2.19,2.16Zm2.3,7.72-2.2,2.22L90,530.52l2.2-2.23,2.19,2.17ZM91.88,528l-2.2,2.23-2.19-2.17,2.2-2.23L91.88,528Zm-2.54-2.52-2.2,2.23L85,525.56l2.2-2.23,2.19,2.16Zm2.3,7.72-2.2,2.23-2.19-2.17,2.2-2.23,2.19,2.17Zm-2.48-2.45L87,533l-2.19-2.16,2.2-2.24,2.19,2.17Zm-2.54-2.51-2.2,2.22-2.19-2.16,2.2-2.23,2.19,2.17Zm2.3,7.71-2.2,2.23L84.53,536l2.2-2.23L88.92,536Zm-2.48-2.45-2.2,2.23-2.19-2.16,2.2-2.23,2.19,2.16ZM83.9,531l-2.2,2.23-2.19-2.17,2.2-2.23Z"/><path class="p" d="M71.75,531.46a3,3,0,1,1,0,4.22A3,3,0,0,1,71.75,531.46Z"/><path class="q" d="M403,300.2a31.9,31.9,0,0,0-52,20.29h-.29a27.18,27.18,0,0,0-26.8,31.77A23.21,23.21,0,0,0,305.54,375a23.46,23.46,0,0,0,.49,4.77,31.49,31.49,0,0,0-18.64,51.58v.57A22.14,22.14,0,0,0,309.49,454a21.78,21.78,0,0,0,5.46-.68,26,26,0,0,0,23.91,36,25.12,25.12,0,0,0,3-.18,29,29,0,0,0,50.54,27.62,112.07,112.07,0,0,0,28.63,3.7,110.83,110.83,0,0,0,50.3-12,26.82,26.82,0,0,0,12,2.82,27.25,27.25,0,0,0,27.22-27.26,28.66,28.66,0,0,0-.41-4.76,29,29,0,1,0,26.58-50.37,29.79,29.79,0,0,0-10-46.09l-.44-1.44a22.18,22.18,0,0,0-16.94-33.13l-.66-.86a36.75,36.75,0,0,0,.52-6.16,35.93,35.93,0,0,0-53.91-31.16l-1.76-.77A27.28,27.28,0,0,0,403,300.2Z"/><path class="r" d="M476.83,475l-2.45-2.64a323.25,323.25,0,0,0-35.5,23.48q-7.14,5.43-13.53,10.86a91.46,91.46,0,0,1-.41-28.08l33.17-35-3.71-3.42-31.28,24.35-2.33-73.44-3.73,0-3.73,0L411,464.63l-31.27-24.35L376,443.7l33.18,35a74.38,74.38,0,0,1-.41,28.08l-49-34.34L357.28,475a238.35,238.35,0,0,1,41.13,36.87c3.53,4,6.81,8,9.84,11.9l.21,17.69-.82,20-2.71,65.71a27,27,0,0,0,24.26,0h0l-2.85-102.42a141.18,141.18,0,0,1,8.57-12.7A144.61,144.61,0,0,1,476.83,475Z"/><path class="s" d="M407.16,268.37a31.9,31.9,0,0,0-52,20.3h-.28A27.18,27.18,0,0,0,328,320.43a23.22,23.22,0,0,0-18.35,22.71,23.53,23.53,0,0,0,.48,4.77,31.5,31.5,0,0,0-18.64,51.59v.56a22.13,22.13,0,0,0,27.57,21.47,26,26,0,0,0,23.9,36,25,25,0,0,0,3-.18,29,29,0,0,0,50.54,27.62,112.14,112.14,0,0,0,78.94-8.25,27.23,27.23,0,0,0,39.24-24.46,27.72,27.72,0,0,0-.42-4.76A29,29,0,1,0,540.9,397.1a29.78,29.78,0,0,0-10-46.1l-.44-1.44a22.16,22.16,0,0,0-16.93-33.11l-.67-.87a35.94,35.94,0,0,0-53.38-37.32l-1.76-.77a27.28,27.28,0,0,0-50.52-9.12Z"/><path class="t" d="M483,341.52a14.2,14.2,0,0,0-23.18,9h-.14a12.14,12.14,0,0,0-11.94,14.16,10.35,10.35,0,0,0-8.18,10.12,10.69,10.69,0,0,0,.22,2.13,14,14,0,0,0-8.31,23v.29a9.69,9.69,0,0,0,8,9.68,10.53,10.53,0,0,0,4.32-.15,11.92,11.92,0,0,0-.3,8.19,11.51,11.51,0,0,0,12,7.8l.31,0a13,13,0,0,0,10.4,17.55A12.92,12.92,0,0,0,478.3,438a49.76,49.76,0,0,0,35.17-3.68A12.14,12.14,0,0,0,531,423.47a13.37,13.37,0,0,0-.19-2.12,13,13,0,1,0,11.85-22.46,13.26,13.26,0,0,0-4.48-20.54l-.19-.64A9.88,9.88,0,0,0,530.41,363l-.3-.4a18.35,18.35,0,0,0-.21-6.9,14.3,14.3,0,0,0-6.9-9.5,16.54,16.54,0,0,0-16.73-.19l-.73-.35A12.17,12.17,0,0,0,483,341.52Z"/><path class="t" d="M343.43,330.45a14.22,14.22,0,0,0-23.19,9h-.09A11.84,11.84,0,0,0,310,344.92a12.24,12.24,0,0,0-1.85,8.74A10.33,10.33,0,0,0,300,363.77a10.76,10.76,0,0,0,.21,2.13,14,14,0,0,0-8.31,23v.26a9.85,9.85,0,0,0,9.86,9.86,9.69,9.69,0,0,0,2.43-.3,12.07,12.07,0,0,0,.43,10,11,11,0,0,0,9.58,6,11.81,11.81,0,0,0,2-.07,13.17,13.17,0,0,0-.71,6.84A12.94,12.94,0,0,0,338.71,427a50,50,0,0,0,12.76,1.65,49.43,49.43,0,0,0,22.41-5.33,12.13,12.13,0,0,0,17.31-13A12.95,12.95,0,1,0,403,387.83a13.28,13.28,0,0,0-4.48-20.56l-.19-.64a9.79,9.79,0,0,0,1.32-4.93,9.89,9.89,0,0,0-8.87-9.83l-.3-.38a15.54,15.54,0,0,0,.24-2.75,16,16,0,0,0-23.94-13.93l-.9-.43a12.16,12.16,0,0,0-22.49-3.93Z"/><path class="u" d="M418,282.42A18.22,18.22,0,0,0,388.24,294h-.18a15.49,15.49,0,0,0-15.5,14.29,15.1,15.1,0,0,0,.18,3.88,13.23,13.23,0,0,0-10.49,13,13.52,13.52,0,0,0,.27,2.73,18,18,0,0,0-10.66,29.49v.33a12.42,12.42,0,0,0,6.38,11,12.81,12.81,0,0,0,9.39,1.26,14.8,14.8,0,0,0,15,20.49l.38,0a16.59,16.59,0,0,0,28.88,15.78,64,64,0,0,0,16.38,2.12A63.36,63.36,0,0,0,457,401.49a15.56,15.56,0,0,0,22.43-14,16.25,16.25,0,0,0-.24-2.71,16.5,16.5,0,0,0,11.61,3.72A16.61,16.61,0,0,0,494.41,356a17,17,0,0,0-5.75-26.35l-.24-.81a12.67,12.67,0,0,0-9.69-18.94l-.37-.49A20.55,20.55,0,0,0,447.94,288l-1.12-.53A15.6,15.6,0,0,0,418,282.42Z"/><path class="v" d="M317.84,472h0a1.27,1.27,0,0,0,.08-.51h0a.51.51,0,0,1-.14,0,.77.77,0,0,1,.07-.26h0s-.13,0-.15,0a.47.47,0,0,1,.12-.25c.06,0-.16,0-.16,0a.62.62,0,0,1,.17-.31s-.15,0-.15,0a.47.47,0,0,1,.2-.28s0,0,0,0h0a.25.25,0,0,0-.15,0,.38.38,0,0,1,.21-.27.52.52,0,0,0-.16-.06.55.55,0,0,1,.24-.28.37.37,0,0,0-.14-.07.48.48,0,0,1,.2-.22l0,0h0c-.05,0-.11-.07-.15-.06s.16-.16.25-.22a.44.44,0,0,0-.15-.08c.06-.11.17-.13.25-.2a.3.3,0,0,1-.15-.09c.08-.09.16-.07.24-.13s-.08-.07-.13-.09a.73.73,0,0,1,.25-.13s-.1-.08-.13-.08.2-.1.27-.16-.07,0-.11-.05c.12-.17.24-.13.36-.16s-.11-.13-.13-.13a.48.48,0,0,1,.35-.09s-.05-.1-.09-.11.27-.06.41-.08h0s-.08-.17-.11-.18c.13,0,.32,0,.46,0,0,0-.07-.13-.1-.15.16-.05.28.05.43.05,0,0-.05-.14-.08-.16.16,0,.35.14.51.16,0,0-.13-.17-.12-.22a2.68,2.68,0,0,1,.45.11,2.73,2.73,0,0,0,1.11.05,2.84,2.84,0,0,0,.21,1.1,2.56,2.56,0,0,1,.17.43c-.05,0-.19-.07-.23-.09,0,.15.21.32.23.48,0,0-.15,0-.18-.06,0,.15.14.26.11.42,0,0-.14,0-.16-.07,0,.14.1.31.07.45,0,0-.17-.06-.19-.09h0c0,.15.05.31,0,.42,0,0-.1,0-.12-.08a.48.48,0,0,1-.05.37s-.13-.09-.13-.11,0,.23-.12.37a.33.33,0,0,1-.06-.1c-.06.08,0,.2-.12.29s-.07-.08-.1-.11a.62.62,0,0,1-.1.26c0-.05-.09-.08-.1-.12s0,.17-.09.26a.27.27,0,0,1-.12-.14c-.06.09-.06.21-.16.28a.71.71,0,0,0-.1-.14c-.05.1-.08.22-.18.28s-.05-.1-.08-.14v0a0,0,0,0,0,0,0,.5.5,0,0,1-.2.23.29.29,0,0,0-.08-.13.62.62,0,0,1-.25.28.44.44,0,0,0-.08-.15.51.51,0,0,1-.23.25.43.43,0,0,0,0-.15h0a.49.49,0,0,1-.25.24s0-.15,0-.15a.58.58,0,0,1-.28.21s0-.22-.06-.16a.41.41,0,0,1-.22.16s-.06-.12-.05-.15h0a.76.76,0,0,1-.26.11.39.39,0,0,1,0-.14h0a1.08,1.08,0,0,0-.5.14Zm1.83-4.44Zm2.32,2h0c0,.09,0,.17,0,.23A1.34,1.34,0,0,0,322,469.57Z"/><path class="w" d="M322.93,465.64a15.41,15.41,0,0,1-1.58,2.55,2.67,2.67,0,0,1,.25,1.92v-.06a2.74,2.74,0,0,0-.29-1.82l-.37.48a3.24,3.24,0,0,1,.06,1.9.6.6,0,0,1-.08.21,1.72,1.72,0,0,0,.07-.21,3.46,3.46,0,0,0-.08-1.86l-.38.48-.09.1a4,4,0,0,1-.13,1.82v-.06a4.34,4.34,0,0,0,.09-1.72c-.17.2-.36.43-.57.66a3.21,3.21,0,0,1-.22,1.44,3.49,3.49,0,0,0,.18-1.4c-.17.18-.34.37-.52.54a4,4,0,0,1-.22,1,.61.61,0,0,1,0-.13,4.91,4.91,0,0,0,.14-.84,5.14,5.14,0,0,1-1,.8l.07,0a8.71,8.71,0,0,0,.86-.75,4.85,4.85,0,0,0-.82.14l-.13,0a3.81,3.81,0,0,1,1-.22,6.76,6.76,0,0,0,.52-.55,3.5,3.5,0,0,0-1.4.13,3.07,3.07,0,0,1,1.44-.17c.19-.21.38-.44.56-.66a4.46,4.46,0,0,0-1.7.23l-.06,0a4.22,4.22,0,0,1,1.79-.29l.33-.4.15-.21a3.36,3.36,0,0,0-1.88.17l-.19.1a.59.59,0,0,1,.19-.11,3.14,3.14,0,0,1,1.91-.19l.36-.49a2.68,2.68,0,0,0-1.83,0l-.06,0a2.65,2.65,0,0,1,1.92,0,15.09,15.09,0,0,0,1.56-2.55.05.05,0,0,1,.07,0,.05.05,0,0,1,0,.07Zm-3.19,4.42,0,0Z"/><path class="v" d="M304,482.92h0a1.15,1.15,0,0,0,.39-.35h0a.32.32,0,0,1-.13-.05.73.73,0,0,1,.23-.16h0s-.07-.11-.09-.11a.43.43,0,0,1,.25-.11c.07,0-.11-.12-.1-.13a.54.54,0,0,1,.32-.12s-.09-.12-.11-.1a.56.56,0,0,1,.34-.09h0a.29.29,0,0,0-.11-.11.42.42,0,0,1,.33-.06.36.36,0,0,0-.08-.15.6.6,0,0,1,.37-.06.37.37,0,0,0-.07-.14.47.47,0,0,1,.31,0l0,0,0,0,0,0a.26.26,0,0,0-.06-.14c.1-.06.21,0,.33,0s0-.13-.07-.16.21,0,.32,0a.31.31,0,0,1-.05-.17c.12,0,.16.05.27.06s0-.11-.05-.15a.54.54,0,0,1,.27.05s0-.12,0-.14c.13-.05.22.06.31,0s0-.07,0-.11c.2-.05.26.06.38.11s0-.16,0-.18a.47.47,0,0,1,.33.16s0-.11,0-.15c.14,0,.24.14.37.21h0s0-.18,0-.21.23.23.34.3,0-.13,0-.17c.15.06.18.21.29.31s.06-.14,0-.17.18.33.28.45c0-.05,0-.21.05-.25a2.84,2.84,0,0,1,.27.38,3,3,0,0,0,.82.76,2.82,2.82,0,0,0-.56,1,3.22,3.22,0,0,1-.14.44c-.05,0-.1-.18-.12-.22-.07.14-.05.38-.14.51,0,0-.09-.12-.09-.15-.08.13-.06.28-.19.39,0,0-.09-.13-.08-.16s-.12.3-.23.39-.1-.16-.09-.19h0c-.1.1-.16.26-.3.3s-.05-.1,0-.14c-.08.13-.13.21-.27.25s0-.15,0-.17-.12.2-.34.21c0,0,0-.08,0-.12s-.14.15-.28.14c0,0,0-.1,0-.15a.6.6,0,0,1-.24.14c0-.05,0-.12,0-.16s-.12.12-.24.14a.36.36,0,0,1,0-.18c-.1,0-.18.12-.3.11a1,1,0,0,0,0-.17c-.11,0-.21.12-.32.09s0-.1,0-.15l0,0,0,0v0a.52.52,0,0,1-.3.06.3.3,0,0,0,0-.16.53.53,0,0,1-.37.05.41.41,0,0,0,0-.16.42.42,0,0,1-.33,0,.53.53,0,0,0,.08-.14h0a.58.58,0,0,1-.35,0s.08-.13.08-.13a.53.53,0,0,1-.35,0s.12-.18.06-.15a.58.58,0,0,1-.27,0s0-.13,0-.14h0a.84.84,0,0,1-.27-.08.53.53,0,0,1,.11-.09h0a1.21,1.21,0,0,0-.48-.21Zm4.27-2.2h0l-.18-.15.18.15Zm.46,3h0a1.45,1.45,0,0,0-.12.19Z"/><path class="w" d="M312,481.36a14.78,14.78,0,0,1-2.86.92,2.67,2.67,0,0,1-1.05,1.63l.05,0a2.71,2.71,0,0,0,.95-1.58l-.59.13a3.26,3.26,0,0,1-1.18,1.49.75.75,0,0,1-.2.1.86.86,0,0,0,.19-.11,3.31,3.31,0,0,0,1.14-1.47l-.6.12-.13,0a3.88,3.88,0,0,1-1.28,1.3l.05,0a4.26,4.26,0,0,0,1.18-1.25c-.26.05-.55.09-.86.13a3.16,3.16,0,0,1-1.1,1,3.62,3.62,0,0,0,1-.95c-.25,0-.5.06-.74.07a4.28,4.28,0,0,1-.83.64l.1-.09a5,5,0,0,0,.66-.54,5.23,5.23,0,0,1-1.28,0h.08a11.05,11.05,0,0,0,1.15,0,5.71,5.71,0,0,0-.72-.43.45.45,0,0,1-.12-.06,3.7,3.7,0,0,1,.9.48l.76-.08a3.43,3.43,0,0,0-1.15-.81,3.09,3.09,0,0,1,1.2.8c.29,0,.57-.08.85-.14a4.18,4.18,0,0,0-1.44-.92l-.06,0a4,4,0,0,1,1.55.94l.51-.1.25-.05a3.33,3.33,0,0,0-1.54-1.09.72.72,0,0,0-.21,0,.57.57,0,0,1,.22,0,3.19,3.19,0,0,1,1.58,1.09l.6-.14a2.73,2.73,0,0,0-1.38-1.21l-.06,0a2.65,2.65,0,0,1,1.48,1.23,16,16,0,0,0,2.84-.93.05.05,0,1,1,0,.09Zm-5.29,1.31h0Z"/><path class="v" d="M409.37,580.24h0a1.28,1.28,0,0,0,.08-.55h0l-.15,0a.83.83,0,0,1,.08-.28h0s-.14,0-.16,0a.51.51,0,0,1,.13-.26c.06,0-.17,0-.17,0a.58.58,0,0,1,.18-.33s-.16,0-.17,0a.64.64,0,0,1,.22-.3s0,0,0,0h0a.28.28,0,0,0-.16,0,.42.42,0,0,1,.22-.28.43.43,0,0,0-.16-.07.57.57,0,0,1,.25-.3.41.41,0,0,0-.15-.07.47.47,0,0,1,.22-.24l0,0h0c-.05,0-.11-.07-.16-.07s.17-.16.27-.23-.12-.08-.16-.08.18-.14.26-.21a.36.36,0,0,1-.15-.1c.08-.1.17-.07.25-.14s-.08-.07-.13-.09a.55.55,0,0,1,.25-.14s-.09-.09-.13-.08.22-.11.29-.18a.26.26,0,0,1-.12,0c.13-.18.25-.14.38-.17,0,0-.11-.13-.14-.13a.47.47,0,0,1,.38-.1s0-.11-.1-.12c.11-.1.29-.06.44-.09h0s-.09-.18-.12-.19c.14,0,.34,0,.49,0,0,0-.07-.13-.1-.16.16,0,.29.05.45.06a1.42,1.42,0,0,1-.08-.18c.16,0,.37.15.54.18,0,0-.14-.18-.13-.24a4.05,4.05,0,0,1,.47.12,3.14,3.14,0,0,0,1.19,0,2.94,2.94,0,0,0,.22,1.17,4.47,4.47,0,0,1,.19.46.64.64,0,0,1-.26-.1c.05.17.23.35.25.51,0,0-.16,0-.18-.06,0,.16.14.27.11.45,0,0-.15,0-.17-.08,0,.15.1.33.08.48,0,0-.19-.06-.2-.09h0c0,.15.05.32,0,.45,0,0-.11,0-.13-.09a.48.48,0,0,1,0,.39s-.14-.1-.14-.12c0,.14,0,.25-.13.4,0,0-.05-.06-.06-.11s0,.22-.13.31-.08-.08-.11-.12a.53.53,0,0,1-.1.28s-.09-.09-.11-.13,0,.18-.1.28a.33.33,0,0,1-.12-.15c-.06.1-.07.22-.17.3s-.08-.12-.1-.15-.09.23-.2.29-.06-.1-.09-.14a.06.06,0,0,0,0,0v0l0,0a.47.47,0,0,1-.21.25.31.31,0,0,0-.09-.14.53.53,0,0,1-.26.29.49.49,0,0,0-.09-.15.41.41,0,0,1-.24.26.57.57,0,0,0,0-.16h0a.53.53,0,0,1-.27.26s0-.16,0-.16a.56.56,0,0,1-.3.22s0-.23-.06-.16a.44.44,0,0,1-.24.16s-.05-.12,0-.15h0a.81.81,0,0,1-.27.11.49.49,0,0,1,0-.15h0a1.28,1.28,0,0,0-.53.16Zm1.94-4.72Zm2.46,2.13h0a1.29,1.29,0,0,1,0,.24A1.07,1.07,0,0,0,413.77,577.65Z"/><path class="w" d="M414.78,573.47a16,16,0,0,1-1.68,2.71,2.9,2.9,0,0,1,.27,2v-.06a2.82,2.82,0,0,0-.31-1.93l-.39.51a3.48,3.48,0,0,1,.07,2,.56.56,0,0,1-.09.21.83.83,0,0,0,.08-.22,3.57,3.57,0,0,0-.09-2l-.4.51-.09.11a4.25,4.25,0,0,1-.15,1.94v-.07a4.52,4.52,0,0,0,.1-1.83c-.18.21-.38.45-.61.7a3.32,3.32,0,0,1-.22,1.53,3.91,3.91,0,0,0,.18-1.48l-.55.57a4.11,4.11,0,0,1-.24,1.08l0-.14a4.63,4.63,0,0,0,.16-.89,6.05,6.05,0,0,1-1.06.85l.07-.06a8.38,8.38,0,0,0,.92-.79,5.4,5.4,0,0,0-.88.15l-.14,0a4.35,4.35,0,0,1,1.07-.23c.19-.19.37-.39.55-.59a3.77,3.77,0,0,0-1.49.14,3.3,3.3,0,0,1,1.53-.18c.21-.23.4-.46.59-.7a4.42,4.42,0,0,0-1.8.25h-.07a4.44,4.44,0,0,1,1.91-.3l.34-.44c.06-.06.11-.14.17-.21a3.51,3.51,0,0,0-2,.18l-.21.1a.72.72,0,0,1,.21-.12,3.45,3.45,0,0,1,2-.2l.39-.52a2.9,2.9,0,0,0-1.95,0l-.06,0a2.82,2.82,0,0,1,2,0,17.06,17.06,0,0,0,1.66-2.71,0,0,0,0,1,.07,0,.05.05,0,0,1,0,.07Zm-3.39,4.7,0,0Z"/><path class="v" d="M552.34,564.08h0a1.47,1.47,0,0,0,.08-.55h0l-.15.05a1,1,0,0,1,.08-.29h0s-.13,0-.15,0a.44.44,0,0,1,.13-.26c.06,0-.17,0-.17,0a.55.55,0,0,1,.17-.33s-.15,0-.16,0a.54.54,0,0,1,.22-.3h0a.43.43,0,0,0-.17,0,.44.44,0,0,1,.23-.27.43.43,0,0,0-.16-.07.57.57,0,0,1,.25-.3.41.41,0,0,0-.15-.07.47.47,0,0,1,.22-.24l0,0h0a.71.71,0,0,0-.16-.07c.05-.11.17-.16.27-.23s-.12-.08-.16-.08.17-.14.26-.21a.47.47,0,0,1-.16-.1c.09-.1.18-.07.26-.14s-.09-.07-.14-.09a.65.65,0,0,1,.26-.14s-.1-.09-.13-.09.22-.1.28-.17-.07,0-.11,0c.12-.19.25-.14.38-.18,0,0-.11-.12-.14-.12a.46.46,0,0,1,.38-.1s0-.11-.1-.12c.11-.1.29-.06.44-.09h0s-.09-.18-.12-.19c.14,0,.34,0,.48,0,0,0-.06-.13-.1-.16.17,0,.3.05.46.05,0,0-.06-.14-.09-.17.17,0,.38.15.54.17,0,0-.13-.17-.12-.23l.47.12a3.14,3.14,0,0,0,1.19,0,2.94,2.94,0,0,0,.22,1.17,4.37,4.37,0,0,1,.18.46.6.6,0,0,1-.25-.1c.05.17.23.35.25.51,0,0-.16,0-.19-.06,0,.16.15.27.12.44,0,0-.15,0-.17-.07,0,.15.1.33.07.48,0,0-.18-.06-.2-.1h0c0,.16.05.33,0,.46,0-.05-.11-.05-.14-.09a.44.44,0,0,1,0,.39s-.14-.1-.15-.12.05.25-.12.4c0,0,0-.06-.06-.11s0,.22-.14.31-.07-.08-.1-.12a.77.77,0,0,1-.1.28s-.09-.09-.11-.13,0,.18-.1.28a.33.33,0,0,1-.12-.15c-.06.1-.07.22-.17.3s-.09-.12-.11-.15-.08.23-.19.29-.06-.1-.09-.14a.43.43,0,0,0,0-.05v.05l0,0a.47.47,0,0,1-.21.25.31.31,0,0,0-.09-.14.53.53,0,0,1-.26.29.4.4,0,0,0-.09-.15.44.44,0,0,1-.24.26.5.5,0,0,0,0-.16h0a.57.57,0,0,1-.27.26s0-.16,0-.16a.56.56,0,0,1-.3.22s0-.23-.06-.16a.44.44,0,0,1-.24.16s-.06-.12,0-.15h0a.81.81,0,0,1-.27.11.49.49,0,0,1,0-.15h0a1.28,1.28,0,0,0-.53.16Zm1.94-4.73Zm2.46,2.14h0c0,.1,0,.18,0,.24S556.76,561.62,556.74,561.49Z"/><path class="w" d="M557.75,557.31a16.11,16.11,0,0,1-1.69,2.71,2.8,2.8,0,0,1,.27,2V562a2.82,2.82,0,0,0-.31-1.93l-.39.51a3.48,3.48,0,0,1,.07,2,.78.78,0,0,1-.09.21,1.43,1.43,0,0,0,.08-.22,3.57,3.57,0,0,0-.09-2l-.4.51-.1.11a4.2,4.2,0,0,1-.14,1.93v-.06a4.52,4.52,0,0,0,.1-1.83l-.61.7a3.33,3.33,0,0,1-.23,1.53,3.55,3.55,0,0,0,.18-1.48c-.17.19-.36.38-.54.57a4.11,4.11,0,0,1-.24,1.08l0-.14a5.55,5.55,0,0,0,.16-.89,5.74,5.74,0,0,1-1.07.85l.08-.06a8.3,8.3,0,0,0,.91-.79,4.53,4.53,0,0,0-.87.15l-.14,0a4.27,4.27,0,0,1,1.06-.23c.19-.19.38-.39.56-.59a3.75,3.75,0,0,0-1.49.14,3.3,3.3,0,0,1,1.53-.18c.2-.23.4-.46.59-.7a4.42,4.42,0,0,0-1.8.25h-.07a4.44,4.44,0,0,1,1.91-.3l.34-.44.17-.21a3.51,3.51,0,0,0-2,.18l-.21.1a.82.82,0,0,1,.2-.12,3.41,3.41,0,0,1,2-.2L556,560a2.87,2.87,0,0,0-2,0l-.06,0a2.82,2.82,0,0,1,2,0,16,16,0,0,0,1.66-2.72.08.08,0,0,1,.08,0,.07.07,0,0,1,0,.08Zm-3.39,4.7,0,0Z"/><path class="v" d="M488.1,592.33h0a1.28,1.28,0,0,0,.08-.55h0l-.14.05a.73.73,0,0,1,.07-.29h0s-.14,0-.16,0a.51.51,0,0,1,.13-.26c.06,0-.17,0-.17,0a.55.55,0,0,1,.18-.33s-.16,0-.16,0a.53.53,0,0,1,.21-.3h0a.37.37,0,0,0-.16,0,.42.42,0,0,1,.22-.27.33.33,0,0,0-.16-.07.62.62,0,0,1,.25-.3.3.3,0,0,0-.15-.07.47.47,0,0,1,.22-.24l0,0h0c-.05,0-.11-.07-.15-.07s.16-.16.26-.23a.48.48,0,0,0-.16-.08c.06-.11.18-.14.27-.21a.39.39,0,0,1-.16-.1c.08-.1.17-.07.26-.14s-.09-.07-.14-.09a.59.59,0,0,1,.26-.14s-.1-.09-.14-.09.22-.1.29-.17a.31.31,0,0,1-.12,0c.13-.19.25-.14.38-.18s-.11-.12-.14-.12a.45.45,0,0,1,.38-.1s-.05-.11-.1-.12c.11-.1.29-.07.44-.09h0s-.09-.18-.12-.19c.14,0,.34,0,.49,0,0,0-.07-.13-.1-.16.17,0,.29.05.45.05,0,0-.05-.15-.08-.17.17,0,.37.15.54.17a.65.65,0,0,1-.13-.23,4.81,4.81,0,0,1,.48.12,3.13,3.13,0,0,0,1.19,0,2.94,2.94,0,0,0,.21,1.17c.07.15.14.31.19.45s-.2-.07-.25-.09c0,.16.22.35.24.51,0,0-.15,0-.18-.06,0,.16.14.27.11.44,0,0-.15,0-.17-.07,0,.15.11.33.08.48,0,0-.18-.07-.2-.1h0c0,.16,0,.33,0,.45,0,0-.1,0-.13-.08a.52.52,0,0,1,0,.39s-.15-.1-.15-.12,0,.25-.12.4c0,0-.06-.07-.07-.11s0,.22-.13.31-.07-.08-.1-.12a.55.55,0,0,1-.11.27s-.09-.08-.1-.12,0,.18-.11.27a.27.27,0,0,1-.12-.14c-.06.1-.07.22-.17.29s-.08-.11-.1-.14a.55.55,0,0,1-.2.29s-.05-.1-.08-.14v0c-.06.1-.1.2-.21.25a.67.67,0,0,0-.09-.14.59.59,0,0,1-.27.29.55.55,0,0,0-.08-.15.43.43,0,0,1-.25.26.24.24,0,0,0,0-.16h0a.57.57,0,0,1-.27.26s0-.16,0-.16a.61.61,0,0,1-.31.22s0-.23-.05-.16a.57.57,0,0,1-.24.16s-.06-.12-.05-.15h0a.81.81,0,0,1-.27.11.49.49,0,0,1,0-.15h0a1.28,1.28,0,0,0-.53.16Zm1.95-4.73Zm2.46,2.14h0q0,.15,0,.24S492.53,589.87,492.51,589.74Z"/><path class="w" d="M493.51,585.56a16,16,0,0,1-1.68,2.71,2.85,2.85,0,0,1,.27,2v-.06a3,3,0,0,0-.31-1.94c-.13.18-.27.35-.39.52a3.56,3.56,0,0,1,.07,2,1.33,1.33,0,0,1-.09.21,1.42,1.42,0,0,0,.07-.22,3.57,3.57,0,0,0-.09-2c-.14.18-.27.35-.4.5l-.09.12a4.2,4.2,0,0,1-.15,1.93l0-.06a4.7,4.7,0,0,0,.09-1.83c-.17.21-.38.45-.61.7a3.32,3.32,0,0,1-.22,1.53,3.72,3.72,0,0,0,.18-1.48l-.55.57a4.53,4.53,0,0,1-.23,1.08.68.68,0,0,1,0-.14,4.59,4.59,0,0,0,.16-.9,5.72,5.72,0,0,1-1.06.86l.07-.06a9.63,9.63,0,0,0,.92-.79,4.63,4.63,0,0,0-.88.15l-.13,0a4.27,4.27,0,0,1,1.06-.23c.19-.19.38-.39.56-.59a3.63,3.63,0,0,0-1.5.14,3.3,3.3,0,0,1,1.53-.18c.21-.23.41-.46.6-.7a4.49,4.49,0,0,0-1.81.25h-.06a4.37,4.37,0,0,1,1.9-.3l.35-.44.16-.21a3.52,3.52,0,0,0-2,.18l-.21.1a.88.88,0,0,1,.21-.12,3.37,3.37,0,0,1,2-.2l.39-.52a2.84,2.84,0,0,0-2,0l-.06,0a2.82,2.82,0,0,1,2,0,16.42,16.42,0,0,0,1.66-2.72.05.05,0,0,1,.07,0s0,0,0,.08Zm-3.38,4.7,0,0Z"/><path class="v" d="M570.94,537.29h0a1.18,1.18,0,0,0-.54-.13h0a.56.56,0,0,1,0,.15.86.86,0,0,1-.28-.11h0s-.06.13,0,.15a.44.44,0,0,1-.24-.15c0-.06,0,.17,0,.17a.6.6,0,0,1-.31-.21s0,.15,0,.16a.62.62,0,0,1-.28-.24h0a.24.24,0,0,0,0,.16.47.47,0,0,1-.25-.25.35.35,0,0,0-.08.16.63.63,0,0,1-.28-.28.32.32,0,0,0-.08.14.46.46,0,0,1-.22-.24l0,0v0a.09.09,0,0,0,0,0,.31.31,0,0,0-.08.15.51.51,0,0,1-.21-.29s-.09.11-.1.15-.12-.19-.18-.28a.4.4,0,0,1-.12.15c-.09-.09,0-.18-.11-.27s-.08.08-.1.13a.56.56,0,0,1-.12-.27s-.1.09-.1.12-.08-.22-.14-.3-.05.08-.06.11c-.18-.14-.12-.26-.15-.39,0,0-.13.1-.14.13a.49.49,0,0,1-.06-.39s-.11,0-.13.09c-.08-.12,0-.29-.05-.45h0s-.18.07-.19.1c0-.14.06-.33,0-.48,0,0-.14.06-.17.09,0-.18.08-.29.1-.45,0,0-.16,0-.18.07,0-.17.18-.36.22-.52-.05,0-.19.11-.25.1a2.85,2.85,0,0,1,.17-.46,1,1,0,0,1,1.34-1.29,3.1,3.1,0,0,1,.47-.14c0,.06-.09.19-.11.24.16,0,.36-.19.53-.2,0,0,0,.15-.08.18.16,0,.28-.12.45-.08,0,0,0,.15-.09.17.15,0,.34-.08.48,0,0,0-.08.18-.11.2h0c.16,0,.33,0,.45.06-.05,0-.06.11-.1.13a.49.49,0,0,1,.39.08s-.11.13-.14.13c.14,0,.26,0,.39.16a.6.6,0,0,1-.11.06c.07.06.21,0,.29.16s-.09.06-.13.09a.57.57,0,0,1,.27.13c-.05,0-.1.08-.14.09s.18,0,.27.13a.33.33,0,0,1-.16.11c.09.06.21.08.28.19s-.12.07-.16.09c.11.06.23.11.28.22a.37.37,0,0,0-.15.08h0a.59.59,0,0,1,.23.24.3.3,0,0,0-.15.07.69.69,0,0,1,.27.29.35.35,0,0,0-.16.08.44.44,0,0,1,.24.26.28.28,0,0,0-.17,0h0a.55.55,0,0,1,.23.3s-.16,0-.16,0a.66.66,0,0,1,.2.32s-.24,0-.17,0a.59.59,0,0,1,.14.26s-.13,0-.16,0h0a.84.84,0,0,1,.09.28l-.15,0h0a1.39,1.39,0,0,0,.11.54Zm-4.53-2.37h0c0,.13,0,.21,0,.24a2.09,2.09,0,0,1,0-.24Zm2.36-2.26Z"/><path class="w" d="M564.7,531.28a15.51,15.51,0,0,1,2.54,1.93,2.82,2.82,0,0,1,2.06-.09h-.06a2.87,2.87,0,0,0-2,.13c.17.15.33.29.48.44a3.44,3.44,0,0,1,2,.11,1,1,0,0,1,.21.11l-.21-.09a3.57,3.57,0,0,0-2-.1l.46.45.1.1a4.35,4.35,0,0,1,1.92.32h-.06a4.51,4.51,0,0,0-1.81-.27l.63.67a3.4,3.4,0,0,1,1.51.37,3.87,3.87,0,0,0-1.46-.32c.17.19.35.4.51.6a4.22,4.22,0,0,1,1.06.33l-.13,0a5.76,5.76,0,0,0-.88-.24,5.68,5.68,0,0,1,.75,1.14l0-.08a7.31,7.31,0,0,0-.7-1,4.41,4.41,0,0,0,.07.88c0,.09,0,0,0,.14a4.37,4.37,0,0,1-.13-1.08c-.17-.21-.35-.41-.53-.61a3.79,3.79,0,0,0,0,1.5,3.48,3.48,0,0,1,0-1.54l-.64-.65a4.48,4.48,0,0,0,.08,1.82v.06a4.15,4.15,0,0,1-.13-1.92L568,534l-.2-.19a3.53,3.53,0,0,0,0,2,1.33,1.33,0,0,0,.09.21.68.68,0,0,1-.1-.21,3.46,3.46,0,0,1,0-2l-.48-.44a2.83,2.83,0,0,0-.21,1.94v.06a2.8,2.8,0,0,1,.16-2,16.19,16.19,0,0,0-2.55-1.9.05.05,0,0,1,0-.08.05.05,0,0,1,.08,0Zm4.37,3.8,0,0Z"/><path class="v" d="M242.19,500.18h0a1.64,1.64,0,0,0-.45-.57h0a.74.74,0,0,1-.09.18,1,1,0,0,1-.2-.33h0s-.16.09-.17.13a.75.75,0,0,1-.14-.36c0-.1-.18.14-.18.13a.75.75,0,0,1-.16-.47s-.16.13-.14.16a.72.72,0,0,1-.1-.48h0a.42.42,0,0,0-.15.15.59.59,0,0,1-.07-.47.68.68,0,0,0-.21.1.75.75,0,0,1-.06-.51.42.42,0,0,0-.21.08.71.71,0,0,1,0-.43l0,0a.14.14,0,0,1,0-.06l0,.05c-.06,0-.17,0-.2.09a.84.84,0,0,1,0-.47c-.05,0-.18.05-.22.09-.05-.16,0-.3,0-.45a.38.38,0,0,1-.24.06c0-.16.08-.22.09-.37,0,0-.14,0-.21.05a.79.79,0,0,1,.1-.37c-.06,0-.18,0-.2,0-.06-.19.09-.3.09-.43,0,0-.11,0-.16.07-.06-.3.09-.37.18-.53,0,0-.23,0-.25,0a.64.64,0,0,1,.24-.46c-.06,0-.15,0-.21,0,0-.19.2-.33.32-.51h0s-.25-.07-.28-.05c.08-.18.33-.3.44-.46,0,0-.19-.06-.24-.05.1-.21.31-.24.46-.39-.05,0-.2-.09-.24-.08.14-.16.47-.22.65-.36a1.39,1.39,0,0,1-.35-.09,5.14,5.14,0,0,1,.55-.35,4.07,4.07,0,0,0,1.12-1.11,4.13,4.13,0,0,0,1.32.85,4.84,4.84,0,0,1,.61.22c0,.07-.25.14-.32.16.2.1.54.09.72.23-.05,0-.17.12-.22.12.17.12.39.1.53.28-.06,0-.18.12-.23.1.14.14.42.2.53.36,0,0-.22.12-.27.11h0c.15.14.37.24.41.43-.06,0-.14.06-.2,0a.68.68,0,0,1,.34.39s-.22.05-.25,0c.11.14.28.18.28.48-.06,0-.12,0-.16,0,0,.13.19.21.18.41,0,0-.15,0-.21,0a.78.78,0,0,1,.17.34c-.07,0-.17,0-.22,0,0,.14.16.18.18.34a.41.41,0,0,1-.25,0c0,.15.15.26.13.43-.05,0-.19,0-.24,0a.78.78,0,0,1,.11.46s-.15,0-.22,0l0,0,0,0h0a.7.7,0,0,1,.05.43.39.39,0,0,0-.21,0,.84.84,0,0,1,0,.52.77.77,0,0,0-.23-.06.58.58,0,0,1,0,.48.35.35,0,0,0-.19-.12h0a.77.77,0,0,1,0,.5s-.18-.13-.18-.13a.75.75,0,0,1-.05.49s-.25-.18-.21-.09a.66.66,0,0,1-.06.38s-.17-.06-.19-.09h0a1,1,0,0,1-.13.37.74.74,0,0,1-.12-.16h0a1.86,1.86,0,0,0-.33.66Zm-2.81-6.13h0c-.12.12-.19.21-.21.23l.21-.23Zm4.28-.46h0l.26.19Z"/><path class="w" d="M240.52,488.86a21.41,21.41,0,0,1,1.11,4.07,3.68,3.68,0,0,1,2.21,1.57l-.05-.07a3.84,3.84,0,0,0-2.15-1.44l.15.85a4.59,4.59,0,0,1,2,1.74,1.17,1.17,0,0,1,.13.28l-.15-.27a4.84,4.84,0,0,0-2-1.69c0,.3.09.58.12.85l0,.19a5.59,5.59,0,0,1,1.74,1.88l-.05-.07A6.19,6.19,0,0,0,242,495c0,.36.09.78.12,1.22a4.46,4.46,0,0,1,1.28,1.59,5,5,0,0,0-1.27-1.51q0,.53.06,1.05a5.24,5.24,0,0,1,.83,1.2l-.11-.15a6.33,6.33,0,0,0-.72-1,8,8,0,0,1-.13,1.79v-.12a12.1,12.1,0,0,0,.06-1.6,6.61,6.61,0,0,0-.64,1l-.1.16a5.29,5.29,0,0,1,.74-1.23c0-.36,0-.71-.07-1.07a5,5,0,0,0-1.21,1.57,4.31,4.31,0,0,1,1.2-1.64c0-.41-.08-.81-.14-1.2a6.08,6.08,0,0,0-1.39,2l0,.08a5.62,5.62,0,0,1,1.42-2.12c0-.24-.07-.48-.11-.72l-.06-.35a4.59,4.59,0,0,0-1.62,2.09,1.08,1.08,0,0,0-.09.29.82.82,0,0,1,.07-.3,4.53,4.53,0,0,1,1.63-2.15q-.08-.4-.15-.84a3.75,3.75,0,0,0-1.79,1.85l0,.07a3.75,3.75,0,0,1,1.81-2,21.36,21.36,0,0,0-1.13-4s0-.09,0-.1a.07.07,0,0,1,.1,0Zm1.5,7.5v0Z"/><path class="x" d="M97.37,192.87a1.24,1.24,0,0,1,1.59.21l1.77,1.34,1-.42s-1.36-2-2.29-2.23-.58-1.73-4.06-2.33c-2.57-.43-3.21-.77-3.38-.91l1.31,1.88S90,194.67,90,195.22C90,195.22,96.49,193.45,97.37,192.87Zm-40.29,2c-1,0-3.58-1-5-.37l2.21,1.67s-2.12,6.35-1.58,7.11,4-2.37,4-2.37l-.65-1.19,1.41.32,1.4-2,1.45.06,1.64,1,1.06-.69-1.78-1.2S58.06,194.89,57.08,194.9Zm82.58,38.78c-.57-.62-5.94,2.13-6.1,4.59l-3.26.26,1.3,1.14s3.27,2.22,4.7,2.41a6.61,6.61,0,0,1,2.33.71l1.06.56.23-1.76L137,240.51S140.22,234.31,139.66,233.68Zm67.5-26.84c1.82.15,2.2.38,2.24.52l.37-.91-3.11-1.26s-.08-1.46.35-1.53,2-3.37,2.72-3.4-5.36-1.42-7.26,2.32l-.61.29-2.83-.13a9.2,9.2,0,0,1,1.29,1C200.7,204.17,204.35,206.59,207.16,206.84Zm-41.23,31.83c.62.69,4.47.59,4.47.59l1.23.4.07-.6-1.22-.4s-1.19-.64-1.29-1a19.5,19.5,0,0,1,.84-3.16l1.55-2.1-.05-.73c-2.24-.18-6.88,3.82-6.88,3.82l-2.52-.32C162.8,237.66,165.31,238,165.93,238.67ZM57.62,221.55a6.74,6.74,0,0,0,.67-7.3s-1.4,2-2,2-3.15,3.46-3.15,3.46l-3.23-.3c.4,1.27,5.18,3.83,5.18,3.83l3.21.42c.7.09,1.66,1.43,1.66,1.43l.64-.52.42-1-3.51-1.42Zm57.56,16.64,1.52.76.47-1.18-2.17-.7-1.46-1.16c1-.42,1.83-4.17,1.83-4.17l-1.74-.23s2.15-.41,2.22-.95a21.57,21.57,0,0,0-1-3.58s-1.13,2.47-1.76,2.39-3.24,5-3.24,5l-2.87-.24C108.32,237.44,115.18,238.19,115.18,238.19Zm87.65,36.52,1.95.79v-.69s-1.94-.86-2.37-1-.4-1-.4-1l1.44-1.42-.41-.28a24,24,0,0,0,2.13-2.62c0-.3-1.18-.53-1.74-.38s-5.16,1.24-5.11,2.92L195,271S196.61,273.82,202.83,274.71ZM105.7,222c.55.76,3.21-2.34,3.21-2.34l1-1.25,1.66-1.58,3.39,1.27.24-.66s-5.82-4.9-10.79-4l2.07,1.51S105.15,221.21,105.7,222Zm36.8-10.48s1.55,2.27,7.07,3.47l1.63.58.21.63.4-.91-3-2.09.51-.66s1.95-4.11-.4-5.63c0,0-3.73,3.51-3.56,4.38,0,0-3.29-.91-3.78-.37l.09.37Zm53,35.86c-.85-1-2.69,2.09-3.33,2.23s-1.95,2.64-1.93,3.18l-.3.19s-2.73-1-3-.62.78.87.78.87,2.6,2.62,3.64,2.84,4.13.54,4.13.54l1.51.73.57-.23a27.68,27.68,0,0,0-3-2C194.22,255,196.34,248.37,195.49,247.35Zm11.27-14.47-.38.17a18,18,0,0,1,2.37,2.37c.28.57.78,5,2.14,5.54s2.4-3.35,2.4-3.35l.2-.2.87.19,1.48,1,1.4-.43S210.55,232.61,206.76,232.88Zm43.65,19.65,1.06.75s1.63.51,1.05-.55-6.34-4.11-7-4.57a8.6,8.6,0,0,0-3-.54l1.47,1.79c.34.12,0,.91,0,.91-1.3.44-2.54,6.45-2.54,6.45,1.15.15,1.79-1.37,4-1.61s4.2-2.81,4.2-2.81Zm63.41,8.85a15.34,15.34,0,0,0,4.16.24,3.58,3.58,0,0,1,2.22.14l1.65,1,.91-1.49-2.67-.73-.68-.92s1.1-4.35-1.77-5.57c0,0-2.55,3.78-2.58,4s-2.91-.31-2.91-.31l.17.71,1.86,1.54ZM258.52,218c-1.85-.17-4.21-.55-4.21-.55l-.12.21,2.3,1.52a24.74,24.74,0,0,0,.73,4,24.7,24.7,0,0,1,1.11,2.44s3.25-3.7,3.16-4.32,3.77.5,3.77.5S260.37,218.19,258.52,218Zm-47,4.42-1-.74-1.94-1.47s2.36-3.93.58-6.59l-1.57,1.13s-2.9,2.65-2.73,3.52-3.54-.1-3.54-.1l-.05.36s1.68,1.31,1.63,1.67-.12,1-.12,1l5,.78A22.1,22.1,0,0,1,210.3,223Zm14.4,52.29c3.36-1.86,1.52-7.31,1.52-7.31-.63-.57-5.43,5.71-5.43,5.71l-3.07-.4c1.79,3.63,8.53,4.27,8.53,4.27l1.31.78.72,0,.15-1.2-2-.63Zm-63.06-51.62.75-1.36-1.1-.26-1.07-.51s-4.25-3.34-8.12-3.11L155,220s.26,5.6,1.47,6.13,3.4-4.28,3.4-4.28l2.22.41Zm130.43,23.44a11.12,11.12,0,0,0-2.56-1.06,19.36,19.36,0,0,0-4.69,0l2,1.84s-3.38,4.16-3,6.63c0,0,6-1.51,6.86-4.68l1.3-.19,1.86,1,1.37.42.11-.83L293.81,248Zm51,1.77c.07-.6,1.58-2.34,1.07-3.86s-1.07-1.59-1.07-1.59l-.7-1.19s-1.6,1.37-1.65,1.73-1.41,2.12-1.38,3-3.24-.18-3.24-.18L338.9,248s-1.39,3.09-1.16,3.49c0,0,4.25.07,6.27-1.24l2.43.92,1.2.64.23-1.79S344.18,248.92,344.26,248.33Zm-184.62,1.52,2.3,2s2.48,6,3,6.33,2.39-4.17,2.39-4.17l1.86-.12,1.58.94,0-.74S164.24,248.39,159.64,249.85Z"/><path class="y" d="M28.57,311.26a8,8,0,0,1,2.6-.91C17.35,313,4.2,325.72,4,340.86,3.74,361,23.37,376,28.14,379.36-9.12,331.59,28.57,311.26,28.57,311.26Z"/><path class="y" d="M30.72,379.54l3.4,0c-12.88-47.55,1-69.41,1-69.41a6.24,6.24,0,0,1,.79-.32,29,29,0,0,0-3.82.35c.49-.07.82-.1.82-.1C7.18,330,28.78,375.59,30.72,379.54Z"/><path class="y" d="M38.9,379.61l3.39,0c2.19-4,25.62-48.41.53-69,0,0,0-.05.23,0a28.57,28.57,0,0,0-4-.69l.07,0C49.81,330.78,39.51,376.93,38.9,379.61Z"/><path class="y" d="M45,379.35c5-3.74,23.66-18.85,24.26-37.63.44-13.55-10.31-25.44-22.54-30C51,314.53,80.61,336,45,379.35Z"/><path class="z" d="M30.72,379.54c-1.94-4-23.54-49.52,2.14-69.45,0,0-.33,0-.82.1l-.87.16a8,8,0,0,0-2.6.91s-37.69,20.33-.43,68.1l.23.16Z"/><path class="z" d="M42.82,310.67c25.09,20.56,1.66,65-.53,69l2.25,0,0,.07.51-.38c35.6-43.4,6-64.82,1.72-67.58a31.07,31.07,0,0,0-3.68-1.12C42.81,310.62,42.82,310.67,42.82,310.67Z"/><path class="z" d="M34.12,379.57l4.78,0c.61-2.68,10.91-48.83.17-69.62L39,310c-.74-.07-1.49-.12-2.23-.13-.3,0-.6,0-.91,0a6.24,6.24,0,0,0-.79.32S21.24,332,34.12,379.57Z"/><polygon class="aa" points="29.81 390.15 28.95 381.51 29.27 381.48 29.5 383.9 30.6 381.84 30.87 381.99 29.56 384.46 30.12 390.12 29.81 390.15"/><polygon class="aa" points="36.05 390.21 36.16 384.63 34.21 382.08 34.46 381.89 36.17 384.13 36.23 380.92 36.54 380.92 36.48 384.07 38.03 381.9 38.28 382.08 36.47 384.63 36.47 384.63 36.36 390.22 36.05 390.21"/><polygon class="aa" points="42.58 390.18 43.23 384.7 41.7 381.98 41.97 381.82 43.3 384.17 43.59 381.69 43.91 381.73 42.89 390.22 42.58 390.18"/><polygon class="y" points="43.78 382.26 29.02 382.07 25.34 377.33 47.35 377.62 43.78 382.26"/><path class="ab" d="M28.57,381.49l-.53-.68,16.69.22-.51.67-15.65-.21Zm-2.18-2.81-.53-.68,21,.28-.51.67Z"/><path class="ac" d="M43,397.73c1-2.2.1-7.64.1-7.64l-13.48-.18s-1,5.42-.1,7.64C30.21,399.35,42.2,399.5,43,397.73Z"/><path class="aa" d="M43.19,397.05c.58-2.47-.12-7-.12-7l-13.48-.18s-.82,4.47-.3,6.95C32.27,397.82,40.19,397.92,43.19,397.05Z"/><rect class="ad" x="36.05" y="382.91" width="0.78" height="14.45" transform="translate(-354.14 421.44) rotate(-89.25)"/></svg>