<svg xmlns="http://www.w3.org/2000/svg" viewBox="0 0 295.05 193.87"><defs><style>.a{opacity:0.5;}.b{fill:#f0faff;}.c{fill:#00bed5;}.d{fill:#00cce3;}.e{opacity:0.3;}.f{fill:#fff;}.g{fill:#51d4e1;}.h{fill:#659eaf;}.i{fill:#d06d4e;}.j{fill:#af4930;}.k{fill:#fffeff;}.l{fill:#b3e6ff;}.m{fill:#d1efff;}.n{fill:none;}</style></defs><title>banner-winter</title><g class="a"><path class="b" d="M175.46,69.07H276c0-5-5.24-8.1-5.24-8.1s2.14-9.61-13.45-13.24-19.85,5.77-19.85,5.77c-16.56-4.65-23.91,6.61-23.91,6.61l-2.34-.21c-16.87-9-22.88,1.07-22.88,1.07s-13.52,1.49-13,7.42A3.16,3.16,0,0,0,175.46,69.07Z" transform="translate(-18.14 -34.04)"/></g><g class="a"><path class="b" d="M254.28,127.69h49.46c0-2.47-2.58-4-2.58-4s1-4.73-6.61-6.51-9.77,2.83-9.77,2.83c-8.14-2.28-11.75,3.26-11.75,3.26l-1.16-.11c-8.29-4.41-11.25.53-11.25.53s-6.65.73-6.41,3.64A1.28,1.28,0,0,0,254.28,127.69Z" transform="translate(-18.14 -34.04)"/></g><g class="a"><path class="b" d="M40.32,44.94H89.78c0-2.47-2.58-4-2.58-4s1-4.73-6.61-6.51-9.76,2.83-9.76,2.83C62.68,35,59.07,40.54,59.07,40.54l-1.16-.11C49.62,36,46.66,41,46.66,41s-6.65.73-6.41,3.64A1.86,1.86,0,0,0,40.32,44.94Z" transform="translate(-18.14 -34.04)"/></g><polygon class="c" points="140.76 161.79 99.36 78.38 88.77 106.18 70.37 123.98 66.69 139.55 53.58 161.79 140.76 161.79"/><polygon class="d" points="148.35 18.31 115.51 110.93 87.62 161.79 213.44 161.79 148.35 18.31"/><polygon class="c" points="181.47 53.53 155.71 106.92 133.86 123.61 122.59 160.31 244.26 160.31 233.22 129.17 217.58 124.72 181.47 53.53"/><polygon class="b" points="99.36 78.38 88.77 106.18 95.62 101.07 95.83 106.18 100.62 100.07 102.33 106.18 106.5 102.25 113.52 106.92 108.87 97.55 99.36 78.38"/><polygon class="b" points="148.31 18.31 142.94 33.51 135.64 54.16 144.58 41.01 145.37 50.41 149.58 40.01 155.87 50.91 155.46 42.19 163.19 51.04 158.79 35.91 148.31 18.31"/><polygon class="b" points="181.4 53.53 174.6 67.77 168.11 81.23 175.04 75.99 178.12 80.74 181.54 75.4 186.96 81.49 188.54 77.41 194.07 78.38 187.41 63.63 181.4 53.53"/><g class="e"><polygon class="f" points="101.19 96.91 88.77 115.07 76.29 126.4 73.96 139.74 89.62 121.57 109.71 111.37 101.19 96.91"/></g><g class="e"><polygon class="f" points="148.81 33.51 138 68.73 142.71 83.19 133.86 78.38 116.83 125.09 103.27 142.89 122.59 137.69 129.03 116.19 150.53 96.91 149.5 70.96 156.4 53.53 148.81 33.51"/></g><g class="e"><polygon class="f" points="179.4 68.37 161.46 105.07 167.67 115.08 156.4 115.08 138.69 127.32 129.83 153.64 139.38 137.69 157.32 127.32 171.35 123.98 175.49 113.04 179.4 68.37"/></g><path class="g" d="M225.78,191.43c1.6.81,5.38.92,4.52.62-3.8-3.6-7.17-13.66-7.49-15.17a5.45,5.45,0,0,0,4,1c-4.53-4.5-7-12-8.73-18-1.68,5.94-4.2,13.48-8.73,18a5.45,5.45,0,0,0,4-1c-.32,1.51-3.69,11.57-7.49,15.17-.85.3,3.31.35,4.52-.62a38.8,38.8,0,0,1-9.25,16.78c6.3,1.75,27.56,1.75,33.86,0C228.2,201.89,225.78,191.43,225.78,191.43Z" transform="translate(-18.14 -34.04)"/><path class="h" d="M223.34,178.66c-.28-.85-.47-1.48-.53-1.78a5.49,5.49,0,0,0,3.89,1c-1.87-.44-3.48-1.8-5.55-2.08A17.77,17.77,0,0,1,223.34,178.66Z" transform="translate(-18.14 -34.04)"/><path class="h" d="M227.19,195.82a36.23,36.23,0,0,1-1.41-4.39c1.6.81,5.38.92,4.52.62-.12-.11-.23-.22-.34-.34-2.3-.23-4.41-1.25-6.52-1.82A10.61,10.61,0,0,0,227.19,195.82Z" transform="translate(-18.14 -34.04)"/><path class="h" d="M215.05,175.06c-2.09.56-3.71,2-5.6,2.79a5.49,5.49,0,0,0,3.94-1,33.38,33.38,0,0,1-1.12,3.47C213.84,179,215.32,177.39,215.05,175.06Z" transform="translate(-18.14 -34.04)"/><path class="h" d="M206.12,191.83l-.22.22c-.85.3,3.31.35,4.52-.62a18.91,18.91,0,0,1-.53,1.92,5.65,5.65,0,0,0,2.11-4.18C209.93,190,208.08,191.07,206.12,191.83Z" transform="translate(-18.14 -34.04)"/><path class="h" d="M202,207.32c-.26.3-.52.59-.8.89,6.3,1.75,27.56,1.75,33.86,0a23.28,23.28,0,0,1-2.3-2.47C223.93,208.92,212,208.21,202,207.32Z" transform="translate(-18.14 -34.04)"/><polygon class="i" points="200.03 148.63 199.22 180.92 201.89 180.92 200.03 148.63"/><polygon class="j" points="200.03 148.63 201.09 180.77 199.22 180.77 199.22 180.92 201.89 180.92 200.03 148.63"/><polygon class="i" points="200.56 163 200.56 163.89 206.63 160.45 200.56 163"/><polygon class="j" points="200.56 163.73 200.56 163.89 206.63 160.45 200.56 163.73"/><polygon class="i" points="200.41 158.04 195.9 156.15 200.16 158.56 200.41 158.04"/><polygon class="j" points="200.2 158.47 200.16 158.56 195.9 156.15 200.2 158.47"/><polygon class="i" points="200.41 168.54 191.47 164.78 199.92 169.57 200.41 168.54"/><polygon class="j" points="200 169.39 199.92 169.57 191.47 164.78 200 169.39"/><path class="k" d="M293.18,181.8c1.5.76,5,.86,4.23.58-3.55-3.36-6.71-12.79-7-14.2a5.13,5.13,0,0,0,3.77.9c-4.25-4.21-6.6-11.28-8.18-16.84-1.58,5.56-3.93,12.63-8.18,16.84a5.13,5.13,0,0,0,3.77-.9c-.3,1.41-3.46,10.84-7,14.2-.81.28,3.09.33,4.23-.58a36.4,36.4,0,0,1-8.66,15.72c5.9,1.64,25.81,1.64,31.7,0C295.45,191.6,293.18,181.8,293.18,181.8Z" transform="translate(-18.14 -34.04)"/><path class="h" d="M290.89,169.84c-.26-.79-.43-1.38-.49-1.66a5.16,5.16,0,0,0,3.64.91c-1.74-.4-3.25-1.68-5.19-1.94A16.41,16.41,0,0,1,290.89,169.84Z" transform="translate(-18.14 -34.04)"/><path class="h" d="M294.5,185.92a35.51,35.51,0,0,1-1.32-4.12c1.5.76,5,.86,4.23.58-.1-.09-.21-.2-.31-.31-2.16-.21-4.13-1.17-6.11-1.71A10,10,0,0,0,294.5,185.92Z" transform="translate(-18.14 -34.04)"/><path class="h" d="M283.13,166.47c-1.95.53-3.47,1.89-5.24,2.62a5.17,5.17,0,0,0,3.69-.91,31.13,31.13,0,0,1-1.05,3.25C282,170.14,283.39,168.65,283.13,166.47Z" transform="translate(-18.14 -34.04)"/><path class="h" d="M274.77,182.18l-.2.2c-.81.28,3.09.33,4.23-.58,0,0-.14.67-.5,1.81a5.35,5.35,0,0,0,2-3.92C278.34,180.48,276.61,181.46,274.77,182.18Z" transform="translate(-18.14 -34.04)"/><path class="h" d="M270.89,196.69l-.75.83c5.9,1.64,25.81,1.64,31.7,0a23.43,23.43,0,0,1-2.15-2.31C291.45,198.19,280.28,197.52,270.89,196.69Z" transform="translate(-18.14 -34.04)"/><polygon class="i" points="267.92 139.56 267.15 169.8 269.66 169.8 267.92 139.56"/><polygon class="j" points="267.92 139.56 268.91 169.66 267.16 169.66 267.15 169.8 269.66 169.8 267.92 139.56"/><polygon class="i" points="268.41 153.02 268.41 153.85 274.09 150.63 268.41 153.02"/><polygon class="j" points="268.41 153.7 268.41 153.85 274.09 150.63 268.41 153.7"/><polygon class="i" points="268.27 148.38 264.05 146.6 268.04 148.86 268.27 148.38"/><polygon class="j" points="268.08 148.78 268.04 148.86 264.05 146.6 268.08 148.78"/><polygon class="i" points="268.27 158.21 259.9 154.69 267.81 159.17 268.27 158.21"/><polygon class="j" points="267.89 159 267.81 159.17 259.9 154.69 267.89 159"/><path class="k" d="M55.85,176.75c1.07.54,3.61.61,3,.42-2.54-2.42-4.8-9.17-5-10.18a3.62,3.62,0,0,0,2.7.64c-3-3-4.73-8.07-5.86-12-1.13,4-2.82,9-5.86,12a3.62,3.62,0,0,0,2.7-.64c-.22,1-2.48,7.76-5,10.18-.58.19,2.22.23,3-.42A26.09,26.09,0,0,1,39.35,188c4.22,1.17,18.48,1.17,22.7,0C57.47,183.76,55.85,176.75,55.85,176.75Z" transform="translate(-18.14 -34.04)"/><path class="h" d="M54.21,168.18a11.46,11.46,0,0,1-.35-1.19,3.66,3.66,0,0,0,2.61.66c-1.25-.29-2.34-1.21-3.72-1.4A12.08,12.08,0,0,1,54.21,168.18Z" transform="translate(-18.14 -34.04)"/><path class="h" d="M56.79,179.7a24.68,24.68,0,0,1-.94-2.95c1.07.54,3.61.61,3,.42l-.23-.23a27.08,27.08,0,0,1-4.37-1.22A7.15,7.15,0,0,0,56.79,179.7Z" transform="translate(-18.14 -34.04)"/><path class="h" d="M48.65,165.77c-1.4.38-2.49,1.35-3.75,1.87a3.66,3.66,0,0,0,2.64-.65,21.82,21.82,0,0,1-.75,2.33C47.84,168.4,48.84,167.33,48.65,165.77Z" transform="translate(-18.14 -34.04)"/><path class="h" d="M42.66,177l-.14.15c-.58.19,2.22.23,3-.42,0,0-.1.48-.35,1.29a3.83,3.83,0,0,0,1.41-2.81C45.22,175.8,44,176.51,42.66,177Z" transform="translate(-18.14 -34.04)"/><path class="h" d="M39.88,187.41l-.53.6c4.22,1.17,18.48,1.17,22.7,0a17.2,17.2,0,0,1-1.54-1.66C54.61,188.48,46.61,188,39.88,187.41Z" transform="translate(-18.14 -34.04)"/><polygon class="i" points="32.61 136.84 32.06 158.49 33.85 158.49 32.61 136.84"/><polygon class="j" points="32.61 136.84 33.32 158.39 32.06 158.39 32.06 158.49 33.85 158.49 32.61 136.84"/><polygon class="i" points="32.96 146.48 32.96 147.07 37.03 144.76 32.96 146.48"/><polygon class="j" points="32.96 146.96 32.96 147.07 37.03 144.76 32.96 146.96"/><polygon class="i" points="32.86 143.15 29.83 141.88 32.69 143.5 32.86 143.15"/><polygon class="j" points="32.72 143.44 32.69 143.5 29.83 141.88 32.72 143.44"/><polygon class="i" points="32.86 150.19 26.86 147.67 32.53 150.88 32.86 150.19"/><polygon class="j" points="32.59 150.76 32.53 150.88 26.86 147.67 32.59 150.76"/><path class="g" d="M42.75,187.58c1.6.8,5.38.92,4.52.62-3.79-3.6-7.16-13.66-7.49-15.17a5.45,5.45,0,0,0,4,1c-4.53-4.5-7-12-8.73-18-1.68,5.94-4.2,13.48-8.73,18a5.48,5.48,0,0,0,4-1c-.33,1.51-3.7,11.57-7.49,15.17-.86.3,3.3.35,4.51-.62a38.8,38.8,0,0,1-9.25,16.78c6.3,1.75,27.56,1.75,33.86,0C45.17,198,42.75,187.58,42.75,187.58Z" transform="translate(-18.14 -34.04)"/><path class="h" d="M40.31,174.8c-.28-.84-.47-1.47-.53-1.77a5.49,5.49,0,0,0,3.89,1c-1.86-.44-3.48-1.8-5.55-2.08A16.74,16.74,0,0,1,40.31,174.8Z" transform="translate(-18.14 -34.04)"/><path class="h" d="M44.16,192a36.88,36.88,0,0,1-1.41-4.39c1.6.8,5.38.92,4.52.62l-.34-.34c-2.3-.23-4.41-1.25-6.52-1.82A10.61,10.61,0,0,0,44.16,192Z" transform="translate(-18.14 -34.04)"/><path class="h" d="M32,171.21c-2.09.56-3.71,2-5.6,2.79a5.5,5.5,0,0,0,3.95-1c-.11.47-.51,1.78-1.13,3.47C30.81,175.13,32.29,173.54,32,171.21Z" transform="translate(-18.14 -34.04)"/><path class="h" d="M23.09,188l-.21.22c-.86.3,3.3.35,4.51-.62a18.91,18.91,0,0,1-.53,1.92A5.65,5.65,0,0,0,29,185.32C26.9,186.16,25.06,187.21,23.09,188Z" transform="translate(-18.14 -34.04)"/><path class="h" d="M18.94,203.47c-.26.3-.52.59-.8.89,6.3,1.75,27.56,1.75,33.86,0a24.37,24.37,0,0,1-2.3-2.47C40.9,205.07,29,204.36,18.94,203.47Z" transform="translate(-18.14 -34.04)"/><polygon class="i" points="17 144.78 16.19 177.07 18.87 177.07 17 144.78"/><polygon class="j" points="17 144.78 18.06 176.92 16.19 176.92 16.19 177.07 18.87 177.07 17 144.78"/><polygon class="i" points="17.53 159.15 17.53 160.04 23.6 156.6 17.53 159.15"/><polygon class="j" points="17.53 159.88 17.53 160.04 23.6 156.6 17.53 159.88"/><polygon class="i" points="17.38 154.19 12.87 152.3 17.13 154.71 17.38 154.19"/><polygon class="j" points="17.17 154.62 17.13 154.71 12.87 152.3 17.17 154.62"/><polygon class="i" points="17.38 164.69 8.44 160.93 16.89 165.72 17.38 164.69"/><polygon class="j" points="16.98 165.54 16.89 165.72 8.44 160.93 16.98 165.54"/><path class="g" d="M140.86,192.2c1.07.54,3.6.61,3,.41-2.54-2.41-4.81-9.15-5-10.17a3.62,3.62,0,0,0,2.7.64c-3-3-4.73-8.06-5.86-12-1.13,4-2.81,9-5.85,12a3.64,3.64,0,0,0,2.7-.64c-.22,1-2.48,7.76-5,10.17-.58.2,2.21.24,3-.41a26,26,0,0,1-6.2,11.25c4.22,1.17,18.48,1.17,22.7,0C142.48,199.21,140.86,192.2,140.86,192.2Z" transform="translate(-18.14 -34.04)"/><path class="h" d="M139.22,183.63a11.46,11.46,0,0,1-.35-1.19,3.66,3.66,0,0,0,2.61.66c-1.25-.29-2.33-1.21-3.72-1.39A11.56,11.56,0,0,1,139.22,183.63Z" transform="translate(-18.14 -34.04)"/><path class="h" d="M141.8,195.14a24.93,24.93,0,0,1-.94-2.94c1.07.54,3.6.61,3,.41l-.23-.23a27.06,27.06,0,0,1-4.37-1.21A7.13,7.13,0,0,0,141.8,195.14Z" transform="translate(-18.14 -34.04)"/><path class="h" d="M133.67,181.22c-1.4.38-2.49,1.35-3.76,1.87a3.7,3.7,0,0,0,2.65-.65,22.79,22.79,0,0,1-.76,2.33C132.85,183.85,133.85,182.78,133.67,181.22Z" transform="translate(-18.14 -34.04)"/><path class="h" d="M127.68,192.47l-.14.14c-.58.2,2.21.24,3-.41a11.86,11.86,0,0,1-.35,1.29,3.83,3.83,0,0,0,1.41-2.81C130.23,191.25,129,192,127.68,192.47Z" transform="translate(-18.14 -34.04)"/><path class="h" d="M124.9,202.85q-.25.3-.54.6c4.22,1.17,18.48,1.17,22.7,0a16,16,0,0,1-1.54-1.66C139.62,203.92,131.62,203.45,124.9,202.85Z" transform="translate(-18.14 -34.04)"/><polygon class="i" points="117.62 152.29 117.07 173.93 118.87 173.93 117.62 152.29"/><polygon class="j" points="117.62 152.29 118.33 173.84 117.08 173.84 117.07 173.93 118.87 173.93 117.62 152.29"/><polygon class="i" points="117.97 161.92 117.97 162.52 122.04 160.21 117.97 161.92"/><polygon class="j" points="117.97 162.41 117.97 162.52 122.04 160.21 117.97 162.41"/><polygon class="i" points="117.87 158.6 114.85 157.33 117.7 158.94 117.87 158.6"/><polygon class="j" points="117.73 158.88 117.7 158.94 114.85 157.33 117.73 158.88"/><polygon class="i" points="117.87 165.63 111.88 163.11 117.54 166.32 117.87 165.63"/><polygon class="j" points="117.6 166.2 117.54 166.32 111.88 163.11 117.6 166.2"/><path class="g" d="M307,195.37c1.08.54,3.61.61,3,.42-2.54-2.41-4.8-9.16-5-10.17a3.67,3.67,0,0,0,2.7.64c-3-3-4.73-8.07-5.86-12-1.13,4-2.81,9-5.85,12a3.67,3.67,0,0,0,2.7-.64c-.22,1-2.48,7.76-5,10.17-.58.19,2.21.23,3-.42a26.08,26.08,0,0,1-6.2,11.25c4.22,1.17,18.47,1.17,22.69,0C308.62,202.38,307,195.37,307,195.37Z" transform="translate(-18.14 -34.04)"/><path class="h" d="M305.35,186.81c-.18-.57-.31-1-.35-1.19a3.7,3.7,0,0,0,2.61.65c-1.25-.29-2.33-1.2-3.72-1.39A11.12,11.12,0,0,1,305.35,186.81Z" transform="translate(-18.14 -34.04)"/><path class="h" d="M307.94,198.32a26.18,26.18,0,0,1-.95-2.95c1.08.54,3.61.61,3,.42l-.23-.23a27.08,27.08,0,0,1-4.37-1.22A7.17,7.17,0,0,0,307.94,198.32Z" transform="translate(-18.14 -34.04)"/><path class="h" d="M299.8,184.39c-1.4.38-2.49,1.35-3.75,1.88a3.71,3.71,0,0,0,2.64-.65c-.07.31-.34,1.19-.75,2.32C299,187,300,186,299.8,184.39Z" transform="translate(-18.14 -34.04)"/><path class="h" d="M293.81,195.64l-.14.15c-.58.19,2.21.23,3-.42,0,0-.1.48-.36,1.29a3.8,3.8,0,0,0,1.41-2.81C296.37,194.42,295.13,195.13,293.81,195.64Z" transform="translate(-18.14 -34.04)"/><path class="h" d="M291,206l-.53.6c4.22,1.17,18.47,1.17,22.69,0a17,17,0,0,1-1.54-1.65C305.75,207.1,297.75,206.62,291,206Z" transform="translate(-18.14 -34.04)"/><polygon class="i" points="283.75 155.46 283.2 177.1 285 177.1 283.75 155.46"/><polygon class="j" points="283.75 155.46 284.46 177.01 283.21 177.01 283.2 177.1 285 177.1 283.75 155.46"/><polygon class="i" points="284.1 165.09 284.1 165.69 288.17 163.38 284.1 165.09"/><polygon class="j" points="284.1 165.58 284.1 165.69 288.17 163.38 284.1 165.58"/><polygon class="i" points="284 161.77 280.98 160.5 283.84 162.12 284 161.77"/><polygon class="j" points="283.86 162.06 283.84 162.12 280.98 160.5 283.86 162.06"/><polygon class="i" points="284 168.81 278.01 166.29 283.68 169.5 284 168.81"/><polygon class="j" points="283.73 169.38 283.68 169.5 278.01 166.29 283.73 169.38"/><path class="k" d="M126.33,191.36c1.47.75,4.94.85,4.15.58-3.48-3.3-6.57-12.53-6.87-13.92a5,5,0,0,0,3.69.88c-4.16-4.12-6.46-11-8-16.49-1.54,5.45-3.85,12.37-8,16.49A5,5,0,0,0,115,178c-.3,1.39-3.4,10.62-6.87,13.92-.79.27,3,.31,4.14-.58a35.56,35.56,0,0,1-8.48,15.4c5.77,1.6,25.27,1.6,31.05,0C128.56,201,126.33,191.36,126.33,191.36Z" transform="translate(-18.14 -34.04)"/><path class="h" d="M124.1,179.65c-.26-.77-.43-1.36-.49-1.63a5,5,0,0,0,3.57.9c-1.71-.4-3.19-1.65-5.09-1.91A15.85,15.85,0,0,1,124.1,179.65Z" transform="translate(-18.14 -34.04)"/><path class="h" d="M127.63,195.4a34.25,34.25,0,0,1-1.3-4c1.47.75,4.94.85,4.15.58l-.31-.32c-2.11-.2-4-1.14-6-1.66A9.71,9.71,0,0,0,127.63,195.4Z" transform="translate(-18.14 -34.04)"/><path class="h" d="M116.49,176.35c-1.91.52-3.4,1.85-5.13,2.56A5,5,0,0,0,115,178c-.1.44-.47,1.64-1,3.19C115.38,179.94,116.75,178.49,116.49,176.35Z" transform="translate(-18.14 -34.04)"/><path class="h" d="M108.3,191.74l-.19.2c-.79.27,3,.31,4.14-.58,0,0-.13.66-.48,1.77a5.23,5.23,0,0,0,1.92-3.84C111.8,190.07,110.11,191,108.3,191.74Z" transform="translate(-18.14 -34.04)"/><path class="h" d="M104.5,205.94c-.24.27-.48.55-.73.82,5.77,1.6,25.27,1.6,31.05,0a23.63,23.63,0,0,1-2.11-2.26C124.64,207.41,113.69,206.76,104.5,205.94Z" transform="translate(-18.14 -34.04)"/><polygon class="i" points="101.22 149.3 100.47 178.91 102.93 178.91 101.22 149.3"/><polygon class="j" points="101.22 149.3 102.19 178.78 100.48 178.78 100.47 178.91 102.93 178.91 101.22 149.3"/><polygon class="i" points="101.7 162.48 101.7 163.29 107.27 160.13 101.7 162.48"/><polygon class="j" points="101.7 163.14 101.7 163.29 107.27 160.13 101.7 163.14"/><polygon class="i" points="101.56 157.93 97.43 156.19 101.34 158.4 101.56 157.93"/><polygon class="j" points="101.38 158.32 101.34 158.4 97.43 156.19 101.38 158.32"/><polygon class="i" points="101.56 167.56 93.36 164.11 101.11 168.5 101.56 167.56"/><polygon class="j" points="101.19 168.34 101.11 168.5 93.36 164.11 101.19 168.34"/><g class="a"><path class="b" d="M55.56,109.74H156.13c0-5-5.24-8.1-5.24-8.1S153,92,137.44,88.4s-19.85,5.77-19.85,5.77c-16.56-4.65-23.91,6.61-23.91,6.61l-2.35-.21c-16.86-9-22.87,1.07-22.87,1.07s-13.52,1.49-13,7.42A3.16,3.16,0,0,0,55.56,109.74Z" transform="translate(-18.14 -34.04)"/></g><path class="k" d="M191.72,194.67c1.08.54,3.61.61,3,.41-2.54-2.41-4.8-9.16-5-10.17a3.67,3.67,0,0,0,2.7.64c-3-3-4.73-8.07-5.86-12.05-1.12,4-2.81,9-5.85,12.05a3.67,3.67,0,0,0,2.7-.64c-.22,1-2.48,7.76-5,10.17-.57.2,2.22.24,3-.41a26,26,0,0,1-6.21,11.25c4.23,1.17,18.48,1.17,22.71,0C193.35,201.68,191.72,194.67,191.72,194.67Z" transform="translate(-18.14 -34.04)"/><path class="h" d="M190.09,186.1c-.19-.57-.32-1-.36-1.19a3.74,3.74,0,0,0,2.61.66c-1.25-.29-2.33-1.21-3.72-1.4A12.13,12.13,0,0,1,190.09,186.1Z" transform="translate(-18.14 -34.04)"/><path class="h" d="M192.67,197.61a25.72,25.72,0,0,1-.95-2.94c1.08.54,3.61.61,3,.41l-.22-.22a27.84,27.84,0,0,1-4.37-1.22A7,7,0,0,0,192.67,197.61Z" transform="translate(-18.14 -34.04)"/><path class="h" d="M184.53,183.69c-1.4.38-2.49,1.35-3.76,1.87a3.7,3.7,0,0,0,2.65-.65,22.79,22.79,0,0,1-.76,2.33C183.71,186.32,184.71,185.25,184.53,183.69Z" transform="translate(-18.14 -34.04)"/><path class="h" d="M178.54,194.94l-.15.14c-.57.2,2.22.24,3-.41,0,0-.1.48-.36,1.29a3.83,3.83,0,0,0,1.41-2.81C181.09,193.72,179.86,194.42,178.54,194.94Z" transform="translate(-18.14 -34.04)"/><path class="h" d="M175.76,205.32c-.18.2-.35.4-.54.6,4.23,1.17,18.48,1.17,22.71,0a15,15,0,0,1-1.54-1.65C190.48,206.4,182.48,205.92,175.76,205.32Z" transform="translate(-18.14 -34.04)"/><polygon class="i" points="168.48 154.76 167.93 176.41 169.73 176.41 168.48 154.76"/><polygon class="j" points="168.48 154.76 169.19 176.31 167.94 176.31 167.93 176.41 169.73 176.41 168.48 154.76"/><polygon class="i" points="168.83 164.39 168.83 164.99 172.9 162.68 168.83 164.39"/><polygon class="j" points="168.83 164.88 168.83 164.99 172.9 162.68 168.83 164.88"/><polygon class="i" points="168.73 161.07 165.71 159.8 168.57 161.42 168.73 161.07"/><polygon class="j" points="168.6 161.36 168.57 161.42 165.71 159.8 168.6 161.36"/><polygon class="i" points="168.73 168.11 162.74 165.59 168.41 168.8 168.73 168.11"/><polygon class="j" points="168.46 168.68 168.41 168.8 162.74 165.59 168.46 168.68"/><path class="l" d="M155.31,214.11c0,.92-1.8,1.66-4,1.66s-4-.74-4-1.66,1.81-1.66,4-1.66S155.31,213.19,155.31,214.11Z" transform="translate(-18.14 -34.04)"/><path class="l" d="M142.6,218.72c0,.51-1,.92-2.24.92s-2.24-.41-2.24-.92,1-.93,2.24-.93S142.6,218.21,142.6,218.72Z" transform="translate(-18.14 -34.04)"/><path class="m" d="M146.21,227c0,.51-1,.93-2.24.93s-2.24-.42-2.24-.93,1-.92,2.24-.92S146.21,226.47,146.21,227Z" transform="translate(-18.14 -34.04)"/><path class="l" d="M177.8,216c0,.52-1,.93-2.25.93s-2.24-.41-2.24-.93,1-.92,2.24-.92S177.8,215.51,177.8,216Z" transform="translate(-18.14 -34.04)"/><path class="l" d="M134.39,224.42c0,.35-.67.63-1.51.63s-1.51-.28-1.51-.63.68-.62,1.51-.62S134.39,224.08,134.39,224.42Z" transform="translate(-18.14 -34.04)"/><path class="m" d="M162.77,214.11c0,.34-.68.62-1.52.62s-1.51-.28-1.51-.62.68-.63,1.51-.63S162.77,213.76,162.77,214.11Z" transform="translate(-18.14 -34.04)"/><path class="l" d="M159.55,222.69c0,.35-.68.62-1.51.62s-1.51-.27-1.51-.62.67-.62,1.51-.62S159.55,222.35,159.55,222.69Z" transform="translate(-18.14 -34.04)"/><path class="l" d="M180.9,222.88c0,.34-.68.62-1.51.62s-1.51-.28-1.51-.62.68-.63,1.51-.63S180.9,222.53,180.9,222.88Z" transform="translate(-18.14 -34.04)"/><ellipse class="m" cx="151.23" cy="188.47" rx="4.03" ry="1.66"/><path class="l" d="M97.22,215c0,.92-1.8,1.67-4,1.67s-4-.75-4-1.67,1.81-1.66,4-1.66S97.22,214.08,97.22,215Z" transform="translate(-18.14 -34.04)"/><path class="l" d="M84.51,219.61c0,.52-1,.93-2.24.93s-2.24-.41-2.24-.93,1-.92,2.24-.92S84.51,219.1,84.51,219.61Z" transform="translate(-18.14 -34.04)"/><path class="m" d="M93.83,222.53c0,.51-1,.92-2.24.92s-2.25-.41-2.25-.92,1-.93,2.25-.93S93.83,222,93.83,222.53Z" transform="translate(-18.14 -34.04)"/><path class="l" d="M119.71,216.92c0,.51-1,.92-2.25.92s-2.24-.41-2.24-.92,1-.93,2.24-.93S119.71,216.41,119.71,216.92Z" transform="translate(-18.14 -34.04)"/><path class="l" d="M76.3,225.32c0,.35-.67.62-1.51.62s-1.51-.27-1.51-.62.68-.62,1.51-.62S76.3,225,76.3,225.32Z" transform="translate(-18.14 -34.04)"/><path class="m" d="M104.68,215c0,.35-.68.63-1.51.63s-1.52-.28-1.52-.63.68-.62,1.52-.62S104.68,214.66,104.68,215Z" transform="translate(-18.14 -34.04)"/><path class="l" d="M101.46,223.59c0,.34-.68.62-1.51.62s-1.51-.28-1.51-.62.67-.63,1.51-.63S101.46,223.24,101.46,223.59Z" transform="translate(-18.14 -34.04)"/><path class="l" d="M122.81,223.77c0,.35-.68.63-1.51.63s-1.51-.28-1.51-.63.68-.62,1.51-.62S122.81,223.43,122.81,223.77Z" transform="translate(-18.14 -34.04)"/><ellipse class="m" cx="93.14" cy="189.36" rx="4.03" ry="1.66"/><path class="l" d="M69.68,212c0,.51-1,.92-2.24.92s-2.24-.41-2.24-.92,1-.93,2.24-.93S69.68,211.51,69.68,212Z" transform="translate(-18.14 -34.04)"/><path class="l" d="M72.79,218.87c0,.35-.68.63-1.51.63s-1.51-.28-1.51-.63.67-.62,1.51-.62S72.79,218.53,72.79,218.87Z" transform="translate(-18.14 -34.04)"/><ellipse class="m" cx="43.12" cy="184.46" rx="4.03" ry="1.66"/><path class="l" d="M211.17,215c0,.92-1.8,1.67-4,1.67s-4-.75-4-1.67,1.81-1.66,4-1.66S211.17,214.08,211.17,215Z" transform="translate(-18.14 -34.04)"/><path class="l" d="M198.46,219.61c0,.52-1,.93-2.24.93s-2.24-.41-2.24-.93,1-.92,2.24-.92S198.46,219.1,198.46,219.61Z" transform="translate(-18.14 -34.04)"/><path class="m" d="M207.78,222.53c0,.51-1,.92-2.24.92s-2.24-.41-2.24-.92,1-.93,2.24-.93S207.78,222,207.78,222.53Z" transform="translate(-18.14 -34.04)"/><path class="l" d="M233.66,216.92c0,.51-1,.92-2.24.92s-2.25-.41-2.25-.92,1-.93,2.25-.93S233.66,216.41,233.66,216.92Z" transform="translate(-18.14 -34.04)"/><path class="l" d="M190.25,225.32c0,.35-.67.62-1.51.62s-1.51-.27-1.51-.62.68-.62,1.51-.62S190.25,225,190.25,225.32Z" transform="translate(-18.14 -34.04)"/><path class="m" d="M217.81,217.84c0,.35-.68.63-1.51.63s-1.51-.28-1.51-.63.67-.62,1.51-.62S217.81,217.5,217.81,217.84Z" transform="translate(-18.14 -34.04)"/><path class="l" d="M215.41,223.59c0,.34-.68.62-1.51.62s-1.51-.28-1.51-.62.68-.63,1.51-.63S215.41,223.24,215.41,223.59Z" transform="translate(-18.14 -34.04)"/><path class="l" d="M241.79,225.94c0,.35-.68.63-1.51.63s-1.51-.28-1.51-.63.68-.62,1.51-.62S241.79,225.6,241.79,225.94Z" transform="translate(-18.14 -34.04)"/><ellipse class="m" cx="208.55" cy="187.96" rx="4.03" ry="1.66"/><path class="l" d="M267.8,209.47c0,.92-1.8,1.66-4,1.66s-4-.74-4-1.66,1.81-1.66,4-1.66S267.8,208.55,267.8,209.47Z" transform="translate(-18.14 -34.04)"/><path class="l" d="M255.09,214.08c0,.51-1,.92-2.24.92s-2.24-.41-2.24-.92,1-.93,2.24-.93S255.09,213.57,255.09,214.08Z" transform="translate(-18.14 -34.04)"/><path class="m" d="M262.16,219.64c0,.51-1,.93-2.24.93s-2.24-.42-2.24-.93,1-.92,2.24-.92S262.16,219.13,262.16,219.64Z" transform="translate(-18.14 -34.04)"/><path class="l" d="M290.29,211.38c0,.52-1,.93-2.25.93s-2.24-.41-2.24-.93,1-.92,2.24-.92S290.29,210.87,290.29,211.38Z" transform="translate(-18.14 -34.04)"/><path class="l" d="M246.32,220.17c0,.34-.67.62-1.51.62s-1.51-.28-1.51-.62.68-.63,1.51-.63S246.32,219.82,246.32,220.17Z" transform="translate(-18.14 -34.04)"/><path class="m" d="M275.25,209.47c0,.34-.67.62-1.51.62s-1.51-.28-1.51-.62.68-.62,1.51-.62S275.25,209.12,275.25,209.47Z" transform="translate(-18.14 -34.04)"/><path class="l" d="M272,218.05c0,.35-.68.63-1.51.63s-1.51-.28-1.51-.63.67-.62,1.51-.62S272,217.71,272,218.05Z" transform="translate(-18.14 -34.04)"/><path class="l" d="M295.77,221.6c0,.35-.67.63-1.51.63s-1.51-.28-1.51-.63.68-.62,1.51-.62S295.77,221.26,295.77,221.6Z" transform="translate(-18.14 -34.04)"/><path class="l" d="M49.49,223.77c0,.35-.68.63-1.51.63s-1.51-.28-1.51-.63.67-.62,1.51-.62S49.49,223.43,49.49,223.77Z" transform="translate(-18.14 -34.04)"/><ellipse class="n" cx="262.38" cy="188.03" rx="4.03" ry="1.66"/></svg>