<svg xmlns="http://www.w3.org/2000/svg" xmlns:xlink="http://www.w3.org/1999/xlink" viewBox="0 0 327.13 178.91"><defs><style>.a,.b,.c,.d,.e,.f{fill:#fff;}.a,.b,.c,.g,.h,.i{fill-rule:evenodd;}.a{opacity:0.6;}.b{opacity:0.8;}.d{opacity:0.3;}.e{opacity:0.5;}.g{fill:#04c1e1;}.h,.k{fill:#ffb950;}.i,.j{fill:#fde3bc;}.l{fill:url(#a);}.m{fill:url(#b);}.n{fill:url(#c);}.o{fill:url(#d);}.p{fill:#f7f1ea;}</style><linearGradient id="a" x1="-1026.47" y1="1001.4" x2="-1026.47" y2="959.83" gradientTransform="translate(307.83 -1272.86) rotate(-45)" gradientUnits="userSpaceOnUse"><stop offset="0" stop-color="#f7f1ea"/><stop offset="0.55" stop-color="#fdfbf9"/><stop offset="1" stop-color="#fff"/></linearGradient><linearGradient id="b" x1="-3346.05" y1="-656.4" x2="-3346.05" y2="-697.97" gradientTransform="translate(-1647.23 -2698.48) rotate(-135)" xlink:href="#a"/><linearGradient id="c" x1="-1688.24" y1="-2975.98" x2="-1688.24" y2="-3017.56" gradientTransform="translate(-3072.85 -743.43) rotate(135)" xlink:href="#a"/><linearGradient id="d" x1="631.34" y1="-1318.18" x2="631.34" y2="-1359.75" gradientTransform="translate(-1117.79 682.2) rotate(45)" xlink:href="#a"/></defs><title>banner-summer</title><path class="a" d="M148.77,83.27c5.29-3,5.63,1.83,10.55-.36C154.5,83.7,154,78.69,148.77,83.27Z" transform="translate(-4.89 -36.86)"/><path class="b" d="M13.69,80.88c4-2.28,4.27,1.38,8-.28C18,81.21,17.64,77.41,13.69,80.88Z" transform="translate(-4.89 -36.86)"/><path class="c" d="M85.43,86c4-2.28,4.26,1.39,8-.27C89.77,86.3,89.37,82.5,85.43,86Z" transform="translate(-4.89 -36.86)"/><path class="d" d="M172.62,87.24a.73.73,0,1,1,1.46,0,.73.73,0,0,1-1.46,0Z" transform="translate(-4.89 -36.86)"/><path class="e" d="M93.75,82.67a.73.73,0,0,1,1.46,0,.73.73,0,0,1-1.46,0Z" transform="translate(-4.89 -36.86)"/><path class="f" d="M45.5,90.91a.74.74,0,1,1,.73.74A.73.73,0,0,1,45.5,90.91Z" transform="translate(-4.89 -36.86)"/><path class="f" d="M147.45,79.08a.32.32,0,1,1,.32.32A.31.31,0,0,1,147.45,79.08Z" transform="translate(-4.89 -36.86)"/><path class="f" d="M137.77,89.7a.28.28,0,0,1,.31-.25.26.26,0,1,1,0,.5A.28.28,0,0,1,137.77,89.7Z" transform="translate(-4.89 -36.86)"/><path class="f" d="M124.72,83.49a.31.31,0,1,1,.31.26A.29.29,0,0,1,124.72,83.49Z" transform="translate(-4.89 -36.86)"/><path class="f" d="M176.46,84.32a.28.28,0,0,1,.31-.25.26.26,0,1,1,0,.5A.28.28,0,0,1,176.46,84.32Z" transform="translate(-4.89 -36.86)"/><path class="f" d="M172,81.05a.29.29,0,0,1,.32-.25.26.26,0,1,1,0,.5A.29.29,0,0,1,172,81.05Z" transform="translate(-4.89 -36.86)"/><path class="f" d="M113.17,90.6a.31.31,0,1,1,.31.31A.31.31,0,0,1,113.17,90.6Z" transform="translate(-4.89 -36.86)"/><path class="f" d="M35.87,79.91a.32.32,0,0,1,.63,0,.32.32,0,1,1-.63,0Z" transform="translate(-4.89 -36.86)"/><path class="f" d="M54.14,79.4a.32.32,0,1,1,.63,0,.32.32,0,0,1-.63,0Z" transform="translate(-4.89 -36.86)"/><path class="f" d="M56.32,85.32a.32.32,0,1,1,.63,0,.32.32,0,0,1-.63,0Z" transform="translate(-4.89 -36.86)"/><path class="f" d="M9.29,83.24a.32.32,0,0,1,.32-.31.32.32,0,0,1,0,.63A.32.32,0,0,1,9.29,83.24Z" transform="translate(-4.89 -36.86)"/><path class="f" d="M17.07,90a.31.31,0,1,1,.31.32A.31.31,0,0,1,17.07,90Z" transform="translate(-4.89 -36.86)"/><path class="f" d="M4.89,89.7a.32.32,0,0,1,.63,0,.32.32,0,1,1-.63,0Z" transform="translate(-4.89 -36.86)"/><path class="a" d="M72.23,101.52c-5.29,3-5.63-1.83-10.55.36C66.5,101.08,67,106.1,72.23,101.52Z" transform="translate(-4.89 -36.86)"/><path class="c" d="M135.57,98.82c-4,2.28-4.27-1.39-8,.27C131.23,98.48,131.62,102.29,135.57,98.82Z" transform="translate(-4.89 -36.86)"/><path class="c" d="M41.12,100.64c-4,2.28-4.27-1.39-8,.27C36.77,100.31,37.17,104.11,41.12,100.64Z" transform="translate(-4.89 -36.86)"/><path class="d" d="M48.39,97.55a.74.74,0,1,1-.73-.73A.73.73,0,0,1,48.39,97.55Z" transform="translate(-4.89 -36.86)"/><path class="e" d="M127.25,102.12a.73.73,0,1,1-.73-.73A.73.73,0,0,1,127.25,102.12Z" transform="translate(-4.89 -36.86)"/><path class="f" d="M175.51,93.87a.74.74,0,1,1-.74-.73A.74.74,0,0,1,175.51,93.87Z" transform="translate(-4.89 -36.86)"/><path class="f" d="M73.54,105.7a.31.31,0,1,1-.31-.31A.31.31,0,0,1,73.54,105.7Z" transform="translate(-4.89 -36.86)"/><path class="f" d="M83.23,95.09a.28.28,0,0,1-.31.25.29.29,0,0,1-.32-.25.3.3,0,0,1,.32-.26A.29.29,0,0,1,83.23,95.09Z" transform="translate(-4.89 -36.86)"/><path class="f" d="M96.28,101.29a.28.28,0,0,1-.31.25.26.26,0,1,1,0-.5A.28.28,0,0,1,96.28,101.29Z" transform="translate(-4.89 -36.86)"/><path class="f" d="M44.55,100.47a.29.29,0,0,1-.31.25.26.26,0,1,1,0-.51A.29.29,0,0,1,44.55,100.47Z" transform="translate(-4.89 -36.86)"/><path class="f" d="M49,103.74a.29.29,0,0,1-.31.25.26.26,0,1,1,0-.51A.29.29,0,0,1,49,103.74Z" transform="translate(-4.89 -36.86)"/><path class="f" d="M107.83,94.19a.32.32,0,0,1-.63,0,.32.32,0,1,1,.63,0Z" transform="translate(-4.89 -36.86)"/><path class="f" d="M185.13,104.88a.31.31,0,1,1-.31-.32A.31.31,0,0,1,185.13,104.88Z" transform="translate(-4.89 -36.86)"/><path class="f" d="M166.86,105.39a.32.32,0,0,1-.63,0,.32.32,0,1,1,.63,0Z" transform="translate(-4.89 -36.86)"/><path class="f" d="M164.67,99.47a.31.31,0,1,1-.31-.31A.31.31,0,0,1,164.67,99.47Z" transform="translate(-4.89 -36.86)"/><path class="f" d="M105.74,101.21a.32.32,0,0,1-.63,0,.32.32,0,1,1,.63,0Z" transform="translate(-4.89 -36.86)"/><path class="b" d="M207.32,80.88c4-2.28,4.27,1.38,8-.28C211.66,81.21,211.27,77.41,207.32,80.88Z" transform="translate(-4.89 -36.86)"/><path class="c" d="M279.05,86c4-2.28,4.27,1.39,8-.27C283.4,86.3,283,82.5,279.05,86Z" transform="translate(-4.89 -36.86)"/><path class="e" d="M287.37,82.67a.74.74,0,0,1,1.47,0,.74.74,0,0,1-1.47,0Z" transform="translate(-4.89 -36.86)"/><path class="f" d="M239.13,90.91a.73.73,0,1,1,1.46,0,.73.73,0,1,1-1.46,0Z" transform="translate(-4.89 -36.86)"/><path class="f" d="M331.39,89.7a.29.29,0,0,1,.32-.25.26.26,0,1,1,0,.5A.29.29,0,0,1,331.39,89.7Z" transform="translate(-4.89 -36.86)"/><path class="f" d="M318.34,83.49a.29.29,0,0,1,.31-.25.26.26,0,1,1,0,.51A.29.29,0,0,1,318.34,83.49Z" transform="translate(-4.89 -36.86)"/><path class="f" d="M306.79,90.6a.32.32,0,1,1,.32.31A.31.31,0,0,1,306.79,90.6Z" transform="translate(-4.89 -36.86)"/><path class="f" d="M229.5,79.91a.32.32,0,0,1,.63,0,.32.32,0,1,1-.63,0Z" transform="translate(-4.89 -36.86)"/><path class="f" d="M247.77,79.4a.31.31,0,1,1,.62,0,.31.31,0,0,1-.62,0Z" transform="translate(-4.89 -36.86)"/><path class="f" d="M250,85.32a.32.32,0,1,1,.31.31A.31.31,0,0,1,250,85.32Z" transform="translate(-4.89 -36.86)"/><path class="f" d="M202.92,83.24a.32.32,0,0,1,.63,0,.32.32,0,1,1-.63,0Z" transform="translate(-4.89 -36.86)"/><path class="f" d="M210.69,90a.32.32,0,0,1,.63,0,.32.32,0,1,1-.63,0Z" transform="translate(-4.89 -36.86)"/><path class="f" d="M198.51,89.7a.32.32,0,0,1,.63,0,.32.32,0,1,1-.63,0Z" transform="translate(-4.89 -36.86)"/><path class="c" d="M234.74,100.64c-4,2.28-4.27-1.39-8,.27C230.4,100.31,230.79,104.11,234.74,100.64Z" transform="translate(-4.89 -36.86)"/><path class="d" d="M242,97.55a.74.74,0,1,1-.74-.73A.74.74,0,0,1,242,97.55Z" transform="translate(-4.89 -36.86)"/><path class="e" d="M320.88,102.12a.74.74,0,0,1-1.47,0,.74.74,0,0,1,1.47,0Z" transform="translate(-4.89 -36.86)"/><path class="f" d="M267.17,105.7a.32.32,0,1,1-.31-.31A.31.31,0,0,1,267.17,105.7Z" transform="translate(-4.89 -36.86)"/><path class="f" d="M276.85,95.09a.32.32,0,0,1-.62,0,.31.31,0,0,1,.62,0Z" transform="translate(-4.89 -36.86)"/><path class="f" d="M289.91,101.29a.29.29,0,0,1-.32.25.26.26,0,1,1,0-.5A.29.29,0,0,1,289.91,101.29Z" transform="translate(-4.89 -36.86)"/><path class="f" d="M238.18,100.47a.3.3,0,0,1-.32.25.26.26,0,1,1,0-.51A.3.3,0,0,1,238.18,100.47Z" transform="translate(-4.89 -36.86)"/><path class="f" d="M242.59,103.74a.3.3,0,0,1-.32.25.26.26,0,1,1,0-.51A.3.3,0,0,1,242.59,103.74Z" transform="translate(-4.89 -36.86)"/><path class="f" d="M301.45,94.19a.31.31,0,1,1-.31-.32A.31.31,0,0,1,301.45,94.19Z" transform="translate(-4.89 -36.86)"/><path class="f" d="M311.54,101.46a.32.32,0,1,1-.31-.31A.31.31,0,0,1,311.54,101.46Z" transform="translate(-4.89 -36.86)"/><path class="b" d="M13.69,111.45c4-2.29,4.27,1.38,8-.28C18,111.77,17.64,108,13.69,111.45Z" transform="translate(-4.89 -36.86)"/><path class="e" d="M93.75,113.23a.73.73,0,0,1,1.46,0,.73.73,0,1,1-1.46,0Z" transform="translate(-4.89 -36.86)"/><path class="f" d="M147.45,109.65a.32.32,0,1,1,.32.31A.31.31,0,0,1,147.45,109.65Z" transform="translate(-4.89 -36.86)"/><path class="f" d="M124.72,114.06a.32.32,0,1,1,.31.25A.28.28,0,0,1,124.72,114.06Z" transform="translate(-4.89 -36.86)"/><path class="f" d="M172,111.62a.29.29,0,0,1,.32-.25.26.26,0,1,1,0,.5A.29.29,0,0,1,172,111.62Z" transform="translate(-4.89 -36.86)"/><path class="f" d="M35.87,110.48a.32.32,0,1,1,.63,0,.32.32,0,0,1-.63,0Z" transform="translate(-4.89 -36.86)"/><path class="f" d="M54.14,110a.32.32,0,0,1,.63,0,.32.32,0,1,1-.63,0Z" transform="translate(-4.89 -36.86)"/><path class="f" d="M9.29,113.81a.33.33,0,0,1,.32-.32.32.32,0,0,1,.31.32.31.31,0,0,1-.31.31A.32.32,0,0,1,9.29,113.81Z" transform="translate(-4.89 -36.86)"/><path class="e" d="M287.37,113.23a.74.74,0,1,1,.73.74A.73.73,0,0,1,287.37,113.23Z" transform="translate(-4.89 -36.86)"/><path class="f" d="M318.34,114.06a.28.28,0,0,1,.31-.25.26.26,0,1,1,0,.5A.28.28,0,0,1,318.34,114.06Z" transform="translate(-4.89 -36.86)"/><path class="f" d="M229.5,110.48a.32.32,0,1,1,.31.31A.31.31,0,0,1,229.5,110.48Z" transform="translate(-4.89 -36.86)"/><path class="f" d="M247.77,110a.31.31,0,1,1,.31.32A.31.31,0,0,1,247.77,110Z" transform="translate(-4.89 -36.86)"/><path class="f" d="M202.92,113.81a.32.32,0,1,1,.63,0,.32.32,0,0,1-.63,0Z" transform="translate(-4.89 -36.86)"/><path class="a" d="M188.14,125c-5.29-3-5.62,1.82-10.55-.37C182.41,125.42,182.94,120.4,188.14,125Z" transform="translate(-4.89 -36.86)"/><path class="b" d="M323.22,122.6c-4-2.29-4.27,1.38-8-.28C318.87,122.92,319.27,119.12,323.22,122.6Z" transform="translate(-4.89 -36.86)"/><path class="c" d="M251.49,127.69c-4-2.28-4.27,1.38-8-.28C247.14,128,247.54,124.21,251.49,127.69Z" transform="translate(-4.89 -36.86)"/><path class="d" d="M164.29,129a.73.73,0,1,0-.73.73A.73.73,0,0,0,164.29,129Z" transform="translate(-4.89 -36.86)"/><path class="e" d="M243.17,124.38a.74.74,0,1,0-.74.74A.74.74,0,0,0,243.17,124.38Z" transform="translate(-4.89 -36.86)"/><path class="f" d="M291.41,132.63a.74.74,0,0,0-1.47,0,.74.74,0,0,0,1.47,0Z" transform="translate(-4.89 -36.86)"/><path class="f" d="M189.46,120.8a.32.32,0,1,0-.32.31A.31.31,0,0,0,189.46,120.8Z" transform="translate(-4.89 -36.86)"/><path class="f" d="M199.14,131.42a.31.31,0,0,0-.62,0,.32.32,0,0,0,.62,0Z" transform="translate(-4.89 -36.86)"/><path class="f" d="M212.2,125.21a.29.29,0,0,0-.32-.25.26.26,0,1,0,0,.5A.29.29,0,0,0,212.2,125.21Z" transform="translate(-4.89 -36.86)"/><path class="f" d="M160.45,126a.32.32,0,1,0-.31.25A.28.28,0,0,0,160.45,126Z" transform="translate(-4.89 -36.86)"/><path class="f" d="M164.87,122.77a.29.29,0,0,0-.32-.25.26.26,0,1,0,0,.5A.29.29,0,0,0,164.87,122.77Z" transform="translate(-4.89 -36.86)"/><path class="f" d="M223.74,132.32a.31.31,0,1,0-.31.31A.31.31,0,0,0,223.74,132.32Z" transform="translate(-4.89 -36.86)"/><path class="f" d="M301,121.63a.32.32,0,1,0-.63,0,.32.32,0,0,0,.63,0Z" transform="translate(-4.89 -36.86)"/><path class="f" d="M282.77,121.11a.32.32,0,0,0-.63,0,.32.32,0,1,0,.63,0Z" transform="translate(-4.89 -36.86)"/><path class="f" d="M280.59,127a.32.32,0,0,0-.63,0,.32.32,0,0,0,.63,0Z" transform="translate(-4.89 -36.86)"/><path class="f" d="M327.62,137.14a.32.32,0,1,0-.63,0,.32.32,0,0,0,.63,0Z" transform="translate(-4.89 -36.86)"/><path class="f" d="M319.85,131.67a.32.32,0,0,0-.32-.32.32.32,0,0,0,0,.63A.32.32,0,0,0,319.85,131.67Z" transform="translate(-4.89 -36.86)"/><path class="f" d="M332,143.59a.32.32,0,0,0-.63,0,.32.32,0,1,0,.63,0Z" transform="translate(-4.89 -36.86)"/><path class="a" d="M264.68,143.23c5.29,3,5.63-1.82,10.55.37C270.41,142.8,269.89,147.81,264.68,143.23Z" transform="translate(-4.89 -36.86)"/><path class="c" d="M201.34,140.53c4,2.28,4.27-1.38,8,.28C205.69,140.2,205.29,144,201.34,140.53Z" transform="translate(-4.89 -36.86)"/><path class="c" d="M295.79,142.35c4,2.28,4.27-1.38,8,.28C300.14,142,299.74,145.82,295.79,142.35Z" transform="translate(-4.89 -36.86)"/><path class="d" d="M288.52,139.27a.74.74,0,1,0,.73-.74A.73.73,0,0,0,288.52,139.27Z" transform="translate(-4.89 -36.86)"/><path class="e" d="M209.66,143.83a.73.73,0,1,0,1.46,0,.73.73,0,1,0-1.46,0Z" transform="translate(-4.89 -36.86)"/><path class="f" d="M161.41,135.59a.73.73,0,1,0,.73-.73A.73.73,0,0,0,161.41,135.59Z" transform="translate(-4.89 -36.86)"/><path class="f" d="M263.37,147.42a.31.31,0,1,0,.31-.32A.31.31,0,0,0,263.37,147.42Z" transform="translate(-4.89 -36.86)"/><path class="f" d="M253.68,136.8a.29.29,0,0,0,.32.25.26.26,0,1,0,0-.5A.29.29,0,0,0,253.68,136.8Z" transform="translate(-4.89 -36.86)"/><path class="f" d="M240.63,143a.28.28,0,0,0,.31.25.29.29,0,0,0,.32-.25.3.3,0,0,0-.32-.26A.29.29,0,0,0,240.63,143Z" transform="translate(-4.89 -36.86)"/><path class="f" d="M292.36,142.18a.28.28,0,0,0,.31.25.26.26,0,1,0,0-.5A.28.28,0,0,0,292.36,142.18Z" transform="translate(-4.89 -36.86)"/><path class="f" d="M288,145.45a.28.28,0,0,0,.31.25.26.26,0,1,0,0-.5A.28.28,0,0,0,288,145.45Z" transform="translate(-4.89 -36.86)"/><path class="f" d="M229.08,135.9a.32.32,0,1,0,.31-.31A.31.31,0,0,0,229.08,135.9Z" transform="translate(-4.89 -36.86)"/><path class="f" d="M151.78,146.59a.31.31,0,0,0,.31.32.32.32,0,1,0,0-.63A.31.31,0,0,0,151.78,146.59Z" transform="translate(-4.89 -36.86)"/><path class="f" d="M170.05,147.1a.32.32,0,1,0,.31-.31A.31.31,0,0,0,170.05,147.1Z" transform="translate(-4.89 -36.86)"/><path class="f" d="M172.24,141.19a.31.31,0,0,0,.31.31.32.32,0,1,0,0-.63A.31.31,0,0,0,172.24,141.19Z" transform="translate(-4.89 -36.86)"/><path class="f" d="M231.17,142.92a.32.32,0,1,0,.31-.31A.31.31,0,0,0,231.17,142.92Z" transform="translate(-4.89 -36.86)"/><path class="b" d="M129.59,122.6c-4-2.29-4.26,1.38-8-.28C125.25,122.92,125.64,119.12,129.59,122.6Z" transform="translate(-4.89 -36.86)"/><path class="c" d="M57.86,127.69c-4-2.28-4.27,1.38-8-.28C53.51,128,53.91,124.21,57.86,127.69Z" transform="translate(-4.89 -36.86)"/><path class="e" d="M49.54,124.38a.73.73,0,1,0-.73.74A.73.73,0,0,0,49.54,124.38Z" transform="translate(-4.89 -36.86)"/><path class="f" d="M97.78,132.63a.73.73,0,1,0-1.46,0,.73.73,0,1,0,1.46,0Z" transform="translate(-4.89 -36.86)"/><path class="f" d="M5.52,131.42a.3.3,0,0,0-.32-.26.29.29,0,0,0-.31.26.28.28,0,0,0,.31.25A.29.29,0,0,0,5.52,131.42Z" transform="translate(-4.89 -36.86)"/><path class="f" d="M18.57,125.21a.28.28,0,0,0-.31-.25.26.26,0,1,0,0,.5A.28.28,0,0,0,18.57,125.21Z" transform="translate(-4.89 -36.86)"/><path class="f" d="M30.12,132.32a.32.32,0,1,0-.31.31A.31.31,0,0,0,30.12,132.32Z" transform="translate(-4.89 -36.86)"/><path class="f" d="M107.41,121.63a.31.31,0,0,0-.31-.32.32.32,0,1,0,0,.63A.31.31,0,0,0,107.41,121.63Z" transform="translate(-4.89 -36.86)"/><path class="f" d="M89.15,121.11a.32.32,0,0,0-.32-.31.32.32,0,0,0,0,.63A.32.32,0,0,0,89.15,121.11Z" transform="translate(-4.89 -36.86)"/><path class="f" d="M87,127a.31.31,0,0,0-.31-.31.32.32,0,0,0-.32.31.31.31,0,0,0,.32.31A.31.31,0,0,0,87,127Z" transform="translate(-4.89 -36.86)"/><path class="f" d="M134,125a.32.32,0,1,0-.63,0,.32.32,0,0,0,.63,0Z" transform="translate(-4.89 -36.86)"/><path class="f" d="M126.22,131.67a.32.32,0,1,0-.31.31A.31.31,0,0,0,126.22,131.67Z" transform="translate(-4.89 -36.86)"/><path class="f" d="M138.4,131.42a.32.32,0,1,0-.63,0,.32.32,0,0,0,.63,0Z" transform="translate(-4.89 -36.86)"/><path class="c" d="M102.17,142.35c4,2.28,4.27-1.38,8,.28C106.52,142,106.12,145.82,102.17,142.35Z" transform="translate(-4.89 -36.86)"/><path class="d" d="M94.9,139.27a.73.73,0,1,0,1.46,0,.73.73,0,1,0-1.46,0Z" transform="translate(-4.89 -36.86)"/><path class="e" d="M16,143.83a.74.74,0,1,0,.74-.73A.74.74,0,0,0,16,143.83Z" transform="translate(-4.89 -36.86)"/><path class="f" d="M69.74,147.42a.32.32,0,1,0,.32-.32A.31.31,0,0,0,69.74,147.42Z" transform="translate(-4.89 -36.86)"/><path class="f" d="M60.06,136.8a.32.32,0,1,0,.31-.25A.28.28,0,0,0,60.06,136.8Z" transform="translate(-4.89 -36.86)"/><path class="f" d="M47,143a.29.29,0,0,0,.32.25.28.28,0,0,0,.31-.25.29.29,0,0,0-.31-.26A.3.3,0,0,0,47,143Z" transform="translate(-4.89 -36.86)"/><path class="f" d="M98.74,142.18a.32.32,0,1,0,.31-.25A.28.28,0,0,0,98.74,142.18Z" transform="translate(-4.89 -36.86)"/><path class="f" d="M94.32,145.45a.29.29,0,0,0,.32.25.26.26,0,1,0,0-.5A.29.29,0,0,0,94.32,145.45Z" transform="translate(-4.89 -36.86)"/><path class="f" d="M35.46,135.9a.31.31,0,1,0,.31-.31A.31.31,0,0,0,35.46,135.9Z" transform="translate(-4.89 -36.86)"/><path class="f" d="M25.37,143.17a.32.32,0,1,0,.31-.31A.31.31,0,0,0,25.37,143.17Z" transform="translate(-4.89 -36.86)"/><path class="b" d="M323.22,153.16c-4-2.28-4.27,1.38-8-.28C318.87,153.49,319.27,149.69,323.22,153.16Z" transform="translate(-4.89 -36.86)"/><path class="e" d="M243.17,155a.74.74,0,1,0-.74.73A.73.73,0,0,0,243.17,155Z" transform="translate(-4.89 -36.86)"/><path class="f" d="M189.46,151.37a.32.32,0,1,0-.63,0,.32.32,0,0,0,.63,0Z" transform="translate(-4.89 -36.86)"/><path class="f" d="M212.2,155.78a.3.3,0,0,0-.32-.26.29.29,0,0,0-.31.26.28.28,0,0,0,.31.25A.29.29,0,0,0,212.2,155.78Z" transform="translate(-4.89 -36.86)"/><path class="f" d="M164.87,153.33a.29.29,0,0,0-.32-.25.26.26,0,1,0,0,.5A.29.29,0,0,0,164.87,153.33Z" transform="translate(-4.89 -36.86)"/><path class="f" d="M301,152.19a.32.32,0,1,0-.32.32A.31.31,0,0,0,301,152.19Z" transform="translate(-4.89 -36.86)"/><path class="f" d="M282.77,151.68a.32.32,0,1,0-.31.31A.31.31,0,0,0,282.77,151.68Z" transform="translate(-4.89 -36.86)"/><path class="f" d="M327.62,155.52a.32.32,0,1,0-.32.32A.31.31,0,0,0,327.62,155.52Z" transform="translate(-4.89 -36.86)"/><path class="e" d="M49.54,155a.73.73,0,1,0-.73.73A.73.73,0,0,0,49.54,155Z" transform="translate(-4.89 -36.86)"/><path class="f" d="M18.57,155.78a.29.29,0,0,0-.31-.26.3.3,0,0,0-.32.26.29.29,0,0,0,.32.25A.28.28,0,0,0,18.57,155.78Z" transform="translate(-4.89 -36.86)"/><path class="f" d="M107.41,152.19a.31.31,0,0,0-.31-.31.32.32,0,1,0,0,.63A.31.31,0,0,0,107.41,152.19Z" transform="translate(-4.89 -36.86)"/><path class="f" d="M89.15,151.68a.32.32,0,0,0-.32-.31.31.31,0,1,0,0,.62A.32.32,0,0,0,89.15,151.68Z" transform="translate(-4.89 -36.86)"/><path class="f" d="M134,155.52a.32.32,0,0,0-.63,0,.32.32,0,1,0,.63,0Z" transform="translate(-4.89 -36.86)"/><path class="g" d="M59.77,212.72a39.91,39.91,0,1,1,39.91-39.91,39.9,39.9,0,0,1-39.91,39.91Zm0-18a21.89,21.89,0,1,1,21.89-21.89A21.88,21.88,0,0,1,59.77,194.7Z" transform="translate(-4.89 -36.86)"/><path class="c" d="M31.88,201.35l11.54-14a21.87,21.87,0,0,0,32.71,0l11.53,14a39.89,39.89,0,0,1-55.78,0Zm0-57.08a39.9,39.9,0,0,1,55.77,0l-11.53,14a21.89,21.89,0,0,0-32.71,0l-11.53-14Z" transform="translate(-4.89 -36.86)"/><path class="c" d="M169.66,48.93h0a1.84,1.84,0,0,1,1.82,1.85L171.32,208a1.86,1.86,0,0,1-1.84,1.85h0a1.87,1.87,0,0,1-1.85-1.85l.15-157.22a1.86,1.86,0,0,1,1.88-1.84Z" transform="translate(-4.89 -36.86)"/><path class="h" d="M110,98.42c8-22.27,32.69-46.08,59.64-46.05-36.78,0-70.44,23.76-81.38,46,6.11,9.22,13.49,8.6,21.82.12A.39.39,0,0,0,110,98.42Z" transform="translate(-4.89 -36.86)"/><path class="h" d="M169.64,52.37c27,0,51.56,23.87,59.53,46.16l0,0c9.46,9.27,16.76,9.35,21.76,0C240,76.26,206.42,52.4,169.64,52.37Z" transform="translate(-4.89 -36.86)"/><path class="h" d="M169.64,52.37c5.28,0,10.08,23.83,11.66,46.11-7.65,9.81-15.44,8.81-23.39,0,1.58-22.28,6.46-46.1,11.73-46.09Z" transform="translate(-4.89 -36.86)"/><path class="i" d="M169.64,52.37c-26.95,0-51.6,23.78-59.64,46.05,8.08,10.11,16.53,9.14,25.26.06l0,0c7.22,9.09,14.8,9.56,22.7,0l0,0C159.49,76.18,164.37,52.36,169.64,52.37Z" transform="translate(-4.89 -36.86)"/><path class="i" d="M169.64,52.37c5.28,0,10.08,23.83,11.66,46.11q14.67,14,22.68,0v0c10.53,9.77,18.81,9.26,25.2,0C221.2,76.24,196.59,52.39,169.64,52.37Z" transform="translate(-4.89 -36.86)"/><path class="i" d="M154.5,170.77c-2.06,2.18-2.66,5.09-1.21,6.54s4.24.85,6.42-1.33,2.79-5.09,1.34-6.42S156.68,168.59,154.5,170.77Z" transform="translate(-4.89 -36.86)"/><path class="g" d="M161.15,169.67c4.45-4,16-10.07,26.18-3.87a20.09,20.09,0,0,1,1.69,1.58,26.89,26.89,0,0,1,5.09,30.91V198c.85-2.9.12-6.29-1.45-9.32-3.39-7-9.57-11-16.84-13.33a32.69,32.69,0,0,0-14.49-1.68C162,172.13,162,170.58,161.15,169.67Z" transform="translate(-4.89 -36.86)"/><path class="c" d="M157.77,162.53a26.81,26.81,0,0,1,29.54,3.26c-10.2-6.19-21.72-.07-26.16,3.88h0l-.1-.11c-1-1-2.78-1.08-4.48-.27A21.67,21.67,0,0,1,157.77,162.53Z" transform="translate(-4.89 -36.86)"/><path class="c" d="M159.71,176a7.78,7.78,0,0,0,1.62-2.31,33,33,0,0,1,14.49,1.7c7.27,2.31,13.45,6.3,16.84,13.33,1.57,3,2.3,6.42,1.45,9.32v.37a25.87,25.87,0,0,1-5.09,7,30.51,30.51,0,0,1-6.9,5.09h-.37c-2.9.85-6.29.12-9.32-1.45-7-3.39-11-9.69-13.32-17a33,33,0,0,1-1.71-14.49A7.72,7.72,0,0,0,159.71,176Z" transform="translate(-4.89 -36.86)"/><path class="g" d="M153.4,177.41c.92.88,2.46.9,4,.18a32.88,32.88,0,0,0,1.69,14.5c2.3,7.27,6.3,13.57,13.32,17,3,1.57,6.42,2.3,9.32,1.45h.19a26.8,26.8,0,0,1-30.83-5.09c-.48-.6-1.09-1.09-1.57-1.69C143.33,193.41,149.45,181.87,153.4,177.41Z" transform="translate(-4.89 -36.86)"/><path class="c" d="M146.27,174a25.81,25.81,0,0,1,6.81-1.21c-.81,1.71-.81,3.46.21,4.48l.11.1c-3.94,4.44-10,15.93-3.91,26.22A27,27,0,0,1,146.27,174Z" transform="translate(-4.89 -36.86)"/><path class="g" d="M157.77,162.53a21.67,21.67,0,0,0-1.2,6.76,7.41,7.41,0,0,0-2.07,1.48,8.26,8.26,0,0,0-1.42,2.06,25.57,25.57,0,0,0-6.78,1.2,25.77,25.77,0,0,1,4.81-6.65A57.94,57.94,0,0,1,157.77,162.53Z" transform="translate(-4.89 -36.86)"/><path class="f" d="M138.41,164.34l-.12-.38a23.48,23.48,0,0,0-1.33-3.48,15,15,0,0,0-3.37-4.69,11,11,0,0,0-3.56-2.2,12.06,12.06,0,0,0-4.74-.73c-.55,0-1,.07-1.21.08a9.8,9.8,0,0,0-3.14.68c-5.35,2.22-5.94,9.17-5.78,12.38a34.92,34.92,0,0,0,.38,3.72,28.14,28.14,0,0,0,.57,2.79,12.86,12.86,0,0,0,1,2.79l.87,2.79.31,1a18.32,18.32,0,0,1,.54,3.37c.42,4.31.46,10.49.46,10.49l-.22,2.71-.37,4.39-.37,4.54c-.72,7.48,6.68,8.3,6.68,8.3,10.65,1.38,10.79-6.9,10.79-6.9,0-.32.1-3,.25-6,.07-1.48.15-3,.22-4.38.11-2.19.2-3.86.2-3.86l1-9.39.22-2.17s0,1,0,.48a18.9,18.9,0,0,1,.39-2.25c.3-1.53.73-3.58,1.06-5.35,0-.21.07-.41.1-.62a15.39,15.39,0,0,0,.18-2.28A19.26,19.26,0,0,0,138.41,164.34Z" transform="translate(-4.89 -36.86)"/><path class="j" d="M132.09,204.41a2.3,2.3,0,0,0-2.33,2.25,2.33,2.33,0,1,0,2.33-2.25Z" transform="translate(-4.89 -36.86)"/><path class="j" d="M132.17,186.83a2.3,2.3,0,0,0-2.33,2.25,2.27,2.27,0,0,0,2.31,2.25,2.25,2.25,0,1,0,0-4.5Z" transform="translate(-4.89 -36.86)"/><path class="j" d="M132.23,173.75a2.31,2.31,0,0,0,2.34-2.25,2.33,2.33,0,1,0-2.34,2.25Z" transform="translate(-4.89 -36.86)"/><path class="j" d="M132.31,156.16a2.37,2.37,0,0,0,1.28-.37,11,11,0,0,0-3.56-2.2c0,.11,0,.21,0,.32A2.28,2.28,0,0,0,132.31,156.16Z" transform="translate(-4.89 -36.86)"/><path class="j" d="M123,204.4a2.25,2.25,0,1,0,2.31,2.25A2.28,2.28,0,0,0,123,204.4Z" transform="translate(-4.89 -36.86)"/><path class="j" d="M123.07,191.31a2.25,2.25,0,1,0-2.31-2.26A2.29,2.29,0,0,0,123.07,191.31Z" transform="translate(-4.89 -36.86)"/><path class="j" d="M123.15,173.73a2.3,2.3,0,0,0,2.33-2.25,2.32,2.32,0,1,0-2.33,2.25Z" transform="translate(-4.89 -36.86)"/><path class="j" d="M120.94,153.62l0,.27a2.33,2.33,0,0,0,4.65,0,2.15,2.15,0,0,0-.27-1c-.55,0-1,.07-1.21.08A9.8,9.8,0,0,0,120.94,153.62Z" transform="translate(-4.89 -36.86)"/><path class="j" d="M134.33,197.88a2.24,2.24,0,0,0,1.74,2.17c.07-1.48.15-3,.22-4.38A2.26,2.26,0,0,0,134.33,197.88Z" transform="translate(-4.89 -36.86)"/><path class="j" d="M127.58,195.61a2.25,2.25,0,1,0,2.31,2.26A2.3,2.3,0,0,0,127.58,195.61Z" transform="translate(-4.89 -36.86)"/><path class="j" d="M120.81,197.85a2.26,2.26,0,0,0-1.72-2.17l-.37,4.39A2.28,2.28,0,0,0,120.81,197.85Z" transform="translate(-4.89 -36.86)"/><path class="j" d="M134.41,180.29a2.29,2.29,0,0,0,3.05,2.13l.22-2.17s0,1,0,.48a18.9,18.9,0,0,1,.39-2.25,2.33,2.33,0,0,0-3.68,1.81Z" transform="translate(-4.89 -36.86)"/><path class="j" d="M127.64,182.53a2.3,2.3,0,0,0,2.33-2.25,2.27,2.27,0,0,0-2.31-2.25,2.25,2.25,0,1,0,0,4.5Z" transform="translate(-4.89 -36.86)"/><path class="j" d="M120.89,180.26a2.28,2.28,0,0,0-2.32-2.25,2.12,2.12,0,0,0-.57.08l.31,1a18.32,18.32,0,0,1,.54,3.37A2.28,2.28,0,0,0,120.89,180.26Z" transform="translate(-4.89 -36.86)"/><path class="j" d="M134.49,162.71A2.27,2.27,0,0,0,136.8,165a2.31,2.31,0,0,0,1.61-.62l-.12-.38a23.48,23.48,0,0,0-1.33-3.48h-.14A2.28,2.28,0,0,0,134.49,162.71Z" transform="translate(-4.89 -36.86)"/><path class="j" d="M127.71,164.94a2.25,2.25,0,1,0-2.31-2.25A2.29,2.29,0,0,0,127.71,164.94Z" transform="translate(-4.89 -36.86)"/><path class="j" d="M118.65,160.43a2.25,2.25,0,1,0,2.32,2.25A2.28,2.28,0,0,0,118.65,160.43Z" transform="translate(-4.89 -36.86)"/><path class="k" d="M128.25,164.11s.82-1.91-.5-2.07l-.13,0-.14,0c-1.31.16-.49,2.07-.49,2.07-8.58,4.83-9.84,11.5-9.94,15.94-.12,5.69,2.8,9.76,4.46,10.31a1.78,1.78,0,0,0,1.91-3c-1.67-1.49-4.1-2.37-4-7.57.13-6,6.88-10.7,8.19-11.56,1.31.86,8.06,5.59,8.19,11.56.11,5.2-2.32,6.08-4,7.57a1.78,1.78,0,0,0,1.9,3c1.67-.55,4.59-4.62,4.47-10.31C138.09,175.61,136.83,168.94,128.25,164.11Z" transform="translate(-4.89 -36.86)"/><path class="f" d="M89.4,164.34l.12-.38a23.48,23.48,0,0,1,1.33-3.48,15.19,15.19,0,0,1,3.36-4.69,11.06,11.06,0,0,1,3.56-2.2,12.08,12.08,0,0,1,4.74-.73c.56,0,1,.07,1.21.08a9.69,9.69,0,0,1,3.14.68c5.36,2.22,5.94,9.17,5.79,12.38-.08,1.41-.21,2.64-.38,3.72a25.3,25.3,0,0,1-.58,2.79,12.86,12.86,0,0,1-1,2.79l-.86,2.79-.31,1a19.06,19.06,0,0,0-.55,3.37c-.41,4.31-.45,10.49-.45,10.49l.22,2.71.36,4.39.38,4.54c.72,7.48-6.69,8.3-6.69,8.3C92.13,214.29,92,206,92,206c0-.32-.11-3-.25-6-.07-1.48-.15-3-.22-4.38-.11-2.19-.2-3.86-.2-3.86l-1-9.39-.22-2.17s0,1,0,.48a20.25,20.25,0,0,0-.38-2.25c-.31-1.53-.73-3.58-1.06-5.35,0-.21-.08-.41-.11-.62a16.8,16.8,0,0,1-.17-2.28A19.26,19.26,0,0,1,89.4,164.34Z" transform="translate(-4.89 -36.86)"/><path class="j" d="M95.71,204.41A2.3,2.3,0,0,1,98,206.66a2.27,2.27,0,0,1-2.31,2.25,2.25,2.25,0,1,1,0-4.5Z" transform="translate(-4.89 -36.86)"/><path class="j" d="M95.63,186.83a2.25,2.25,0,1,1-2.31,2.26A2.28,2.28,0,0,1,95.63,186.83Z" transform="translate(-4.89 -36.86)"/><path class="j" d="M95.57,173.75a2.3,2.3,0,0,1-2.33-2.25,2.27,2.27,0,0,1,2.31-2.25,2.25,2.25,0,1,1,0,4.5Z" transform="translate(-4.89 -36.86)"/><path class="j" d="M95.49,156.16a2.43,2.43,0,0,1-1.28-.37,11.06,11.06,0,0,1,3.56-2.2,1.75,1.75,0,0,1,0,.32A2.28,2.28,0,0,1,95.49,156.16Z" transform="translate(-4.89 -36.86)"/><path class="j" d="M104.8,204.4a2.25,2.25,0,1,1-2.32,2.25A2.29,2.29,0,0,1,104.8,204.4Z" transform="translate(-4.89 -36.86)"/><path class="j" d="M104.74,191.31a2.25,2.25,0,1,1,2.31-2.26A2.3,2.3,0,0,1,104.74,191.31Z" transform="translate(-4.89 -36.86)"/><path class="j" d="M104.66,173.73a2.25,2.25,0,1,1,2.31-2.26A2.31,2.31,0,0,1,104.66,173.73Z" transform="translate(-4.89 -36.86)"/><path class="j" d="M106.86,153.62a2.48,2.48,0,0,1,0,.27,2.33,2.33,0,1,1-4.38-1c.56,0,1,.07,1.21.08A9.69,9.69,0,0,1,106.86,153.62Z" transform="translate(-4.89 -36.86)"/><path class="j" d="M93.48,197.88a2.25,2.25,0,0,1-1.74,2.17c-.07-1.48-.15-3-.22-4.38A2.28,2.28,0,0,1,93.48,197.88Z" transform="translate(-4.89 -36.86)"/><path class="j" d="M100.23,195.61a2.25,2.25,0,1,1-2.31,2.26A2.29,2.29,0,0,1,100.23,195.61Z" transform="translate(-4.89 -36.86)"/><path class="j" d="M107,197.85a2.26,2.26,0,0,1,1.72-2.17l.36,4.39A2.28,2.28,0,0,1,107,197.85Z" transform="translate(-4.89 -36.86)"/><path class="j" d="M93.4,180.29a2.28,2.28,0,0,1-2.31,2.26,2.26,2.26,0,0,1-.74-.13l-.22-2.17s0,1,0,.48a20.25,20.25,0,0,0-.38-2.25,2.33,2.33,0,0,1,3.68,1.81Z" transform="translate(-4.89 -36.86)"/><path class="j" d="M100.17,182.53a2.3,2.3,0,0,1-2.33-2.25,2.32,2.32,0,1,1,2.33,2.25Z" transform="translate(-4.89 -36.86)"/><path class="j" d="M106.92,180.26a2.28,2.28,0,0,1,2.32-2.25,2.18,2.18,0,0,1,.57.08l-.31,1a19.06,19.06,0,0,0-.55,3.37A2.27,2.27,0,0,1,106.92,180.26Z" transform="translate(-4.89 -36.86)"/><path class="j" d="M93.32,162.71a2.34,2.34,0,0,1-3.92,1.63l.12-.38a23.48,23.48,0,0,1,1.33-3.48H91A2.29,2.29,0,0,1,93.32,162.71Z" transform="translate(-4.89 -36.86)"/><path class="j" d="M100.09,164.94a2.25,2.25,0,1,1,2.31-2.25A2.28,2.28,0,0,1,100.09,164.94Z" transform="translate(-4.89 -36.86)"/><path class="j" d="M109.16,160.43a2.25,2.25,0,1,1-2.32,2.25A2.29,2.29,0,0,1,109.16,160.43Z" transform="translate(-4.89 -36.86)"/><path class="k" d="M99.56,164.11s-.82-1.91.49-2.07l.14,0,.13,0c1.32.16.49,2.07.49,2.07,8.59,4.83,9.85,11.5,9.94,15.94.13,5.69-2.79,9.76-4.46,10.31a1.78,1.78,0,0,1-1.9-3c1.67-1.49,4.1-2.37,4-7.57-.14-6-6.89-10.7-8.19-11.56-1.31.86-8.06,5.59-8.19,11.56-.12,5.2,2.32,6.08,4,7.57a1.78,1.78,0,0,1-1.9,3c-1.66-.55-4.58-4.62-4.46-10.31C89.72,175.61,91,168.94,99.56,164.11Z" transform="translate(-4.89 -36.86)"/><path class="k" d="M257.66,164.09l50.18,20.79a192.33,192.33,0,0,1-1.24-20.79,192,192,0,0,1,1.24-20.78Z" transform="translate(-4.89 -36.86)"/><path class="f" d="M257.66,164.09l50.18-20.78a191.32,191.32,0,0,1-15.58-13.82,190.38,190.38,0,0,1-13.81-15.58Z" transform="translate(-4.89 -36.86)"/><path class="l" d="M257.66,164.09l50.18-20.78a191.32,191.32,0,0,1-15.58-13.82,190.38,190.38,0,0,1-13.81-15.58Z" transform="translate(-4.89 -36.86)"/><path class="k" d="M257.66,164.09l20.79-50.18a190.58,190.58,0,0,1-20.79,1.25,190.51,190.51,0,0,1-20.78-1.25Z" transform="translate(-4.89 -36.86)"/><path class="f" d="M257.66,164.09l-20.78-50.18a189.42,189.42,0,0,1-13.82,15.58,192.52,192.52,0,0,1-15.57,13.82Z" transform="translate(-4.89 -36.86)"/><path class="m" d="M257.66,164.09l-20.78-50.18a189.42,189.42,0,0,1-13.82,15.58,192.52,192.52,0,0,1-15.57,13.82Z" transform="translate(-4.89 -36.86)"/><path class="k" d="M257.66,164.09l-50.17-20.78a192,192,0,0,1,1.24,20.78,190.82,190.82,0,0,1-1.25,20.79Z" transform="translate(-4.89 -36.86)"/><path class="f" d="M257.66,164.09l-50.18,20.79a173.71,173.71,0,0,1,29.4,29.39Z" transform="translate(-4.89 -36.86)"/><path class="n" d="M257.66,164.09l-50.18,20.79a173.71,173.71,0,0,1,29.4,29.39Z" transform="translate(-4.89 -36.86)"/><path class="k" d="M257.66,164.09l-20.78,50.18a173.43,173.43,0,0,1,41.57,0Z" transform="translate(-4.89 -36.86)"/><path class="f" d="M257.66,164.09l20.79,50.18a192.3,192.3,0,0,1,13.81-15.58,190.38,190.38,0,0,1,15.58-13.81Z" transform="translate(-4.89 -36.86)"/><path class="o" d="M257.66,164.09l20.79,50.18a192.3,192.3,0,0,1,13.81-15.58,190.38,190.38,0,0,1,15.58-13.81Z" transform="translate(-4.89 -36.86)"/><path class="p" d="M262.42,164.1a4.76,4.76,0,1,1-4.76-4.76A4.75,4.75,0,0,1,262.42,164.1Z" transform="translate(-4.89 -36.86)"/><path class="c" d="M37,55.17a7.33,7.33,0,0,0-2.78-4c-2.45-1.76-5.08-1.42-7.54.19A5.82,5.82,0,0,1,30.91,49,6.39,6.39,0,0,1,37.1,52.1a6.42,6.42,0,0,1,6.41-2.62,5.76,5.76,0,0,1,4.06,2.75c-2.31-1.82-4.92-2.34-7.5-.8A7.39,7.39,0,0,0,37,55.17Z" transform="translate(-4.89 -36.86)"/><path class="c" d="M267.66,65.16a7.79,7.79,0,0,1,3.22-3.95c2.69-1.63,5.41-1.12,7.84.76a6,6,0,0,0-4.25-2.84,6.69,6.69,0,0,0-6.7,2.81,6.73,6.73,0,0,0-6.51-3.23,6,6,0,0,0-4.43,2.57c2.54-1.72,5.3-2.08,7.88-.28A7.7,7.7,0,0,1,267.66,65.16Z" transform="translate(-4.89 -36.86)"/><path class="c" d="M298.38,44.79a9.61,9.61,0,0,0-3.92-4.88c-3.29-2-6.63-1.39-9.66.91a7.49,7.49,0,0,1,5.28-3.48,8.2,8.2,0,0,1,8.19,3.5,8.26,8.26,0,0,1,8-3.94,7.52,7.52,0,0,1,5.44,3.18c-3.14-2.11-6.49-2.57-9.69-.38A9.73,9.73,0,0,0,298.38,44.79Z" transform="translate(-4.89 -36.86)"/><path class="f" d="M208.24,202.28h0l.47-.65h0a4.11,4.11,0,0,0-.92-5.72,3.93,3.93,0,0,0-1-.52,5.34,5.34,0,0,1-.89,4.19l-.47.65a4.1,4.1,0,0,0,.92,5.72,3.93,3.93,0,0,0,1,.52A5.31,5.31,0,0,1,208.24,202.28Z" transform="translate(-4.89 -36.86)"/><path class="f" d="M203.65,204.33h0l-.47-.65h0a4.09,4.09,0,0,0-5.72-.9,3.94,3.94,0,0,0-.81.82,5.3,5.3,0,0,1,3.71,2.14l.47.64a4.09,4.09,0,0,0,5.72.9,4.14,4.14,0,0,0,.81-.81A5.3,5.3,0,0,1,203.65,204.33Z" transform="translate(-4.89 -36.86)"/><path class="f" d="M204.17,209.33h0l-.77.25h0a4.1,4.1,0,0,0-2.61,5.16,4,4,0,0,0,.52,1,5.31,5.31,0,0,1,3.18-2.87l.77-.25a4,4,0,0,0,2.09-6.18A5.32,5.32,0,0,1,204.17,209.33Z" transform="translate(-4.89 -36.86)"/><path class="f" d="M209.09,210.37h0v.81h0a4.11,4.11,0,0,0,4.1,4.09,4,4,0,0,0,1.14-.19,5.33,5.33,0,0,1-1.75-3.91v-.8a4.08,4.08,0,0,0-4.1-4.08,3.93,3.93,0,0,0-1.13.18A5.29,5.29,0,0,1,209.09,210.37Z" transform="translate(-4.89 -36.86)"/><path class="f" d="M213.45,202.94l-.77-.25a4.09,4.09,0,0,0-5.15,2.64,4,4,0,0,0-.18,1.14,5.27,5.27,0,0,1,4.25-.45h0l.76.24h0a4.09,4.09,0,0,0,5.15-2.63,4,4,0,0,0,.18-1.14A5.31,5.31,0,0,1,213.45,202.94Z" transform="translate(-4.89 -36.86)"/><path class="f" d="M309.27,197.58h0l.64-.87h0a5.48,5.48,0,0,0-1.23-7.65,5.72,5.72,0,0,0-1.37-.7,7.17,7.17,0,0,1-1.19,5.61l-.64.87a5.42,5.42,0,0,0,2.6,8.36A7.14,7.14,0,0,1,309.27,197.58Z" transform="translate(-4.89 -36.86)"/><path class="f" d="M303.12,200.33h0l-.64-.87h0a5.49,5.49,0,0,0-7.66-1.2,5.57,5.57,0,0,0-1.08,1.09,7.13,7.13,0,0,1,5,2.87l.64.87a5.49,5.49,0,0,0,7.66,1.2,5.31,5.31,0,0,0,1.08-1.09A7.15,7.15,0,0,1,303.12,200.33Z" transform="translate(-4.89 -36.86)"/><path class="f" d="M303.83,207h0l-1,.34h0a5.49,5.49,0,0,0-3.51,6.91,5.21,5.21,0,0,0,.7,1.37,7.15,7.15,0,0,1,4.26-3.84l1-.33a5.49,5.49,0,0,0,3.5-6.92,5.31,5.31,0,0,0-.7-1.36A7.12,7.12,0,0,1,303.83,207Z" transform="translate(-4.89 -36.86)"/><path class="f" d="M310.42,208.42h0v1.08h0a5.49,5.49,0,0,0,5.49,5.48,5.56,5.56,0,0,0,1.52-.25,7.14,7.14,0,0,1-2.34-5.24v-1.07a5.48,5.48,0,0,0-5.49-5.48,5.26,5.26,0,0,0-1.52.25A7.11,7.11,0,0,1,310.42,208.42Z" transform="translate(-4.89 -36.86)"/><path class="f" d="M316.25,198.46l-1-.33a5.42,5.42,0,0,0-7.14,5.06,7.11,7.11,0,0,1,5.7-.61h0l1,.34h0a5.42,5.42,0,0,0,7.14-5.06A7.1,7.1,0,0,1,316.25,198.46Z" transform="translate(-4.89 -36.86)"/></svg>