<svg xmlns="http://www.w3.org/2000/svg" viewBox="0 0 61.5 81.5"><defs><style>.a{fill:#d9dce3;}</style></defs><title>notification</title><path class="a" d="M80.3,71.52l-5.55-8.31V40.75A24.75,24.75,0,0,0,53.5,16.25v-3.5a3.5,3.5,0,0,0-7,0v3.5a24.75,24.75,0,0,0-21.25,24.5V63.21L19.7,71.52a3.56,3.56,0,0,0,0,3.49,3.41,3.41,0,0,0,3,1.74H77.33a3.39,3.39,0,0,0,3-1.74A3.56,3.56,0,0,0,80.3,71.52ZM50,90.75c4.4,0,8.18-4.13,9.8-10H40.2C41.82,86.62,45.6,90.75,50,90.75Z" transform="translate(-19.25 -9.25)"/></svg>