<?xml version="1.0" encoding="utf-8"?>
<!-- Generator: Adobe Illustrator 22.0.0, SVG Export Plug-In . SVG Version: 6.00 Build 0)  -->
<svg version="1.1" id="Layer_1" xmlns="http://www.w3.org/2000/svg" xmlns:xlink="http://www.w3.org/1999/xlink" x="0px" y="0px"
	 viewBox="0 0 1024 1280" style="enable-background:new 0 0 1024 1280;" xml:space="preserve">
<style type="text/css">
	.st0{display:none;stroke:#000000;stroke-width:40;stroke-miterlimit:10;}
	.st1{display:none;fill:none;stroke:#000000;stroke-width:40;stroke-miterlimit:10;}
	.st2{display:none;}
	.st3{fill:#3BC2D6;stroke:#3BC2D6;stroke-width:40;stroke-miterlimit:10;}
</style>
<polygon class="st0" points="69,376.9 515.3,41.9 961,376.9 961,1000.1 669.9,1000.1 669.8,626.2 365,626.1 365,1000.1 69,1000.1 
	"/>
<path class="st0" d="M694,225.4c0,102.7-83.3,186-186,186s-186-83.3-186-186s83.3-186,186-186C610.7,39.4,694,122.7,694,225.4z
	 M800,765.6c0-141.4-114.6-256-256-256h-72c-141.4,0-256,114.6-256,256v228h584V765.6z"/>
<path class="st1" d="M998.8,161v696h-968V161L998.8,161L998.8,161z M30.8,161l398,387c0,0,86,95,190,0l380-387 M998.8,857L655,509.6
	 M30.8,857l359.7-347.4"/>
<path class="st0" d="M318.6,415.8c0,0,96,189,288,288c0,0,21.3,6.2,45.3-17.8l37.5-36c0,0,25.5-39,87-7.5l174,102
	c0,0,61.5,25.5,0,85.5l-114,115.5c0,0-25.5,48-153,19.5c0,0-433.8-114.2-622.8-612.3c0,0-42-90,18-162l126-127
	c0,0,51.3-42.2,76.8,17.8l93,177c0,0,34.5,40.5-9,85.5l-39,36C326.4,380.1,305.7,393.1,318.6,415.8z"/>
<path class="st1" d="M59.8,407.1h327h246h327 M344.8,257c25.5-145.6,161.9-137.9,161.9-137.9S643.3,108.4,674.8,257 M915.8,257h-812
	c-24.3,0-44,19.7-44,44v568c0,24.3,19.7,44,44,44h812c24.3,0,44-19.7,44-44V301C959.8,276.7,940.1,257,915.8,257z M632.8,462
	c0,24.3-19.7,44-44,44h-158c-24.3,0-44-19.7-44-44v-55h246V462z"/>
<path class="st2" d="M1002.1,452.5c0,125.6-121.1,233.4-294.2,280.3L555.3,886.8l-41.2-128.9c-269.5,0-488-136.7-488-305.4
	c0-168.7,218.5-305.4,488-305.4C783.6,147.2,1002.1,283.9,1002.1,452.5z M235.3,412.6c-29.1,0-52.7,23.6-52.7,52.7
	c0,29.1,23.6,52.7,52.7,52.7s52.7-23.6,52.7-52.7C288,436.2,264.4,412.6,235.3,412.6z M514.6,412.6c-29.1,0-52.7,23.6-52.7,52.7
	c0,29.1,23.6,52.7,52.7,52.7c29.1,0,52.7-23.6,52.7-52.7C567.3,436.2,543.7,412.6,514.6,412.6z M780.9,412.6
	c-29.1,0-52.7,23.6-52.7,52.7c0,29.1,23.6,52.7,52.7,52.7c29.1,0,52.7-23.6,52.7-52.7C833.6,436.2,810,412.6,780.9,412.6z"/>
<path class="st1" d="M984.9,271.8v471.1c0,56.3-45.7,102-102,102H147.8c-56.3,0-102-45.7-102-102V175.8h741.1v565.1
	c0,0-5.8,104,85.7,104.7 M883.1,273.1v506.7 M138.8,322.8h543.1 M681.8,444.8H138.8 M138.8,566.8h306 M444.8,688.8h-306"/>
<path class="st0" d="M367.8,794.1c0,92.2-74.7,166.9-166.9,166.9c-92.2,0-166.9-74.7-166.9-166.9c0-92.2,74.7-166.9,166.9-166.9
	C293,627.2,367.8,701.9,367.8,794.1z M561.2,24.6c-84.3,0-152.7,68.4-152.7,152.7c0,84.3,68.4,152.7,152.7,152.7
	c84.3,0,152.7-68.4,152.7-152.7C713.8,92.9,645.5,24.6,561.2,24.6z M868.2,731c-73.1,0-132.3,59.2-132.3,132.3
	s59.2,132.3,132.3,132.3s132.3-59.2,132.3-132.3S941.3,731,868.2,731z M735.9,863.3l-370.6-40.5 M475.9,304L272.3,643.2"/>
<path class="st0" d="M598,926.8c0,41.5-33.7,75.2-75.2,75.2l0,0c-41.5,0-75.2-33.7-75.2-75.2V373c0-41.5,33.7-75.2,75.2-75.2l0,0
	c41.5,0,75.2,33.7,75.2,75.2V926.8z M522.8,24.3c-52.9,0-95.7,42.9-95.7,95.7c0,52.9,42.9,95.7,95.7,95.7s95.7-42.9,95.7-95.7
	C618.6,67.2,575.7,24.3,522.8,24.3z"/>
<polygon class="st0" points="529.8,130.8 49.8,512 529.8,883.9 529.8,694.8 967.9,693.8 967.9,328.8 529.8,328.8 "/>
<polygon class="st0" points="487,883.9 967,502.6 487,130.8 487,319.8 49,320.8 49,685.8 487,685.8 "/>
<path class="st1" d="M991.9,513.4c0,263.8-213.9,477.7-477.7,477.7S36.4,777.3,36.4,513.4c0-263.8,213.9-477.7,477.7-477.7
	S991.9,249.6,991.9,513.4z M734.7,516.6h-437 M497.8,705.4L293.6,516.6l204.2-195.2"/>
<path class="st1" d="M36.4,513.4c0-263.8,213.9-477.7,477.7-477.7s477.7,213.9,477.7,477.7c0,263.8-213.9,477.7-477.7,477.7
	S36.4,777.3,36.4,513.4z M293.6,510.2h437 M530.5,321.4l204.2,188.8L530.5,705.4"/>
<path class="st1" d="M514.2,763.4l-0.2-500 M764.2,513.3l-500,0.2 M989.7,512c0,263.8-213.9,477.7-477.7,477.7S34.3,775.8,34.3,512
	S248.2,34.3,512,34.3S989.7,248.2,989.7,512z"/>
<path class="st1" d="M764.2,513.3l-500,0.2 M989.7,512c0,263.8-213.9,477.7-477.7,477.7S34.3,775.8,34.3,512
	C34.3,248.2,248.2,34.3,512,34.3S989.7,248.2,989.7,512z"/>
<path class="st1" d="M690.9,336.6L337.4,690.2 M337.3,336.7L691,690.1 M989.7,512c0,263.8-213.9,477.7-477.7,477.7
	S34.3,775.8,34.3,512S248.2,34.3,512,34.3S989.7,248.2,989.7,512z"/>
<circle class="st1" cx="453.9" cy="452.1" r="415.8"/>
<polyline class="st0" points="719.1,773.2 923.8,988.4 979.7,932.5 774,716.2 "/>
<circle class="st1" cx="457" cy="451.7" r="415.8"/>
<polyline class="st0" points="722.2,772.9 926.9,988.1 982.8,932.1 777.1,715.9 "/>
<line class="st1" x1="457" y1="610.7" x2="457" y2="292.7"/>
<line class="st1" x1="298" y1="451.7" x2="616" y2="451.7"/>
<circle class="st1" cx="457" cy="451.7" r="415.8"/>
<polyline class="st0" points="722.2,772.9 926.9,988.1 982.8,932.1 777.1,715.9 "/>
<line class="st1" x1="298" y1="451.7" x2="616" y2="451.7"/>
<polygon class="st3" points="517.3,67.9 658.1,356.3 985,407.6 751.1,651.1 802.3,971.5 517.3,820.9 225.5,971.5 283.2,651.1 
	46.1,407.6 376.1,356.3 "/>
<path class="st1" d="M513.4,141c0,0,277.1-171.5,441.1,60.5c0,0,113.2,181-19.3,387.3c0,0-104.6,197.2-421.7,363.5
	c0,0-287.5-143.6-411.2-347.4c0,0-140.3-188.7-36.2-392.1C66.1,212.8,187-34.5,513.4,141z"/>
<path class="st1" d="M129,851l132-348c0,0,20-76,68-74s630,1,630,1s60,7,40,67L863,851H129z M879,361c0,0,0-50-56-54H395l-66-120H73
	c0,0-46,0-48,54v492c0,0,6,54,56,54"/>
<path class="st1" d="M721.2,224.4h173.1c55.2,0,100,44.8,100,100V752c0,55.2-44.8,100-100,100h-761c-55.2,0-100-44.8-100-100V324.4
	c0-55.2,44.8-100,100-100h174.1 M739.4,222.2c0-55.2-44.8-105.9-100-105.9H388.3c-55.2,0-100,50.7-100,105.9 M513.8,317
	c-122.1,0-221.1,99-221.1,221.1s99,221.1,221.1,221.1S735,660.3,735,538.2S636,317,513.8,317z"/>
<path class="st1" d="M639.9,44.5l-81.7,95.6h-80l-79.4-97.4L278.2,90.6v131.6l-64,60l-120-8.8l-48,117.4l95.9,77.4v92L48,643.6
	l44.5,107.9h135.6l50,61.6l-12.1,117L398.8,985l69.4-94.9h100l71.7,91.9l124.9-51.4L750,810.1l58.2-58.6h131l44.5-107.9l-99.5-85.5
	v-94l101.3-73.4l-52.6-125.4l-120.7,16.8l-62.2-60V88.6L639.9,44.5z M515.9,290.5c-123.4,0-223.4,100-223.4,223.4
	s100,223.4,223.4,223.4s223.4-100,223.4-223.4S639.2,290.5,515.9,290.5z"/>
<path class="st1" d="M680.9,570.2c0,88.9-72.1,161-161,161l0,0c-88.9,0-161-72.1-161-161V189c0-88.9,72.1-161,161-161l0,0
	c88.9,0,161,72.1,161,161V570.2z M258.4,567.3c0,144.5,117.1,261.6,261.6,261.6l0,0c144.5,0,261.6-117.1,261.6-261.6 M520,998
	l0-169.1 M352.7,998h334.5"/>
<path class="st1" d="M58.2,872.2V586.9c0-267.2,204.2-483.8,456.1-483.8l0,0c251.9,0,456.1,216.6,456.1,483.8v285.3 M247.9,526.2
	c0-37.4-28.5-67.6-63.8-67.6l0,0c-35.2,0-63.8,30.3-63.8,67.6v331.2c0,37.4,28.5,67.6,63.8,67.6l0,0c35.2,0,63.8-30.3,63.8-67.6
	L247.9,526.2L247.9,526.2z M908.2,526.2c0-37.4-28.5-67.6-63.8-67.6l0,0c-35.2,0-63.8,30.3-63.8,67.6v331.2
	c0,37.4,28.5,67.6,63.8,67.6l0,0c35.2,0,63.8-30.3,63.8-67.6V526.2z"/>
<path class="st1" d="M415,686H193V344h222L723,82c0,0,66-40,66,40v780c0,0-2,90-72,42L415,686z"/>
<path class="st1" d="M354.7,282.5L594,79c0,0,66-40,66,40v457 M286,341H64v342h222l302,258c70,48,72-42,72-42V706 M78,69L968,955"/>
<polygon class="st1" points="161,54 161,977 905,512 "/>
<path class="st1" d="M390,860H238V164h152V860z M786,164H634v696h152V164z"/>
<path class="st1" d="M567,51h406v418L467,967L61,563L567,51z M811,154c-36.5,0-66,29.5-66,66s29.5,66,66,66s66-29.5,66-66
	S847.5,154,811,154z"/>
<path class="st1" d="M517.7,21v988 M256.9,695c29.9,208,260.7,186,260.7,186C807,881.7,771,679,771,679c-10-148-253.3-167-253.3-167
	C246.4,489,257,321,257,321c-0.1-204,260.7-190,260.7-190C748.4,129,771,321,771,321"/>
<path class="st1" d="M320,245h662L808,659H370L206,245H20 M422,729c-26,0-47,21-47,47s21,47,47,47s47-21,47-47S448,729,422,729z
	 M754,729c-26,0-47,21-47,47s21,47,47,47s47-21,47-47S780,729,754,729z"/>
<path class="st1" d="M865.6,376.8c0,48.3-9.8,94.4-27.5,136.3C785,638.7,515.5,987.3,515.5,987.3S246,638.7,192.9,513.1
	c-17.7-41.9-27.5-87.9-27.5-136.3c0-193.4,156.8-350.1,350.1-350.1S865.6,183.4,865.6,376.8z M515.5,203.1
	c-86.4,0-156.4,70-156.4,156.4c0,86.4,70,156.4,156.4,156.4s156.4-70,156.4-156.4S601.9,203.1,515.5,203.1z"/>
<path class="st1" d="M279,159l233,92l245-92l156,56l80,644l-236-96l-243.5,96L279,757L31,859l86-644L279,159z M512,251l0.5,608
	 M279,159v598 M757,159v604"/>
<path class="st1" d="M904.1,512C904.1,728.5,728.5,904,512,904S119.9,728.5,119.9,512c0-216.5,175.5-392.1,392.1-392.1
	S904.1,295.5,904.1,512z M512,242.8v-229 M512,996.8v-229 M20.5,512h229 M774.5,512h229 M512,414.3c-53.9,0-97.7,43.7-97.7,97.7
	s43.7,97.7,97.7,97.7s97.7-43.7,97.7-97.7C609.7,458.1,565.9,414.3,512,414.3z"/>
<path class="st1" d="M738.5,773.1c0,125.1-101.4,226.5-226.5,226.5l0,0c-125.1,0-226.5-101.4-226.5-226.5V392
	c0-125.1,101.4-226.5,226.5-226.5l0,0c125.1,0,226.5,101.4,226.5,226.5V773.1z M551.5,322.7c0-21.8-17.7-39.5-39.5-39.5l0,0
	c-21.8,0-39.5,17.7-39.5,39.5v180.3c0,21.8,17.7,39.5,39.5,39.5l0,0c21.8,0,39.5-17.7,39.5-39.5V322.7z M512,165.6
	c0,0,3.3-112.3-90.8-141.2"/>
<path class="st1" d="M1000.6,327.4v548.7c0,71.2-57.7,128.9-128.9,128.9H166.1c-71.2,0-128.9-57.7-128.9-128.9V157.9
	C37.2,86.7,94.9,29,166.1,29H671 M409,454.2l161.1,163l422.1-419.3L832,37.6L409,454.2z M376,519.9l-46.2,176.3l174.9-43.4
	L376,519.9z"/>
<path class="st1" d="M514.2,526.4l-0.2-403 M741.2,743.3l-229-229.8 M989.7,512c0,263.8-213.9,477.7-477.7,477.7
	S34.3,775.8,34.3,512C34.3,248.2,248.2,34.3,512,34.3S989.7,248.2,989.7,512z"/>
<path class="st1" d="M1004.5,878c0,37-30,67-67,67h-846c-37,0-67-30-67-67V236c0-37,30-67,67-67h846c37,0,67,30,67,67V878z
	 M219.5,67v186 M809.5,67v186 M306.8,410.5h-122v122h122V410.5z M572.8,532.5h-122v-122h122V532.5z M844.3,532.5h-122v-122h122
	V532.5z M305.3,652.5h-122v122h122V652.5z M571.3,774.5h-122v-122h122V774.5z M842.8,774.5h-122v-122h122V774.5z"/>
<path class="st1" d="M878.8,527.5c0,204.5-165.8,370.3-370.3,370.3c-204.5,0-370.3-165.8-370.3-370.3
	c0-204.5,165.8-370.3,370.3-370.3C713,157.2,878.8,323,878.8,527.5z M316.4,527.5H521v-236 M821.1,1011L707.4,841.8 M195.9,1011
	l119.9-169.2 M355,24.5C134.7,85.3,63.4,278.3,63.4,278.3 M668.6,24.5c220.3,60.8,291.6,253.8,291.6,253.8"/>
<path class="st1" d="M761.4,933.7c0,36.7-29.8,66.5-66.5,66.5h-379c-36.7,0-66.5-29.8-66.5-66.5V90.3c0-36.7,29.8-66.5,66.5-66.5
	h379c36.7,0,66.5,29.8,66.5,66.5V933.7z M764.4,163.7H246.5 M246.5,838.4h517.9 M505.4,885.9c-18.1,0-32.8,14.7-32.8,32.8
	c0,18.1,14.7,32.8,32.8,32.8c18.1,0,32.8-14.7,32.8-32.8C538.2,900.6,523.6,885.9,505.4,885.9z M573.9,91.3H437"/>
<path class="st1" d="M914.9,689.9c0,18.3-14.8,33.1-33.1,33.1H142.3c-18.3,0-33.1-14.8-33.1-33.1V220.8c0-18.3,14.8-33.1,33.1-33.1
	h739.5c18.3,0,33.1,14.8,33.1,33.1L914.9,689.9L914.9,689.9z M975.5,806.4c0-16.6-13.4-30-30-30H78.5c-16.6,0-30,13.4-30,30l0,0
	c0,16.6,13.4,30,30,30h867.1C962.1,836.4,975.5,823,975.5,806.4L975.5,806.4z"/>
<path class="st1" d="M987.5,706c0,21.5-17.5,39-39,39H75.5c-21.5,0-39-17.5-39-39V205c0-21.5,17.5-39,39-39h873.1
	c21.5,0,39,17.5,39,39V706z M813.5,831c0-14.9-12.1-27-27-27H237.5c-14.9,0-27,12.1-27,27l0,0c0,14.9,12.1,27,27,27h549.1
	C801.4,858,813.5,845.9,813.5,831L813.5,831z"/>
<path class="st1" d="M851.4,958.7c0,23.4-19,42.4-42.4,42.4H218.9c-23.4,0-42.4-19-42.4-42.4V65.3c0-23.4,19-42.4,42.4-42.4h590.1
	c23.4,0,42.4,19,42.4,42.4V958.7z M514,440.2c-134.1,0-242.9,108.7-242.9,242.9c0,134.1,108.7,242.9,242.9,242.9
	S756.9,817.2,756.9,683C756.9,548.9,648.1,440.2,514,440.2z M514,590.1c-51.3,0-92.9,41.6-92.9,92.9c0,51.3,41.6,92.9,92.9,92.9
	c51.3,0,92.9-41.6,92.9-92.9C606.9,631.7,565.3,590.1,514,590.1z M514,101.5c-64.5,0-116.8,52.3-116.8,116.8S449.5,335.2,514,335.2
	c64.5,0,116.8-52.3,116.8-116.8C630.8,153.9,578.5,101.5,514,101.5z"/>
<path class="st1" d="M280.6,800.4H62.5c-22.1,0-40.1-18-40.1-40.1V294.4c0-22.1,18-40.1,40.1-40.1h219.1 M745.9,800.4h217.5
	c22.1,0,40.1-18,40.1-40.1V294.4c0-22.1-18-40.1-40.1-40.1H750.9 M747.4,680h-472l3,262.3h472L747.4,680z M748.9,77.7h-472v302.8
	h472V77.7z M1003.5,450.4H22.4 M344,762.6h338.4 M343.7,856.3h338.4"/>
<path class="st1" d="M927.9,828.7c0,92.3-74.8,167.1-167.1,167.1H263.5c-92.3,0-167.1-74.8-167.1-167.1V532.5
	c0-92.3,74.8-167.1,167.1-167.1h497.3c92.3,0,167.1,74.8,167.1,167.1V828.7z M719.3,293.9v-58c0-114.4-92.7-207.1-207.1-207.1l0,0
	c-114.4,0-207.1,92.7-207.1,207.1v58 M512.2,572.5c-59.7,0-108.1,48.4-108.1,108.1c0,59.7,48.4,108.1,108.1,108.1
	c59.7,0,108.1-48.4,108.1-108.1C620.2,620.9,571.9,572.5,512.2,572.5z"/>
<path class="st1" d="M265.5,282.7L22.6,525.6 M265.7,741.3L22.8,498.4 M340,852.2l347-680.5 M1004.3,525.6L761.4,282.7
	 M1004.1,498.4L761.2,741.3"/>
<path class="st1" d="M516.2,27l381.1,75.6v522.8c0,0,8.4,197.4-381.1,371.6c0,0-343.3-121.8-389.5-363.2V104.7L516.2,27z
	 M314.7,459.9l132.9,132.9l261.6-261.6"/>
<path class="st1" d="M1021,893.6H33V130.4 M282.3,399.1H172.4v381.6h109.9L282.3,399.1L282.3,399.1z M579.8,237.4H469.9v543.2h109.9
	V237.4z M845,350.6H735v430.1H845V350.6z"/>
<path class="st1" d="M877.4,998.9H145.8V26h466.7l265,268.9V998.9z M613.2,25.1l1,270.9h265 M514.6,153.3h-283 M514.6,296.1h-283
	 M791.5,438.9H231.7 M791.5,581.7H231.7 M791.5,724.4H231.7 M791.5,867.2H231.7"/>
<path class="st1" d="M994,1003.9H65.5V23h724.2L994,237.4V1003.9z M777.2,23h-495v281.5h495V23z M802.6,681.6H256.8 M256.8,837.7
	h545.8"/>
<path class="st1" d="M27.1,524C124.3,683.5,305.9,790.8,514,790.8c208.1,0,389.7-107.3,486.9-266.8
	C903.1,366.6,720.4,257.1,514,257.1c-207.7,0-389.1,106.9-486.4,266L27.1,524z M656.1,524c0,78.5-63.6,142.1-142.1,142.1
	c-78.5,0-142.1-63.6-142.1-142.1c0-78.5,63.6-142.1,142.1-142.1S656.1,445.5,656.1,524z"/>
<path class="st1" d="M855.1,536.2c0,147.6-119.7,267.3-267.3,267.3H448.2c-147.6,0-267.3-119.7-267.3-267.3V377.4h674.2V536.2z
	 M368.6,76.8c0-26.5-21.5-48.1-48.1-48.1l0,0c-26.5,0-48.1,21.5-48.1,48.1v300.8h96.1V76.8z M763.5,377.6h-96.1V76.8
	c0-26.5,21.5-48.1,48.1-48.1l0,0c26.5,0,48.1,21.5,48.1,48.1L763.5,377.6L763.5,377.6z M521.6,803.5
	C518.8,949,571.3,1009,571.3,1009"/>
<polygon class="st1" points="436.8,31 777,31 562.1,335.4 777,335.4 264.9,904.8 440.4,518.1 247,518.1 "/>
<path class="st1" d="M864.2,863.2c0,36.3-29.5,65.8-65.8,65.8H89.6c-36.3,0-65.8-29.5-65.8-65.8v-561c0-36.3,29.5-65.8,65.8-65.8
	h708.7c36.3,0,65.8,29.5,65.8,65.8V863.2z M776.5,809L624.1,485.7L434.8,721.2L296.3,568.9L111.6,809H776.5z M282.4,407.3
	c0,28.1-22.7,50.8-50.8,50.8s-50.8-22.7-50.8-50.8c0-28,22.7-50.8,50.8-50.8C259.7,356.5,282.4,379.2,282.4,407.3z M936.3,791.2
	c36.3,0,65.8-29.5,65.8-65.8v-561c0-36.3-29.5-65.8-65.8-65.8H227.6c-36.3,0-65.8,29.5-65.8,65.8"/>
<path class="st1" d="M720.8,750.5c0,38.7-31.3,70-70,70h-558c-38.7,0-70-31.3-70-70V301.1c0-38.7,31.3-70,70-70h558
	c38.7,0,70,31.3,70,70V750.5z M1001.4,286.8L720.8,403.7v244.1l280.7,116.9V286.8z"/>
<path class="st1" d="M313.5,826.4v-646l689.3-72.2v718.2 M169.1,689.2c-79.7,0-144.4,56.6-144.4,126.3s64.6,126.3,144.4,126.3
	s144.4-56.6,144.4-126.3S248.9,689.2,169.1,689.2z M858.8,690.2c-79.7,0-144.4,56.6-144.4,126.3s64.6,126.3,144.4,126.3
	c79.7,0,144.4-56.6,144.4-126.3S938.5,690.2,858.8,690.2z M313.5,338l689.3-72.2"/>
<path class="st1" d="M290.3,907.1H27V643.8 M739.5,907.1h263.3V643.8 M290.3,104.8H27v263.3 M1002.9,368.1V104.8H739.5"/>
<path class="st1" d="M7.5,655.3h273.8v273.8 M1022.3,655.3H748.5v273.8 M7.5,368.7h273.8V94.8 M748.5,94.8v273.9h273.9"/>
<path class="st1" d="M159.3,844.7H35V553.2h124.3V844.7z M437.2,403.2H312.9v441.5h124.3V403.2z M715.1,274.6H590.8v570.1h124.3
	V274.6z M993,146H868.7v698.7H993V146z"/>
<path class="st1" d="M188.6,283.3c0,21.1-17.1,38.2-38.2,38.2H65.2c-21.1,0-38.2-17.1-38.2-38.2v-85.3c0-21.1,17.1-38.2,38.2-38.2
	h85.3c21.1,0,38.2,17.1,38.2,38.2V283.3z M188.6,474.3c0-21.1-17.1-38.2-38.2-38.2H65.2c-21.1,0-38.2,17.1-38.2,38.2v85.3
	c0,21.1,17.1,38.2,38.2,38.2h85.3c21.1,0,38.2-17.1,38.2-38.2V474.3z M188.6,750.8c0-21.1-17.1-38.2-38.2-38.2H65.2
	c-21.1,0-38.2,17.1-38.2,38.2v85.3c0,21.1,17.1,38.2,38.2,38.2h85.3c21.1,0,38.2-17.1,38.2-38.2V750.8z M998.7,205.8H298.3v69.6
	h700.4V205.8z M998.7,482.2H298.3v69.6h700.4V482.2z M998.7,758.6H298.3v69.6h700.4V758.6z"/>
<path class="st1" d="M435.5,402c0,18.8-15.2,34-34,34h-341c-18.8,0-34-15.2-34-34V61c0-18.8,15.2-34,34-34h341c18.8,0,34,15.2,34,34
	V402z M1000.5,61c0-18.8-15.2-34-34-34h-341c-18.8,0-34,15.2-34,34v341c0,18.8,15.2,34,34,34h341c18.8,0,34-15.2,34-34V61z
	 M435.5,626c0-18.8-15.2-34-34-34h-341c-18.8,0-34,15.2-34,34v341c0,18.8,15.2,34,34,34h341c18.8,0,34-15.2,34-34V626z M1000.5,626
	c0-18.8-15.2-34-34-34h-341c-18.8,0-34,15.2-34,34v341c0,18.8,15.2,34,34,34h341c18.8,0,34-15.2,34-34V626z"/>
<path class="st1" d="M830.8,165.6v743.9c0,49.3-40,89.3-89.3,89.3H292.6c-49.3,0-89.3-40-89.3-89.3V165.6 M985.1,160.7H49
	 M725.7,160.8V86.1c0-32.5-26.3-58.8-58.8-58.8H367.3c-32.5,0-58.8,26.3-58.8,58.8v74.6 M344.1,287.1v590.1 M517.1,877.2V287.1
	 M690,877.2V287.1"/>
</svg>
